<!DOCTYPE svg PUBLIC "-//W3C//DTD SVG 1.1//EN" "http://www.w3.org/Graphics/SVG/1.1/DTD/svg11.dtd" [
	<!ENTITY ns_extend "http://ns.adobe.com/Extensibility/1.0/">
	<!ENTITY ns_ai "http://ns.adobe.com/AdobeIllustrator/10.0/">
	<!ENTITY ns_graphs "http://ns.adobe.com/Graphs/1.0/">
	<!ENTITY ns_vars "http://ns.adobe.com/Variables/1.0/">
	<!ENTITY ns_imrep "http://ns.adobe.com/ImageReplacement/1.0/">
	<!ENTITY ns_sfw "http://ns.adobe.com/SaveForWeb/1.0/">
	<!ENTITY ns_custom "http://ns.adobe.com/GenericCustomNamespace/1.0/">
	<!ENTITY ns_adobe_xpath "http://ns.adobe.com/XPath/1.0/">
]><svg id="Layer_1" xmlns="http://www.w3.org/2000/svg" viewBox="0 0 15 15"><style>.st2{fill-rule:evenodd;clip-rule:evenodd;fill:#fff}</style><switch><g><path class="st2" d="M3.7 7.5c0-2.1 1.7-3.8 3.8-3.8 2.1 0 3.8 1.7 3.8 3.8 0 2.1-1.7 3.8-3.8 3.8-2.1 0-3.8-1.7-3.8-3.8zM11.5 0h-8C1.6 0 0 1.6 0 3.5v7.9c0 2 1.6 3.6 3.5 3.6h7.9c2 0 3.5-1.6 3.5-3.5v-8C15 1.6 13.4 0 11.5 0zm-8 .9h7.9c1.5 0 2.7 1.2 2.7 2.7v7.9c0 1.5-1.2 2.7-2.7 2.7H3.5C2 14.2.8 13 .8 11.5v-8C.9 2.1 2.1.9 3.5.9zM12.2 2c-.4 0-.8.3-.8.8 0 .4.3.8.8.8.4 0 .8-.3.8-.8 0-.4-.3-.8-.8-.8zm.1 5.5c0-2.7-2.2-4.8-4.8-4.8-2.7 0-4.8 2.2-4.8 4.8 0 2.7 2.2 4.8 4.8 4.8 2.7 0 4.8-2.1 4.8-4.8z"/></g></switch></svg>