<!DOCTYPE svg PUBLIC "-//W3C//DTD SVG 1.1//EN" "http://www.w3.org/Graphics/SVG/1.1/DTD/svg11.dtd" [
	<!ENTITY ns_extend "http://ns.adobe.com/Extensibility/1.0/">
	<!ENTITY ns_ai "http://ns.adobe.com/AdobeIllustrator/10.0/">
	<!ENTITY ns_graphs "http://ns.adobe.com/Graphs/1.0/">
	<!ENTITY ns_vars "http://ns.adobe.com/Variables/1.0/">
	<!ENTITY ns_imrep "http://ns.adobe.com/ImageReplacement/1.0/">
	<!ENTITY ns_sfw "http://ns.adobe.com/SaveForWeb/1.0/">
	<!ENTITY ns_custom "http://ns.adobe.com/GenericCustomNamespace/1.0/">
	<!ENTITY ns_adobe_xpath "http://ns.adobe.com/XPath/1.0/">
]><svg id="Layer_1" xmlns="http://www.w3.org/2000/svg" viewBox="0 0 18.8 15"><style>.st2{fill-rule:evenodd;clip-rule:evenodd;fill:#fff}</style><switch><g><path class="st2" d="M18.8 1.8c-.7.3-1.4.5-2.2.6.8-.5 1.4-1.2 1.7-2.1-.7.4-1.6.8-2.5.9C15.1.5 14.1 0 13 0c-2.1 0-3.8 1.7-3.8 3.8 0 .3.1.6.1.9C6 4.5 3.2 3 1.3.7 1 1.3.8 1.9.8 2.6c0 1.3.7 2.5 1.7 3.2-.6 0-1.2-.2-1.7-.5v.1c0 .5.1.9.3 1.4.4 1.1 1.5 2 2.7 2.2-.3.1-.7.1-1 .1-.2 0-.5 0-.7-.1.5 1.5 1.9 2.6 3.6 2.6-1.3 1-3 1.6-4.8 1.6-.3 0-.6 0-.9-.1C1.7 14.4 3.7 15 5.9 15c6 0 9.7-4.2 10.7-8.5.2-.8.3-1.5.3-2.3v-.5c.7-.5 1.3-1.2 1.9-1.9z"/></g></switch></svg>