<?xml version="1.0" encoding="utf-8"?>
<!-- Generator: Adobe Illustrator 15.0.2, SVG Export Plug-In . SVG Version: 6.00 Build 0)  -->
<!DOCTYPE svg PUBLIC "-//W3C//DTD SVG 1.1//EN" "http://www.w3.org/Graphics/SVG/1.1/DTD/svg11.dtd">
<svg version="1.1" id="adultos_x5F_02_xA0_Image_1_"
	 xmlns="http://www.w3.org/2000/svg" xmlns:xlink="http://www.w3.org/1999/xlink" x="0px" y="0px" width="1098.2px"
	 height="1098.2px" viewBox="0 0 1098.2 1098.2" enable-background="new 0 0 1098.2 1098.2" xml:space="preserve">
<rect x="-3.4" y="-0.4" fill-rule="evenodd" clip-rule="evenodd" fill="#CCCCCC" width="1098.2" height="1098.6"/>
<g>
	<path fill-rule="evenodd" clip-rule="evenodd" fill="#FFFFFF" d="M538,113.6c45.2-2.1,91,9,124.6,23.3
		c68.1,28.9,119.4,79.9,150,145c15.5,33,28.2,73.9,28.2,119c0,97.2-33.1,162.2-82.5,212.6c-24,24.5-51.6,45.7-85.8,62
		c-33.4,15.9-74.5,28.2-119,28.2c-95.4,0-163-32.9-212.6-82.5c-48.6-48.6-88-111.8-90.2-204.8c-1.1-47.1,8.6-89.3,23.3-123.5
		c15.3-35.6,33.2-63.1,58.7-88.6c24.2-24.2,51.1-46.4,85.3-62.6C451.5,126,491,115.9,538,113.6z"/>
	<path fill-rule="evenodd" clip-rule="evenodd" fill="#FFFFFF" d="M811.5,1985.4c-177.2,0-354.3,0-531.5,0c0-293.4,0-594.1,0-890.2
		c0-31.6-1.2-60.3,2.8-86.4c11.5-75.2,49.9-128.2,101.3-165.5c34.6-25.1,78.6-44.8,132.3-47.6c64.9-3.4,117.3,5.3,158.9,27.1
		c40.6,21.3,73.2,51.4,96.9,88.6c25.4,39.9,39.3,85.2,39.3,146.2C811.5,1364.6,811.5,1677.5,811.5,1985.4z M523.1,1088
		c-10.4,19.3,5.4,38.5,23.3,38.2c16.7-0.2,31.4-18.9,22.7-37.1c-3.8-8-14-14.9-25.5-13.8C532.4,1076.3,525.5,1083.4,523.1,1088z
		 M520.3,1301.1c-3.7,31.8,38.7,38.7,49.3,13.8c6.5-15.4-3.9-29.7-12.7-33.8c-3.5-1.6-9.9-2.4-14.9-1.7
		C529.7,1281.3,521.6,1289.8,520.3,1301.1z M522.5,1497.1c-3.5,7.1-2.1,17.1-1.7,18.8c7.4,28.7,55.6,21.3,50.4-12.2
		c-2.1-13.2-15-22.6-30.4-19.9C529.2,1485.8,524,1494.1,522.5,1497.1z M523.1,1700.2c-10.4,19.3,5.4,38.5,23.3,38.2
		c16.7-0.2,31.4-18.9,22.7-37.1c-3.8-8-14-14.9-25.5-13.8C532.4,1688.6,525.5,1695.7,523.1,1700.2z"/>
	<path fill-rule="evenodd" clip-rule="evenodd" fill="#FFFFFF" d="M448.9,2026.9c19.6,0,39.1,0,58.7,0c0,41.5,0,82.8,0,126.2
		c0,14,1.9,29.4-2.2,39.3c-10.4,25.3-48.4,21.3-55.9-2.2c-3.3-10.5-1.1-26.5-1.1-39.9c0-39.9,0-83,0-121.8
		C448.3,2027.8,448.2,2027,448.9,2026.9z"/>
	<path fill-rule="evenodd" clip-rule="evenodd" fill="#FFFFFF" d="M584.5,2026.9c19.6,0,39.1,0,58.7,0c0,37.4,0,83.1,0,123.5
		c0,13.3,2.2,29.6-1.1,39.9c-4.2,13.1-20.9,24.6-38.2,18.8c-6.5-2.1-14.5-8.9-17.7-16.6c-4.2-10-2.2-25.5-2.2-39.3
		c0-42,0-83.3,0-124.6C583.9,2027.8,583.9,2027,584.5,2026.9z"/>
</g>
</svg>
