<?xml version="1.0" encoding="utf-8"?>
<!-- Generator: Adobe Illustrator 15.0.0, SVG Export Plug-In . SVG Version: 6.00 Build 0)  -->
<!DOCTYPE svg PUBLIC "-//W3C//DTD SVG 1.1//EN" "http://www.w3.org/Graphics/SVG/1.1/DTD/svg11.dtd">
<svg version="1.1" id="Layer_1" xmlns:sketch="http://www.bohemiancoding.com/sketch/ns"
	 xmlns="http://www.w3.org/2000/svg" xmlns:xlink="http://www.w3.org/1999/xlink" x="0px" y="0px" width="46px" height="46px"
	 viewBox="0 0 46 46" enable-background="new 0 0 46 46" xml:space="preserve">
<title>btn_google_light_normal_ios</title>
<desc>Created with Sketch.</desc>
<g id="Google-Button" sketch:type="MSPage">
	<g id="_x39_-PATCH" transform="translate(-608.000000, -160.000000)" sketch:type="MSArtboardGroup">
	</g>
	<g id="btn_google_light_normal" transform="translate(-1.000000, -1.000000)" sketch:type="MSArtboardGroup">
		<g id="logo_googleg_48dp" transform="translate(15.000000, 15.000000)" sketch:type="MSLayerGroup">
			<path id="Shape" sketch:type="MSShapeGroup" fill="#4285F4" d="M17.641,9.205c0-0.638-0.059-1.252-0.164-1.841H9v3.482h4.844
				c-0.209,1.125-0.843,2.078-1.796,2.716v2.258h2.909C16.658,14.253,17.641,11.945,17.641,9.205L17.641,9.205z"/>
			<path id="Shape_1_" sketch:type="MSShapeGroup" fill="#34A853" d="M9,18c2.43,0,4.467-0.806,5.957-2.181l-2.909-2.258
				C11.242,14.102,10.211,14.42,9,14.42c-2.344,0-4.328-1.582-5.036-3.71H0.957v2.332C2.438,15.983,5.482,18,9,18L9,18z"/>
			<path id="Shape_2_" sketch:type="MSShapeGroup" fill="#FBBC05" d="M3.964,10.71C3.784,10.17,3.682,9.594,3.682,9
				c0-0.593,0.103-1.17,0.282-1.71V4.958H0.957C0.348,6.173,0,7.548,0,9s0.348,2.826,0.957,4.042L3.964,10.71L3.964,10.71z"/>
			<path id="Shape_3_" sketch:type="MSShapeGroup" fill="#EA4335" d="M9,3.58c1.321,0,2.508,0.454,3.44,1.346l2.581-2.581
				C13.463,0.892,11.426,0,9,0C5.482,0,2.438,2.017,0.957,4.958L3.964,7.29C4.672,5.163,6.656,3.58,9,3.58L9,3.58z"/>
			<path id="Shape_4_" sketch:type="MSShapeGroup" fill="none" d="M0,0h18v18H0V0z"/>
		</g>
		<g id="handles_square" sketch:type="MSLayerGroup">
		</g>
	</g>
</g>
</svg>
