<?xml version="1.0" encoding="utf-8"?>
<!-- Generator: Adobe Illustrator 15.0.0, SVG Export Plug-In . SVG Version: 6.00 Build 0)  -->
<!DOCTYPE svg PUBLIC "-//W3C//DTD SVG 1.1//EN" "http://www.w3.org/Graphics/SVG/1.1/DTD/svg11.dtd">
<svg version="1.1" id="celebraciones_x5F_02_xA0_Image_1_"
	 xmlns="http://www.w3.org/2000/svg" xmlns:xlink="http://www.w3.org/1999/xlink" x="0px" y="0px" width="1098.2px"
	 height="1098.2px" viewBox="0 0 1098.2 1098.2" style="enable-background:new 0 0 1098.2 1098.2;" xml:space="preserve">
<style type="text/css">
<![CDATA[
	.st0{fill-rule:evenodd;clip-rule:evenodd;fill:#FFFFFF;}
	.st1{fill-rule:evenodd;clip-rule:evenodd;fill:#00989A;}
]]>
</style>
<g>
	<path class="st1" d="M167.5,0c254.4,0,508.8,0,763.2,0c49.4,3.3,84,21.8,111.6,46.8c26.4,24,48,59.8,54.2,103.9
		c3.4,23.9,1.7,51.3,1.7,77.5c0,224,0,447.5,0,672.5c0,13.2,0.4,26.1-0.7,38.6c-4.3,46.4-25.1,82-50.6,107.5
		c-25.4,25.4-61.1,46.6-107.8,50.6c-25.1,2.2-51.9,0.7-78.5,0.7c-211.6,0-421.6,0-632.9,0c-26.2,0-53.4,1.7-77.3-1.7
		c-44.4-6.2-79-27.5-103.7-54.5C21.7,1014.7,3.5,980.4,0,930.7c0-254.4,0-508.8,0-763.2c0.2-0.1,0.3-0.2,0.2-0.5
		C3.4,115.4,24,78.9,51.6,51.4C79.2,23.7,116.1,3.4,167.5,0z M643.9,139.2c-12.5,16.8-38.2,18.2-60.5,24.7
		c-23,6.8-38.7,18.1-38.6,46.6c0,5.1,0.5,9.3,1.4,14.9c12.6-3.4,24.2-10.1,36.7-14.9c12.8-4.9,26.3-8.1,38.2-13.7
		c12.5-5.8,20.4-14.1,24.7-27.1c4.1-12.5,5.4-28.6,4.6-46.8C649.5,128.9,647.1,134.9,643.9,139.2z M576.7,303.1
		c0-6.5,0.4-12.5-0.2-17.5c-1.7-14-13.3-25-31.2-22.8c-9.9,1.2-17.1,6.6-20.9,13.9c-4,7.7-2.9,18.9-2.9,31c0,22.3,0.2,45.9-0.2,67.4
		c-33.7,0.5-68.2-0.7-101,0c-10.2,0.2-19.2,3-26.9,7c-15.1,7.9-25.7,19.4-31.4,36c-5.7,16.6-3.6,40.8-3.6,63.8
		c0,12-0.2,22.7,2.2,31.4c2.3,8.6,6.2,16.2,11.3,22.6c9.6,12.2,23.4,22.2,43,24.5c10.6,1.2,22.2,0.2,33.4,0.2c67.8,0,135,0,202.3,0
		c11.4,0,22.9,0.8,33.4-0.5c19.8-2.4,33.3-12,43-24.5c4.9-6.4,8.8-14,11-22.6c2.3-8.9,2.2-19.5,2.2-31.7c0-22.3,2.3-47.3-3.6-63.8
		c-5.8-16.2-16.8-28.2-31.7-35.8c-7.6-3.9-16.7-6.6-26.9-6.7c-33.1-0.5-68,0.6-101-0.2C576.7,352.4,576.7,326.6,576.7,303.1z
		 M294,629.5c-5.4,10.9-6.5,22.8-6.5,37.7c0,14.9,0,29.9,0,44.4c0,29.7,12.7,47.1,30.5,58.1c9.7,6,20.2,9.3,34.3,9.8
		c13.7,0.5,28.7,0,44.4,0c103.7,0,206.8,0,309.8,0c14.8,0,29.6,0.6,44.2-0.2c26-1.5,44.1-17.1,53.3-35.3c5-10,6.7-22.5,6.7-37.4
		c0-14.8,0-29.7,0-44.4c0-29.8-12.1-47.1-30-58.6c-9.3-6-19.6-9.8-34.3-9.8c-117.6,0-236.4,0-354.2,0c-14.8,0-31.1-0.7-44.6,0.2
		C321.6,595.8,303.4,610.7,294,629.5z M238.1,826.3c-9.4,8.3-16.7,19.9-19.7,33.4c-3.1,14-1.4,35.4-1.4,51.6
		c0,8.6-0.5,18.1,0.2,26.2c0.8,7.9,2.9,14.9,5.8,20.9c8.7,18,22.9,31.1,43.7,35.8c7.3,1.6,15.4,1.4,25.2,1.4
		c158.9,0,318.8,0,477.8,0c17.8,0,35.9,1.2,53-0.2c30-2.5,50.7-23,56.9-49.2c3.3-13.8,1.7-34.8,1.7-51.4c0-8.8,0.4-18.1-0.2-26.2
		c-0.7-8.1-2.8-15-5.5-21.1c-8.2-18.2-23-30.9-43.7-35.8c-7.2-1.7-15.4-1.7-25-1.7c-158.4,0-318.7,0-477.8,0
		c-17.4,0-37-1.1-53.5,0.2C259.9,811.5,247.3,818.2,238.1,826.3z"/>
	<path class="st0" d="M650.4,122.9c0.9,18.2-0.4,34.3-4.6,46.8c-4.3,13-12.2,21.3-24.7,27.1c-11.9,5.6-25.4,8.8-38.2,13.7
		c-12.5,4.8-24.1,11.5-36.7,14.9c-1-5.6-1.4-9.8-1.4-14.9c-0.1-28.4,15.6-39.8,38.6-46.6c22.2-6.5,47.9-7.9,60.5-24.7
		C647.1,134.9,649.5,128.9,650.4,122.9z"/>
	<path class="st0" d="M576.7,374.9c33,0.8,68-0.3,101,0.2c10.1,0.2,19.2,2.8,26.9,6.7c14.9,7.6,25.9,19.6,31.7,35.8
		c5.9,16.5,3.6,41.5,3.6,63.8c0,12.2,0.1,22.8-2.2,31.7c-2.2,8.6-6.1,16.2-11,22.6c-9.6,12.4-23.2,22.1-43,24.5
		c-10.5,1.3-22,0.5-33.4,0.5c-67.3,0-134.5,0-202.3,0c-11.2,0-22.8,1-33.4-0.2c-19.6-2.2-33.3-12.3-43-24.5c-5-6.4-9-14-11.3-22.6
		c-2.4-8.7-2.2-19.4-2.2-31.4c0-23-2.1-47.3,3.6-63.8c5.8-16.6,16.4-28.1,31.4-36c7.7-4,16.7-6.8,26.9-7c32.8-0.7,67.3,0.5,101,0
		c0.4-21.5,0.2-45.1,0.2-67.4c0-12.1-1.1-23.3,2.9-31c3.8-7.3,11-12.7,20.9-13.9c17.9-2.2,29.5,8.8,31.2,22.8
		c0.6,5.1,0.2,11,0.2,17.5C576.7,326.6,576.7,352.4,576.7,374.9z"/>
	<path class="st0" d="M347.5,594c13.5-0.9,29.9-0.2,44.6-0.2c117.8,0,236.6,0,354.2,0c14.7,0,25,3.9,34.3,9.8
		c17.9,11.4,30,28.8,30,58.6c0,14.7,0,29.6,0,44.4c0,14.9-1.7,27.4-6.7,37.4c-9.2,18.2-27.3,33.8-53.3,35.3
		c-14.6,0.8-29.4,0.2-44.2,0.2c-103,0-206.1,0-309.8,0c-15.7,0-30.7,0.5-44.4,0c-14.2-0.5-24.6-3.9-34.3-9.8
		c-17.8-10.9-30.5-28.4-30.5-58.1c0-14.5,0-29.5,0-44.4c0-14.9,1.1-26.8,6.5-37.7C303.4,610.7,321.6,595.8,347.5,594z"/>
	<path class="st0" d="M275.5,810.2c16.5-1.3,36.1-0.2,53.5-0.2c159.1,0,319.4,0,477.8,0c9.5,0,17.8,0,25,1.7
		c20.7,4.9,35.5,17.6,43.7,35.8c2.8,6.2,4.8,13,5.5,21.1c0.7,8,0.2,17.4,0.2,26.2c0,16.5,1.6,37.6-1.7,51.4
		c-6.2,26.2-26.9,46.7-56.9,49.2c-17.2,1.5-35.3,0.2-53,0.2c-159.1,0-318.9,0-477.8,0c-9.8,0-17.9,0.2-25.2-1.4
		c-20.7-4.6-35-17.8-43.7-35.8c-2.9-6-5-12.9-5.8-20.9c-0.8-8-0.2-17.6-0.2-26.2c0-16.2-1.7-37.6,1.4-51.6
		c3-13.5,10.3-25.1,19.7-33.4C247.3,818.2,259.9,811.5,275.5,810.2z M299.3,890.2c-1.2,2.6-2,4.2-2.4,8.4c-1.5,16.5,10,28.1,23.8,29
		c19.7,1.4,35.1-19.1,25.2-38.2c-4.3-8.2-13.4-14.9-26.4-13.4C309.5,877.2,302.1,884.3,299.3,890.2z M420.5,880.6
		c-9.3,6.8-14.1,22.6-7,34.6c4.2,6.9,13.1,13.4,24.7,12.5c12.3-0.9,23.8-10.8,23.8-25.9c0-15.6-12.6-27.6-29.5-25.7
		C427.9,876.5,423.4,878.4,420.5,880.6z M523.2,904.6c0.9,9.7,6.7,16.8,14.2,20.4c17.9,8.8,36.3-4.3,37.7-20.6
		c1.6-18-12.5-30.3-29.3-28.3C532.1,877.6,521.8,889.7,523.2,904.6z M642.7,884.4c-3.2,3.6-6.5,9.4-6.5,17.5
		c0.1,14.9,11.3,24.8,24,25.7c16.5,1.2,28.2-11.4,28.1-26.2c0-5.4-2.9-12.4-5-15.4c-4.4-6-13.2-11.4-24.5-10.1
		C651.5,876.9,646.3,880.4,642.7,884.4z M765.6,877.4c-9,3.7-17.3,13.2-16.1,26.9c0.8,9.6,7.4,17.3,14.2,20.6
		c17.4,8.6,39.7-4,37.7-26.4c-1.2-13.4-13.4-24.4-29.3-22.6C769.4,876.3,767.4,876.7,765.6,877.4z"/>
	<path class="st1" d="M319.4,876c13-1.5,22.1,5.3,26.4,13.4c9.9,19.1-5.5,39.6-25.2,38.2c-13.7-1-25.3-12.5-23.8-29
		c0.4-4.2,1.2-5.8,2.4-8.4C302.1,884.3,309.5,877.2,319.4,876z"/>
	<path class="st1" d="M432.5,876c16.9-1.9,29.5,10,29.5,25.7c0,15.2-11.5,25-23.8,25.9c-11.6,0.9-20.6-5.5-24.7-12.5
		c-7.2-11.9-2.4-27.7,7-34.6C423.4,878.4,427.9,876.5,432.5,876z"/>
	<path class="st1" d="M545.8,876c16.8-1.9,30.8,10.4,29.3,28.3c-1.4,16.4-19.8,29.4-37.7,20.6c-7.4-3.6-13.3-10.7-14.2-20.4
		C521.8,889.7,532.1,877.6,545.8,876z"/>
	<path class="st1" d="M658.8,876c11.3-1.4,20,4.1,24.5,10.1c2.2,2.9,5,9.9,5,15.4c0.1,14.7-11.6,27.3-28.1,26.2
		c-12.7-0.9-23.9-10.8-24-25.7c0-8.2,3.3-14,6.5-17.5C646.3,880.4,651.5,876.9,658.8,876z"/>
	<path class="st1" d="M772.1,876c15.9-1.8,28.1,9.2,29.3,22.6c2,22.4-20.3,35-37.7,26.4c-6.8-3.3-13.3-11.1-14.2-20.6
		c-1.2-13.7,7-23.2,16.1-26.9C767.4,876.7,769.4,876.3,772.1,876z"/>
</g>
</svg>
