<?xml version="1.0" encoding="utf-8"?>
<!-- Generator: Adobe Illustrator 15.0.2, SVG Export Plug-In . SVG Version: 6.00 Build 0)  -->
<!DOCTYPE svg PUBLIC "-//W3C//DTD SVG 1.1//EN" "http://www.w3.org/Graphics/SVG/1.1/DTD/svg11.dtd">
<svg version="1.1" id="businesses_x5F_02_xA0_Image_1_"
	 xmlns="http://www.w3.org/2000/svg" xmlns:xlink="http://www.w3.org/1999/xlink" x="0px" y="0px" width="1098.2px"
	 height="1098.2px" viewBox="0 0 1098.2 1098.2" enable-background="new 0 0 1098.2 1098.2" xml:space="preserve">
<g>
	<path fill-rule="evenodd" clip-rule="evenodd" fill="#87D1D1" d="M167.5,0.2c0-0.1,0-0.2,0-0.2c1.1,0,2.2,0,3.4,0
		C170.2,0.6,168.6,0.1,167.5,0.2z"/>
	<path fill-rule="evenodd" clip-rule="evenodd" fill="#87D1D1" d="M927.4,0c1.1,0,2.2,0,3.4,0c0,0.1,0,0.2,0,0.2
		C929.7,0.1,928,0.6,927.4,0z"/>
	<path fill-rule="evenodd" clip-rule="evenodd" fill="#87D1D1" d="M0,167.5c0.1,0,0.2,0,0.2,0c-0.2,1,0.3,2.7-0.2,3.4
		C0,169.8,0,168.6,0,167.5z"/>
	<path fill-rule="evenodd" clip-rule="evenodd" fill="#87D1D1" d="M1098,167.5c0.6,0.7,0.1,2.5,0.2,3.6
		C1097.7,170.4,1098.2,168.6,1098,167.5z"/>
	<path fill-rule="evenodd" clip-rule="evenodd" fill="#87D1D1" d="M296.4,214.1c166.9-0.4,335.6-0.4,502.6,0
		C631.4,214.1,463.9,214.1,296.4,214.1z"/>
	<path fill-rule="evenodd" clip-rule="evenodd" fill="#87D1D1" d="M828.7,253.9c0.4,226.3,0.4,454.3,0,680.6
		C828.7,707.6,828.7,480.8,828.7,253.9z"/>
	<path fill-rule="evenodd" clip-rule="evenodd" fill="#87D1D1" d="M585.6,701c0.5-0.6,2-0.1,2.9-0.2
		C588,701.4,586.5,700.9,585.6,701z"/>
	<path fill-rule="evenodd" clip-rule="evenodd" fill="#87D1D1" d="M653.8,700.8c0.9,0.2,2.4-0.3,2.9,0.2
		C655.8,700.9,654.2,701.4,653.8,700.8z"/>
	<path fill-rule="evenodd" clip-rule="evenodd" fill="#87D1D1" d="M541.7,744.7c-0.2,0.7,0.3,2.1-0.2,2.4
		C541.6,746.4,541.1,745.1,541.7,744.7z"/>
	<path fill-rule="evenodd" clip-rule="evenodd" fill="#87D1D1" d="M700.6,744.7c0.5,0.3,0.1,1.7,0.2,2.4
		C700.3,746.8,700.7,745.4,700.6,744.7z"/>
	<path fill-rule="evenodd" clip-rule="evenodd" fill="#87D1D1" d="M1098.2,927.1c-0.2,1.1,0.3,2.9-0.2,3.6
		C1098.2,929.6,1097.7,927.8,1098.2,927.1z"/>
	<path fill-rule="evenodd" clip-rule="evenodd" fill="#87D1D1" d="M0,927.4c0.6,0.6,0.1,2.3,0.2,3.4c-0.1,0-0.2,0-0.2,0
		C0,929.6,0,928.5,0,927.4z"/>
	<path fill-rule="evenodd" clip-rule="evenodd" fill="#87D1D1" d="M700.8,929.3c0.5,0.4,0.1,1.8,0.2,2.6
		C700.5,931.5,701,930.1,700.8,929.3z"/>
	<path fill-rule="evenodd" clip-rule="evenodd" fill="#87D1D1" d="M266.4,933.4c0.5,0.3,0.1,1.7,0.2,2.4
		C266.1,935.4,266.6,934.1,266.4,933.4z"/>
	<path fill-rule="evenodd" clip-rule="evenodd" fill="#87D1D1" d="M167.5,1098c1,0.2,2.7-0.3,3.4,0.2
		C169.8,1098.1,168.2,1098.6,167.5,1098z"/>
	<path fill-rule="evenodd" clip-rule="evenodd" fill="#87D1D1" d="M927.4,1098.2c0.6-0.6,2.3-0.1,3.4-0.2
		C930.1,1098.6,928.4,1098.1,927.4,1098.2z"/>
	<path fill-rule="evenodd" clip-rule="evenodd" fill="#87D1D1" d="M54.2,48.7c0.8-1,1.7-1.9,2.6-2.6C56.1,47.1,55.2,47.9,54.2,48.7z
		"/>
	<path fill-rule="evenodd" clip-rule="evenodd" fill="#87D1D1" d="M46.1,56.9c0.9-1.1,1.8-2,2.9-2.9C48.1,55.1,47.1,56,46.1,56.9z"
		/>
	<path fill-rule="evenodd" clip-rule="evenodd" fill="#87D1D1" d="M1041.4,46.1c1,0.8,1.9,1.7,2.6,2.6
		C1043,47.9,1042.1,47.1,1041.4,46.1z"/>
	<path fill-rule="evenodd" clip-rule="evenodd" fill="#87D1D1" d="M1049.3,54c1.1,0.9,2,1.8,2.9,2.9
		C1051.1,56,1050.1,55.1,1049.3,54z"/>
	<path fill-rule="evenodd" clip-rule="evenodd" fill="#87D1D1" d="M1049.5,1044c0.8-1,1.7-1.9,2.6-2.6
		C1051.4,1042.3,1050.5,1043.2,1049.5,1044z"/>
	<path fill-rule="evenodd" clip-rule="evenodd" fill="#87D1D1" d="M1041.4,1052.2c0.8-1,1.7-1.9,2.6-2.6
		C1043.2,1050.5,1042.3,1051.4,1041.4,1052.2z"/>
	<path fill-rule="evenodd" clip-rule="evenodd" fill="#87D1D1" d="M54.2,1049.5c1,0.8,1.9,1.7,2.6,2.6
		C55.9,1051.4,55,1050.5,54.2,1049.5z"/>
	<path fill-rule="evenodd" clip-rule="evenodd" fill="#87D1D1" d="M46.1,1041.4c1,0.8,1.9,1.7,2.6,2.6
		C47.7,1043.2,46.9,1042.3,46.1,1041.4z"/>
	<path fill-rule="evenodd" clip-rule="evenodd" fill="#87D1D1" d="M277.9,223.9c0.9-1.1,1.8-2,2.9-2.9
		C279.9,222.1,279,223.1,277.9,223.9z"/>
	<path fill-rule="evenodd" clip-rule="evenodd" fill="#FFFFFF" d="M700.6,744.7c-3.8-25.4-18.3-40.1-43.9-43.7
		c-0.5-0.6-2-0.1-2.9-0.2c-21.8,0-43.5,0-65.3,0c-0.9,0.2-2.4-0.3-2.9,0.2c-25.6,3.6-40.1,18.3-43.9,43.7c-0.5,0.3-0.1,1.7-0.2,2.4
		c0,56.1,0,112.5,0,169.2c0,12.5-0.3,21.4-4.1,29.8c-3.6,8-8.3,14-14.9,19c-5.7,4.3-14.5,9.4-24.2,9.4c-61.5,0-124.1,0-186,0
		c-5.6,0-11.5,0.6-16.8,0c-8.9-0.9-16.3-7.5-20.4-13.4c-4.8-7-7.5-15-8.4-25.2c-0.2-0.7,0.3-2.1-0.2-2.4c0-224.7,0-450.3,0-676.1
		c0-14.2,4.7-25.3,11.5-33.4c1.1-0.9,2-1.8,2.9-2.9c4.1-3.4,8.5-6.5,15.6-7c167.5,0,335,0,502.6,0c19.4,3.3,27.7,18.9,29.8,39.8
		c0,226.9,0,453.7,0,680.6c-0.7,13-5.1,22.3-11.3,29.8c-1.2,1-2.3,2.1-3.4,3.4c-4.5,4.7-11.6,6.7-20.6,6.7c-17.8,0-36.6,0-54.7,0
		c-9,0-17.2-0.1-21.8-5.3c-1.2-1.4-2.5-2.7-3.8-3.8c-6.8-8.3-11.1-19.1-12-33.4c-0.2-0.8,0.3-2.2-0.2-2.6c0-60.7,0-121.4,0-182.2
		C700.6,746.4,701.1,745.1,700.6,744.7z M334.1,323c-0.4,19.8,0,49.1,0,68.6c0,11.7-1.1,24,0.7,33.4c1.8,9.4,6.5,16.1,13,21.4
		c6.4,5.2,15,7.7,26.6,7.7c11.8,0,21.8,0.8,34.1-0.2c18.9-1.6,32.6-15.6,33.1-35.3c0.7-23.9,0-47.1,0-68.6c0-11.6,0.6-25.7-0.7-33.4
		c-3.3-18.3-17-29.5-39.1-29.5c-10.7,0-23.4-0.7-34.6,0.2C348.1,288.8,334.5,303.5,334.1,323z M487.7,323c-0.4,19.8,0,49.1,0,68.6
		c0,11.7-1.1,24,0.7,33.4c1.8,9.4,6.5,16.1,13,21.4c6.4,5.2,15,7.7,26.6,7.7c11.8,0,21.8,0.8,34.1-0.2c18.9-1.6,32.6-15.6,33.1-35.3
		c0.7-23.9,0-47.1,0-68.6c0-11.6,0.6-25.7-0.7-33.4c-3.3-18.3-17-29.5-39.1-29.5c-10.7,0-23.4-0.7-34.6,0.2
		C501.7,288.8,488.1,303.5,487.7,323z M642.7,323c-0.4,19.8,0,49.1,0,68.6c0,11.7-1.1,24,0.7,33.4c1.8,9.4,6.5,16.1,13,21.4
		c6.4,5.2,15,7.7,26.6,7.7c11.8,0,21.8,0.8,34.1-0.2c18.9-1.6,32.6-15.6,33.1-35.3c0.7-23.9,0-47.1,0-68.6c0-11.6,0.6-25.7-0.7-33.4
		c-3.3-18.3-17-29.5-39.1-29.5c-10.7,0-23.4-0.7-34.6,0.2C656.8,288.8,643.1,303.5,642.7,323z M332.6,517.9c-0.4,19.8,0,49.1,0,68.6
		c0,11.7-1.1,24,0.7,33.4c1.8,9.4,6.5,16.1,13,21.4c6.4,5.2,15,7.7,26.6,7.7c11.9,0,21.8,0.8,34.1-0.2c18.9-1.6,32.6-15.6,33.1-35.3
		c0.7-23.9,0-47.1,0-68.6c0-11.6,0.6-25.7-0.7-33.4c-3.3-18.3-17-29.5-39.1-29.5c-10.7,0-23.4-0.7-34.6,0.2
		C346.7,483.7,333,498.4,332.6,517.9z M488.2,517.9c-0.4,19.8,0,49,0,68.6c0,11.7-1.1,24,0.7,33.4c1.8,9.4,6.5,16.1,13,21.4
		c6.4,5.2,15,7.7,26.6,7.7c11.9,0,21.8,0.8,34.1-0.2c18.9-1.6,32.6-15.6,33.1-35.3c0.7-23.9,0-47.1,0-68.6c0-11.6,0.6-25.7-0.7-33.4
		c-3.3-18.3-17-29.5-39.1-29.5c-10.7,0-23.4-0.7-34.6,0.2C502.2,483.7,488.5,498.4,488.2,517.9z M642.7,517.9
		c-0.4,19.8,0,49.1,0,68.6c0,11.7-1.1,24,0.7,33.4c1.8,9.4,6.5,16.1,13,21.4c6.4,5.2,15,7.7,26.6,7.7c11.9,0,21.8,0.8,34.1-0.2
		c18.9-1.6,32.6-15.6,33.1-35.3c0.7-23.9,0-47.1,0-68.6c0-11.6,0.6-25.7-0.7-33.4c-3.3-18.3-17-29.5-39.1-29.5
		c-10.7,0-23.4-0.7-34.6,0.2C656.8,483.7,643.1,498.4,642.7,517.9z"/>
	<path fill-rule="evenodd" clip-rule="evenodd" fill="#87D1D1" d="M713,965.3c1.4,1.2,2.7,2.5,3.8,3.8
		C715.5,967.9,714.2,966.7,713,965.3z"/>
	<path fill-rule="evenodd" clip-rule="evenodd" fill="#87D1D1" d="M814.1,967.7c1-1.2,2.1-2.3,3.4-3.4
		C816.4,965.5,815.3,966.7,814.1,967.7z"/>
</g>
</svg>
