<?xml version="1.0" encoding="utf-8"?>
<!-- Generator: Adobe Illustrator 15.0.0, SVG Export Plug-In . SVG Version: 6.00 Build 0)  -->
<!DOCTYPE svg PUBLIC "-//W3C//DTD SVG 1.1//EN" "http://www.w3.org/Graphics/SVG/1.1/DTD/svg11.dtd">
<svg version="1.1" id="adultos_x5F_02_xA0_Image_1_"
	 xmlns="http://www.w3.org/2000/svg" xmlns:xlink="http://www.w3.org/1999/xlink" x="0px" y="0px" width="1098.2px"
	 height="1098.2px" viewBox="0 0 1098.2 1098.2" style="enable-background:new 0 0 1098.2 1098.2;" xml:space="preserve">
<style type="text/css">
<![CDATA[
	.st0{fill-rule:evenodd;clip-rule:evenodd;fill:#FFFFFF;}
	.st1{fill-rule:evenodd;clip-rule:evenodd;fill:#00989A;}
]]>
</style>
<g>
	<rect x="403.1" y="83.1" class="st0" width="292" height="920"/>
	<path class="st1" d="M167.5,0c254.4,0,508.8,0,763.2,0c51.7,3.4,88.5,23.9,116.2,51.6c27.7,27.7,48,64.6,51.4,116.2
		c0,254.2,0,508.5,0,762.7c-3.5,51.6-23.7,88.7-51.4,116.4c-27.7,27.7-64.7,47.8-116.2,51.4c-254.4,0-508.8,0-763.2,0
		c-51.4-3.5-88.5-23.7-116.2-51.4C23.7,1019.2,3.5,982.1,0,930.7c0-254.4,0-508.8,0-763.2c0.2-0.1,0.3-0.2,0.2-0.5
		C3.4,115.4,24,78.9,51.6,51.4C79.2,23.7,116.1,3.4,167.5,0z M493.7,98.9c-14.8,7-26.5,16.6-37,27.1c-11,11-18.8,23-25.4,38.4
		c-6.3,14.8-10.6,33.1-10.1,53.5c1,40.3,18.1,67.7,39.1,88.8c21.5,21.5,50.8,35.8,92.2,35.8c19.3,0,37.1-5.3,51.6-12.2
		c14.8-7.1,26.8-16.2,37.2-26.9c21.4-21.8,35.8-50,35.8-92.2c0-19.5-5.5-37.3-12.2-51.6c-13.3-28.2-35.5-50.4-65-62.9
		c-14.6-6.2-34.4-11-54-10.1C525.4,87.6,508.3,92,493.7,98.9z M664.3,495.8c0-26.4-6-46-17-63.4c-10.3-16.1-24.4-29.1-42-38.4
		c-18-9.5-40.7-13.3-68.9-11.8c-23.3,1.2-42.3,9.7-57.4,20.6c-22.3,16.2-38.9,39.1-43.9,71.8c-1.7,11.3-1.2,23.8-1.2,37.4
		c0,128.3,0,258.7,0,385.9c76.8,0,153.6,0,230.4,0C664.3,764.6,664.3,629,664.3,495.8z M506.9,916.8c0,16.8,0,35.5,0,52.8
		c0,5.8-1,12.7,0.5,17.3c3.2,10.2,19.7,11.9,24.2,1c1.8-4.3,1-11,1-17c0-18.8,0-36.7,0-54.7c-8.5,0-17,0-25.4,0
		C506.8,916.1,506.9,916.5,506.9,916.8z M565.7,916.8c0,17.9,0,35.8,0,54c0,6-0.9,12.7,1,17c1.4,3.3,4.9,6.3,7.7,7.2
		c7.5,2.5,14.7-2.5,16.6-8.2c1.4-4.5,0.5-11.5,0.5-17.3c0-17.5,0-37.3,0-53.5c-8.5,0-17,0-25.4,0
		C565.6,916.1,565.7,916.5,565.7,916.8z"/>
	<path class="st0" d="M545.8,86.6c19.6-0.9,39.4,3.9,54,10.1c29.5,12.5,51.8,34.6,65,62.9c6.7,14.3,12.2,32.1,12.2,51.6
		c0,42.1-14.4,70.3-35.8,92.2c-10.4,10.6-22.4,19.8-37.2,26.9c-14.5,6.9-32.3,12.2-51.6,12.2c-41.3,0-70.7-14.3-92.2-35.8
		c-21.1-21.1-38.2-48.5-39.1-88.8c-0.5-20.4,3.7-38.7,10.1-53.5c6.6-15.4,14.4-27.4,25.4-38.4c10.5-10.5,22.2-20.1,37-27.1
		C508.3,92,525.4,87.6,545.8,86.6z"/>
	<path class="st0" d="M664.3,898.1c-76.8,0-153.6,0-230.4,0c0-127.2,0-257.6,0-385.9c0-13.7-0.5-26.1,1.2-37.4
		c5-32.6,21.6-55.6,43.9-71.8c15-10.9,34.1-19.4,57.4-20.6c28.1-1.5,50.9,2.3,68.9,11.8c17.6,9.2,31.7,22.3,42,38.4
		c11,17.3,17,36.9,17,63.4C664.3,629,664.3,764.6,664.3,898.1z M539.3,509c-4.5,8.4,2.3,16.7,10.1,16.6c7.2-0.1,13.6-8.2,9.8-16.1
		c-1.7-3.5-6.1-6.5-11-6C543.3,504,540.3,507.1,539.3,509z M538.1,601.4c-1.6,13.8,16.8,16.8,21.4,6c2.8-6.7-1.7-12.9-5.5-14.6
		c-1.5-0.7-4.3-1-6.5-0.7C542.2,592.8,538.7,596.5,538.1,601.4z M539,686.4c-1.5,3.1-0.9,7.4-0.7,8.2c3.2,12.4,24.1,9.2,21.8-5.3
		c-0.9-5.7-6.5-9.8-13.2-8.6C542,681.5,539.7,685.1,539,686.4z M539.3,774.5c-4.5,8.4,2.3,16.7,10.1,16.6c7.2-0.1,13.6-8.2,9.8-16.1
		c-1.7-3.5-6.1-6.5-11-6C543.3,769.4,540.3,772.5,539.3,774.5z"/>
	<path class="st1" d="M548.2,503.5c5-0.5,9.4,2.5,11,6c3.8,7.9-2.6,16-9.8,16.1c-7.7,0.1-14.6-8.2-10.1-16.6
		C540.3,507.1,543.3,504,548.2,503.5z"/>
	<path class="st1" d="M547.4,592.1c2.2-0.3,5,0,6.5,0.7c3.8,1.8,8.3,8,5.5,14.6c-4.6,10.8-23,7.8-21.4-6
		C538.7,596.5,542.2,592.8,547.4,592.1z"/>
	<path class="st1" d="M547,680.6c6.7-1.2,12.3,2.9,13.2,8.6c2.3,14.5-18.6,17.7-21.8,5.3c-0.2-0.7-0.8-5.1,0.7-8.2
		C539.7,685.1,542,681.5,547,680.6z"/>
	<path class="st1" d="M548.2,769c5-0.5,9.4,2.5,11,6c3.8,7.9-2.6,16-9.8,16.1c-7.7,0.1-14.6-8.2-10.1-16.6
		C540.3,772.5,543.3,769.4,548.2,769z"/>
	<path class="st0" d="M507.1,916.1c8.5,0,17,0,25.4,0c0,18,0,35.9,0,54.7c0,6.1,0.8,12.7-1,17c-4.5,11-21,9.2-24.2-1
		c-1.4-4.5-0.5-11.5-0.5-17.3c0-17.3,0-36,0-52.8C506.9,916.5,506.8,916.1,507.1,916.1z"/>
	<path class="st0" d="M565.9,916.1c8.5,0,17,0,25.4,0c0,16.2,0,36,0,53.5c0,5.8,0.9,12.8-0.5,17.3c-1.8,5.7-9,10.6-16.6,8.2
		c-2.8-0.9-6.3-3.9-7.7-7.2c-1.8-4.3-1-11-1-17c0-18.2,0-36.1,0-54C565.7,916.5,565.6,916.1,565.9,916.1z"/>
</g>
</svg>
