<?xml version="1.0" encoding="utf-8"?>
<!-- Generator: Adobe Illustrator 15.0.2, SVG Export Plug-In . SVG Version: 6.00 Build 0)  -->
<!DOCTYPE svg PUBLIC "-//W3C//DTD SVG 1.1//EN" "http://www.w3.org/Graphics/SVG/1.1/DTD/svg11.dtd">
<svg version="1.1" id="adultos_x5F_02_xA0_Image_1_"
	 xmlns="http://www.w3.org/2000/svg" xmlns:xlink="http://www.w3.org/1999/xlink" x="0px" y="0px" width="1098.2px"
	 height="1098.2px" viewBox="0 0 1098.2 1098.2" enable-background="new 0 0 1098.2 1098.2" xml:space="preserve">
<g>
	<path fill-rule="evenodd" clip-rule="evenodd" fill="#FFFFFF" d="M542.8,89.6c19.6-0.9,39.4,3.9,54,10.1
		c29.5,12.5,51.8,34.6,65,62.9c6.7,14.3,12.2,32.1,12.2,51.6c0,42.1-14.4,70.3-35.8,92.2c-10.4,10.6-22.4,19.8-37.2,26.9
		c-14.5,6.9-32.3,12.2-51.6,12.2c-41.3,0-70.7-14.3-92.2-35.8c-21.1-21.1-38.2-48.5-39.1-88.8c-0.5-20.4,3.7-38.7,10.1-53.5
		c6.6-15.4,14.4-27.4,25.4-38.4c10.5-10.5,22.2-20.1,37-27.1C505.3,94.9,522.4,90.5,542.8,89.6z"/>
	<path fill-rule="evenodd" clip-rule="evenodd" fill="#FFFFFF" d="M661.3,901c-76.8,0-153.6,0-230.4,0c0-127.2,0-257.6,0-385.9
		c0-13.7-0.5-26.1,1.2-37.4c5-32.6,21.6-55.6,43.9-71.8c15-10.9,34.1-19.4,57.4-20.6c28.1-1.5,50.9,2.3,68.9,11.8
		c17.6,9.2,31.7,22.3,42,38.4c11,17.3,17,36.9,17,63.4C661.3,631.9,661.3,767.5,661.3,901z M536.3,512c-4.5,8.4,2.3,16.7,10.1,16.6
		c7.2-0.1,13.6-8.2,9.8-16.1c-1.7-3.5-6.1-6.5-11-6C540.4,506.9,537.3,510,536.3,512z M535.1,604.4c-1.6,13.8,16.8,16.8,21.4,6
		c2.8-6.7-1.7-12.9-5.5-14.6c-1.5-0.7-4.3-1-6.5-0.7C539.2,595.8,535.7,599.5,535.1,604.4z M536,689.3c-1.5,3.1-0.9,7.4-0.7,8.2
		c3.2,12.4,24.1,9.2,21.8-5.3c-0.9-5.7-6.5-9.8-13.2-8.6C539,684.4,536.7,688,536,689.3z M536.3,777.4c-4.5,8.4,2.3,16.7,10.1,16.6
		c7.2-0.1,13.6-8.2,9.8-16.1c-1.7-3.5-6.1-6.5-11-6C540.4,772.3,537.3,775.4,536.3,777.4z"/>
	<path fill-rule="evenodd" clip-rule="evenodd" fill="#FFFFFF" d="M504.1,919c8.5,0,17,0,25.4,0c0,18,0,35.9,0,54.7
		c0,6.1,0.8,12.7-1,17c-4.5,11-21,9.2-24.2-1c-1.4-4.5-0.5-11.5-0.5-17.3c0-17.3,0-36,0-52.8C503.9,919.4,503.9,919,504.1,919z"/>
	<path fill-rule="evenodd" clip-rule="evenodd" fill="#FFFFFF" d="M562.9,919c8.5,0,17,0,25.4,0c0,16.2,0,36,0,53.5
		c0,5.8,0.9,12.8-0.5,17.3c-1.8,5.7-9,10.6-16.6,8.2c-2.8-0.9-6.3-3.9-7.7-7.2c-1.8-4.3-1-11-1-17c0-18.2,0-36.1,0-54
		C562.7,919.4,562.7,919,562.9,919z"/>
</g>
</svg>
