<?xml version="1.0" encoding="utf-8"?>
<!-- Generator: Adobe Illustrator 15.0.0, SVG Export Plug-In . SVG Version: 6.00 Build 0)  -->
<!DOCTYPE svg PUBLIC "-//W3C//DTD SVG 1.1//EN" "http://www.w3.org/Graphics/SVG/1.1/DTD/svg11.dtd">
<svg version="1.1" id="coche_x5F_03_xA0_Image_1_" xmlns="http://www.w3.org/2000/svg" xmlns:xlink="http://www.w3.org/1999/xlink"
	 x="0px" y="0px" width="1098.4px" height="1098.4px" viewBox="0 0 1098.4 1098.4"
	 style="enable-background:new 0 0 1098.4 1098.4;" xml:space="preserve">
<style type="text/css">
<![CDATA[
	.st0{fill-rule:evenodd;clip-rule:evenodd;fill:#FFFFFF;}
	.st1{fill-rule:evenodd;clip-rule:evenodd;fill:#00989A;}
]]>
</style>
<g>
	<rect x="47.2" y="415.2" class="st0" width="1004" height="592"/>
	<path class="st1" d="M165.8,0c255.5,0,511,0,766.6,0c25.3,2.2,47.5,8.1,66.5,17.5c37.5,18.6,65.7,46.1,83.3,84.7
		c8.8,19.3,14.9,41.4,16.3,67.7c0,252.8,0,505.7,0,758.4c-3,52.8-23.5,90.5-51.6,118.6c-28.1,28.1-65.7,48.6-118.6,51.6
		c-252.8,0-505.7,0-758.4,0c-52.1-3-89.5-23-117.4-50.6C24.7,1020.2,3.9,983.6,0,932.4c0-255.5,0-511,0-766.6c0.8-2.3,0.6-6.4,1-9.6
		c5.7-45.6,25.3-79.8,50.4-104.9C79.1,23.6,116.1,4.2,165.8,0z M740.4,498c-21.4-20.7-46.8-37.6-77-50.4
		c-28.6-12.1-66.4-22.1-108-20.2c-10.2,0.5-19.6,0.9-28.8,2.2c-27.3,3.7-50.7,11.3-72.2,21.1c-28.3,12.9-53.1,30.4-73.4,50.9
		c-41.3,41.6-72,95-77,170.6c-23.7,0-46.7,0-70.6,0c-23.2,0-48.7-2.3-66.2,4.3c-16.5,6.3-29.6,18.9-36.5,34.1
		c-3.7,8.3-5.9,17.6-6.2,29c-1,34.3,0,71.5,0,105.8c0,12.3,0,23.4,2.6,32.6c2.5,8.8,6.8,16.7,12,23.3c10.7,13.4,24.7,22.1,45.8,24.7
		c11.1,1.4,23,0.5,34.8,0.5c11.5,0,23.2,0,35.5,0c-1.3-19,1.1-35.3,6.5-49c5.3-13.3,12.6-25,21.6-34.3c8.8-9.1,19.3-17.8,32.2-23.8
		c12.8-5.9,28.6-10.4,46.1-10.1c17.3,0.3,32.8,4.2,45.4,10.6c12.5,6.3,23.5,14.5,31.9,24c17.4,19.7,30.7,46.4,27.1,82.6
		c55.4,0,110.9,0,166.3,0c-3.4-37.3,10.1-63.3,27.6-82.8c16.6-18.5,43.3-34.5,77.8-34.3c26.4,0.1,47.4,9.3,62.9,20.9
		c26.2,19.6,45.6,50.4,42.5,96.2c28.6,2.2,48.8-5.5,62.2-19c13.3-13.4,22.7-32.1,20.2-61c13.4-0.3,26,1.4,34.8-3.4
		c7.9-4.3,14.4-12.8,14.2-24c-0.2-11.2-6.4-19.1-14.4-23.3c-8.6-4.5-21.5-2.2-34.6-3.1c0-19.6,0-38.3,0-56.2
		c0-17-7.2-30.9-15.4-40.8c-8.6-10.4-20.1-17.9-34.6-21.6c-14.8-3.8-34.9-1.4-54-2.4C815.5,593.5,784.1,540.3,740.4,498z
		 M340.3,837.8c-16.5,4-29.1,12.4-38.6,22.6c-12,12.8-23.9,32.9-22.3,59c1.4,23.2,10.8,40.3,23.5,52.8c13.3,13.1,30.1,22.1,53,23.5
		c2.8,0.2,5.8,0.2,8.4,0c21.9-1.4,39-10,52.1-22.6c12.4-11.9,22.6-28.9,24.2-51.1c0.3-4.3,0.4-8.7,0-13.4
		c-1.9-22.4-12.7-39.9-25.7-51.8c-12.7-11.7-32.3-22.5-56.4-21.4C351.9,835.8,345.8,836.5,340.3,837.8z M704.4,842.2
		c-17.7,8-30.6,19.9-39.1,36.2c-4.2,8-7.8,18.3-8.6,29c-2.2,27.5,7.7,47.2,20.4,61.7c12.9,14.7,31.2,25.3,56.2,26.6
		c26.5,1.4,46.6-10.1,59.8-22.6c13.6-12.9,24.7-31.4,24.7-57.6c0-24.5-11-45-23.8-57.1c-13-12.4-33.1-24.1-58.3-23
		C724,836,712.2,838.6,704.4,842.2z"/>
	<path class="st0" d="M821.3,672c19.1,1,39.2-1.4,54,2.4c14.4,3.7,26,11.2,34.6,21.6c8.2,9.9,15.4,23.8,15.4,40.8
		c0,17.8,0,36.6,0,56.2c13,0.9,26-1.4,34.6,3.1c8,4.2,14.2,12,14.4,23.3c0.2,11.2-6.2,19.7-14.2,24c-8.8,4.8-21.4,3.1-34.8,3.4
		c2.5,28.8-6.9,47.6-20.2,61c-13.3,13.4-33.5,21.2-62.2,19c3.1-45.9-16.3-76.7-42.5-96.2c-15.5-11.6-36.4-20.7-62.9-20.9
		c-34.5-0.2-61.1,15.8-77.8,34.3c-17.5,19.5-31,45.5-27.6,82.8c-55.4,0-110.9,0-166.3,0c3.6-36.1-9.7-62.9-27.1-82.6
		c-8.5-9.5-19.4-17.7-31.9-24c-12.5-6.3-28.1-10.2-45.4-10.6c-17.4-0.3-33.3,4.2-46.1,10.1c-12.9,6-23.3,14.6-32.2,23.8
		c-9,9.3-16.3,21-21.6,34.3c-5.4,13.6-7.8,30-6.5,49c-12.3,0-24,0-35.5,0c-11.8,0-23.7,0.9-34.8-0.5c-21.2-2.7-35.2-11.3-45.8-24.7
		c-5.2-6.5-9.5-14.5-12-23.3c-2.6-9.3-2.6-20.3-2.6-32.6c0-34.3-1-71.5,0-105.8c0.3-11.4,2.5-20.8,6.2-29
		c6.9-15.2,20-27.8,36.5-34.1c17.5-6.7,43-4.3,66.2-4.3c23.9,0,46.8,0,70.6,0c5-75.6,35.7-129.1,77-170.6
		c20.3-20.5,45.1-38,73.4-50.9c21.6-9.8,44.9-17.4,72.2-21.1c9.2-1.2,18.6-1.7,28.8-2.2c41.6-1.9,79.4,8.1,108,20.2
		c30.3,12.8,55.7,29.7,77,50.4C784.1,540.3,815.5,593.5,821.3,672z"/>
	<path class="st0" d="M358.6,835.4c24.1-1.2,43.7,9.6,56.4,21.4c12.9,12,23.8,29.4,25.7,51.8c0.4,4.7,0.3,9.1,0,13.4
		c-1.7,22.2-11.9,39.2-24.2,51.1c-13.1,12.6-30.2,21.2-52.1,22.6c-2.6,0.2-5.6,0.2-8.4,0c-22.9-1.4-39.7-10.4-53-23.5
		c-12.7-12.5-22.1-29.6-23.5-52.8c-1.6-26.1,10.3-46.2,22.3-59c9.6-10.2,22.1-18.6,38.6-22.6C345.8,836.5,351.9,835.8,358.6,835.4z"
		/>
	<path class="st0" d="M735.6,835.4c25.3-1.1,45.3,10.6,58.3,23c12.7,12.1,23.8,32.6,23.8,57.1c0,26.2-11.1,44.7-24.7,57.6
		c-13.2,12.5-33.3,24-59.8,22.6c-25-1.3-43.3-11.9-56.2-26.6c-12.7-14.5-22.6-34.2-20.4-61.7c0.9-10.8,4.5-21,8.6-29
		c8.5-16.4,21.4-28.2,39.1-36.2C712.2,838.6,724,836,735.6,835.4z"/>
</g>
</svg>
