<!DOCTYPE svg PUBLIC "-//W3C//DTD SVG 1.1//EN" "http://www.w3.org/Graphics/SVG/1.1/DTD/svg11.dtd" [
	<!ENTITY ns_extend "http://ns.adobe.com/Extensibility/1.0/">
	<!ENTITY ns_ai "http://ns.adobe.com/AdobeIllustrator/10.0/">
	<!ENTITY ns_graphs "http://ns.adobe.com/Graphs/1.0/">
	<!ENTITY ns_vars "http://ns.adobe.com/Variables/1.0/">
	<!ENTITY ns_imrep "http://ns.adobe.com/ImageReplacement/1.0/">
	<!ENTITY ns_sfw "http://ns.adobe.com/SaveForWeb/1.0/">
	<!ENTITY ns_custom "http://ns.adobe.com/GenericCustomNamespace/1.0/">
	<!ENTITY ns_adobe_xpath "http://ns.adobe.com/XPath/1.0/">
]><svg id="Layer_1" xmlns="http://www.w3.org/2000/svg" viewBox="0 0 23.6 15"><style>.st2{fill-rule:evenodd;clip-rule:evenodd;fill:#fff}</style><switch><g><path class="st2" d="M14 6H7.7c-.1 0-.2.1-.2.1V9h4c0 .2-.1.3-.1.5-.6 1.8-2.5 2.7-4.5 2.4-2.5-.4-4.1-2.7-3.6-5.2 0-.4.2-.7.3-1 .8-1.8 2.9-2.9 4.9-2.5.7.2 1.4.5 1.9 1L12.6 2l-.2-.2C10.6.3 8.6-.2 6.3.1 3 .6.6 3.2.1 6.2c-.2 1.3-.1 2.6.4 4C1.8 13.4 5 15.3 8.4 15c1.7-.2 3.2-.8 4.3-2 1.7-1.8 2.2-4.1 1.9-6.5 0-.5-.2-.5-.6-.5zm7.5.2H21v-.1-.3-1.9c0-.1-.1-.3-.2-.3h-1.7v2.6h-2.6v.5c0 .5 0 .9.1 1.4H19.2v2.6h1.9V8.1h2.6V6.6v-.5c-.8.1-1.5.1-2.2.1z"/></g></switch></svg>