<!DOCTYPE svg PUBLIC "-//W3C//DTD SVG 1.1//EN" "http://www.w3.org/Graphics/SVG/1.1/DTD/svg11.dtd" [
	<!ENTITY ns_extend "http://ns.adobe.com/Extensibility/1.0/">
	<!ENTITY ns_ai "http://ns.adobe.com/AdobeIllustrator/10.0/">
	<!ENTITY ns_graphs "http://ns.adobe.com/Graphs/1.0/">
	<!ENTITY ns_vars "http://ns.adobe.com/Variables/1.0/">
	<!ENTITY ns_imrep "http://ns.adobe.com/ImageReplacement/1.0/">
	<!ENTITY ns_sfw "http://ns.adobe.com/SaveForWeb/1.0/">
	<!ENTITY ns_custom "http://ns.adobe.com/GenericCustomNamespace/1.0/">
	<!ENTITY ns_adobe_xpath "http://ns.adobe.com/XPath/1.0/">
]><svg id="Layer_1" xmlns="http://www.w3.org/2000/svg" viewBox="0 0 12 15"><style>.st2{fill-rule:evenodd;clip-rule:evenodd;fill:#fff}</style><switch><g><path class="st2" d="M6.4 0C2.1 0 0 2.9 0 5.4c0 .5 0 .9.2 1.3.3.9.8 1.7 1.7 2 .2.1.4 0 .4-.2s.1-.5.2-.7c.1-.2 0-.3-.1-.5-.3-.3-.5-.6-.6-.9 0-.2-.1-.5-.1-.8 0-2.2 1.7-4.1 4.4-4.1 2.4 0 3.7 1.4 3.7 3.3 0 .6-.1 1.1-.2 1.6-.4 1.7-1.4 3-2.7 3-.9 0-1.6-.7-1.4-1.7.1-.5.3-1.1.5-1.6s.4-1.1.4-1.5c0-.7-.4-1.3-1.2-1.3-1 0-1.7 1-1.7 2.2 0 .2 0 .5.1.6.1.5.2.7.2.7s-1 4-1.1 4.7c-.3 1.4 0 3.1 0 3.3 0 .1.1.1.2 0s1.2-1.5 1.6-2.8c0-.3.5-2.2.5-2.2.3.6 1.2 1.1 2.2 1.1 2.3 0 4-1.7 4.6-4.1.1-.6.2-1.2.2-1.9C12 2.4 9.8 0 6.4 0z"/></g></switch></svg>