<svg xmlns="http://www.w3.org/2000/svg" version="1.2" width="350" height="134.45302" overflow="inherit"><path d="M14.040787 0C6.2913328 0 0 6.3015295 0 14.050984v76.719592c0 7.749454 6.3015295 14.050984 14.040787 14.050984H145.14931c1.90677 2.32483 20.03641 24.48215 20.03641 24.48215 2.68172 3.27313 6.64822 5.14931 10.86963 5.14931h131.71013c7.74945 0 14.05098-6.31173 14.05098-14.05098v-15.58048h14.13256c7.74945 0 14.05098-6.30153 14.05098-14.050984V14.050984C350 6.3015295 343.69847 0 335.94902 0H14.040787M7.015295 90.770576V14.050984c0-3.874728 3.150765-7.0254924 7.025492-7.0254924H335.94902c3.87472 0 7.02549 3.1507644 7.02549 7.0254924v76.719592c0 3.874727-3.15077 7.025491-7.02549 7.025491h-17.6504c-1.93737 0-3.50765 1.570284-3.50765 3.517843v19.08813c0 3.87472-3.15077 7.02549-7.02549 7.02549H176.05535c-2.1107 0-4.08885-.93809-5.43481-2.56956l-21.08667-25.766928c-.67298-.815732-1.66206-1.294975-2.72251-1.294975H14.040787c-3.864531 0-7.025492-3.150764-7.025492-7.025491z" fill="#007a7c" stroke-width="1.019665"/><path fill="#007a7c" d="M42.12236125 82.0626393h-19.6183546V20.26074365h8.2592865v54.3073579h11.3590681v7.49453775"/><path d="M56.407866 82.062637c-6.658412 0-9.992717-3.507648-9.992717-10.502549V30.844866c0-7.056082 3.303715-10.594319 9.900947-10.594319h7.9126c6.597233 0 9.900947 3.538237 9.900947 10.594319v40.715222c0 7.005098-3.324108 10.502549-9.98252 10.502549h-7.739257m1.97815-7.494538h4.211216c2.182083 0 3.273125-1.203204 3.273125-3.61981V31.364895c0-2.40641-1.233795-3.619811-3.701384-3.619811h-3.86453c-2.406409 0-3.609614 1.213401-3.609614 3.619811v39.583394c-.0102 2.416606 1.223598 3.61981 3.691187 3.61981zM106.14712 67.593591v3.9563c0 7.005098-3.30371 10.502549-9.900944 10.502549h-5.332848c-6.597232 0-9.900946-3.507647-9.900946-10.502549V30.763292c0-6.994901 3.303714-10.502549 9.900946-10.502549h5.332848c6.597234 0 9.900944 3.507648 9.900944 10.502549v6.974509h-8.26948v-6.36271c0-2.406409-1.233794-3.61981-3.701384-3.61981h-1.631464c-2.182083 0-3.273124 1.213401-3.273124 3.61981v39.573198c0 2.416606 1.091041 3.61981 3.273124 3.61981h2.06992c2.182083 0 3.262928-1.203204 3.262928-3.61981v-3.354698h8.26948M122.15586 82.062637c-6.65841 0-9.98252-3.507648-9.98252-10.502549V30.844866c0-7.056082 3.29352-10.594319 9.90095-10.594319h7.9126c6.59723 0 9.90095 3.538237 9.90095 10.594319v40.715222c0 7.005098-3.33431 10.502549-9.99272 10.502549h-7.73926m1.97815-7.494538h4.22142c2.18208 0 3.27312-1.203204 3.27312-3.61981V31.364895c0-2.40641-1.23379-3.619811-3.70138-3.619811h-3.87473c-2.40641 0-3.61981 1.213401-3.61981 3.619811v39.583394c0 2.416606 1.24399 3.61981 3.70138 3.61981z" fill="#007a7c" stroke-width="1.019665"/><path fill="#007a7c" d="M164.3292115 50.1267315V20.26074365h8.2592865V82.0626393h-8.2592865V69.7450861l-8.8710855-28.13255735V82.0626393h-8.2592865V20.26074365h8.2592865l8.8710855 29.86598785"/><path d="M189.88201 82.062637c-6.65841 0-9.97232-3.507648-9.97232-10.502549V30.844866c0-7.056082 3.28332-10.594319 9.89075-10.594319h7.92279c6.59724 0 9.90095 3.538237 9.90095 10.594319v40.715222c0 7.005098-3.32411 10.502549-9.98252 10.502549h-7.75965m1.97815-7.494538h4.21122c2.18208 0 3.27312-1.203204 3.27312-3.61981V31.364895c0-2.40641-1.23379-3.619811-3.70138-3.619811h-3.86453c-2.40641 0-3.60962 1.213401-3.60962 3.619811v39.583394c0 2.416606 1.2236 3.61981 3.69119 3.61981z" fill="#007a7c" stroke-width="1.019665"/><path fill="#007a7c" d="M231.7086747 56.58121095l7.65768415-36.3204673h9.12600175V82.0626393h-8.26948315l.86671525-40.45011055-6.1995632 29.25418885h-6.37290625l-6.18936655-29.25418885.86671525 40.45011055h-8.26948315V20.26074365h9.1158051l7.6678808 36.3204673"/><path fill="#007a7c" stroke-width="1.019665" d="M256.23163 20.260742h8.2694826v61.801895H256.23163zM296.93664 67.593591v3.9563c0 7.005098-3.30372 10.502549-9.90095 10.502549h-5.33285c-6.59723 0-9.90095-3.507647-9.90095-10.502549V30.763292c0-6.994901 3.30372-10.502549 9.90095-10.502549h5.33285c6.59723 0 9.90095 3.507648 9.90095 10.502549v6.974509h-8.25929v-6.36271c0-2.406409-1.2338-3.61981-3.71158-3.61981h-1.63147c-2.18208 0-3.27312 1.213401-3.27312 3.61981v39.573198c0 2.416606 1.09104 3.61981 3.27312 3.61981h2.05973c2.17188 0 3.27312-1.203204 3.27312-3.61981v-3.354698h8.26949M319.23671 36.871086v-5.424618c0-2.467589-1.2134-3.701384-3.61981-3.701384h-1.29498c-2.35542 0-3.52804 1.233795-3.52804 3.701384v10.247633c0 1.142025.22433 1.927167.68318 2.324836.45885.407866 1.2032.917699 2.23306 1.549891l7.83103 4.221413c1.71304.978878 2.93664 1.73343 3.6606 2.284049.71376.540423 1.27458 1.203205 1.67225 1.97815.40786.774946.6118 2.25346.6118 4.435543v13.163875c0 6.943918-3.32411 10.410779-9.98252 10.410779h-5.07793c-6.59724 0-9.90095-3.782957-9.90095-11.369264v-3.099782h8.25929v3.354698c0 2.416606 1.23379 3.61981 3.70138 3.61981h1.46832c2.18208 0 3.27312-1.203204 3.27312-3.61981V60.455936c0-1.152221-.23452-1.91697-.70357-2.314639-.44865-.407866-1.2032-.917699-2.23306-1.549891l-7.83103-4.394756c-1.72323-.907502-2.97742-1.692644-3.74217-2.314639-.77495-.632193-1.33576-1.447925-1.68245-2.457393-.34668-.999272-.50983-2.304443-.50983-3.915513V30.865259c0-7.056082 3.30371-10.594319 9.90095-10.594319h5.1697c6.59723 0 9.90094 3.538237 9.90094 10.594319v6.02622h-8.25928"/><g fill="#007a7c"><path d="M188.13838925 116.506923v2.2840496c0 2.82447205-1.3255645 4.23160975-3.98689015 4.23160975h-2.15149315c-2.66132565 0-3.98689015-1.4071377-3.98689015-4.23160975v-16.4369998c0-2.82447205 1.3255645-4.23160975 3.98689015-4.23160975h2.15149315c2.66132565 0 3.98689015 1.4071377 3.98689015 4.23160975v3.49745095h-3.3241079v-3.49745095c0-.96868175-.49963585-1.45812095-1.4887109-1.45812095h-.66278225c-.8769119 0-1.31536785.4894392-1.31536785 1.45812095v16.4369998c0 .96868175.43845595 1.45812095 1.31536785 1.45812095h.8361253c.8769119 0 1.31536785-.4894392 1.31536785-1.45812095v-2.2840496zM194.76621175 123.02258235c-2.68171895 0-4.0174801-1.4071377-4.0174801-4.23160975v-16.3962132c0-2.84486535 1.3255645-4.2621997 3.98689015-4.2621997h2.84486535c2.66132565 0 3.98689015 1.41733435 3.98689015 4.2621997v16.3962132c0 2.82447205-1.33576115 4.23160975-4.0174801 4.23160975zm2.31463955-2.7734888c.76474875 0 1.1420248-.4282593 1.1420248-1.2847779v-16.7836859c0-.8565186-.43845595-1.2847779-1.31536785-1.2847779h-1.56008745c-.8565186 0-1.2847779.4282593-1.2847779 1.2847779v16.7836859c0 .8565186.43845595 1.2847779 1.31536785 1.2847779zM208.69483565 123.02258235c-2.68171895 0-4.0174801-1.4071377-4.0174801-4.23160975v-16.3962132c0-2.84486535 1.3255645-4.2621997 3.98689015-4.2621997h2.84486535c2.66132565 0 3.98689015 1.41733435 3.98689015 4.2621997v16.3962132c0 2.82447205-1.33576115 4.23160975-4.0174801 4.23160975zm2.3248362-2.7734888c.76474875 0 1.1420248-.4282593 1.1420248-1.2847779v-16.7836859c0-.8565186-.43845595-1.2847779-1.31536785-1.2847779h-1.56008745c-.8565186 0-1.2847779.4282593-1.2847779 1.2847779v16.7836859c0 .8565186.43845595 1.2847779 1.31536785 1.2847779zM221.940284 123.02258235h-3.3241079v-24.9002193h6.27093975c2.68171895 0 4.0174801 1.41733435 4.0174801 4.2621997v5.6897307c0 1.7334305-.54042245 3.0793883-1.631464 4.0378734-1.0808449.9584851-2.68171895 1.43772765-4.78222885 1.43772765h-.5506191zm0-12.23598h.5506191c1.0400583 0 1.8150037-.19373635 2.3248362-.5914057.5098325-.3874727.76474875-1.02986165.76474875-1.90677355v-6.27093975c.05098325-.74435545-.3466861-1.11143485-1.1828114-1.11143485H221.940284zM231.5047417 123.02258235v-24.9002193h7.35178465v2.7734888h-4.0174801v8.49380945h4.0174801v2.7734888h-4.0174801v8.0757468h4.0174801v2.7734888h-7.35178465zM248.9817998 123.02258235l-2.1820831-10.0538969h-2.00874005v10.0538969h-3.3241079v-24.9002193h6.51565935c2.53896585 0 3.8135471 1.41733435 3.8135471 4.2621997v6.1383833c0 2.17188645-.66278225 3.5484342-1.9781501 4.12964325l2.3248362 10.36999305zm-4.19082315-12.89876225h2.1820831c.98907505 0 1.4887109-.60160235 1.4887109-1.80480705v-5.37363455c0-1.2032047-.49963585-1.80480705-1.4887109-1.80480705h-2.1820831zM257.8936719 123.02258235h-3.3241079V102.3947594c0-2.84486535 1.3255645-4.2621997 3.98689015-4.2621997h2.49817925c2.66132565 0 3.98689015 1.41733435 3.98689015 4.2621997v20.62782295h-3.3241079v-9.1158051h-3.8135471v9.1158051zm3.8135471-12.1340135v-8.28987645c0-.96868175-.4894392-1.45812095-1.45812095-1.45812095h-.8973052c-.96868175 0-1.45812095.4894392-1.45812095 1.45812095v8.28987645zM273.28041675 100.89585185v22.11653385h-3.3241079v-22.11653385h-3.19155145v-2.7734888h9.7072108v2.7734888zM278.37874175 123.02258235v-24.9002193h3.3241079v24.89002265h-3.3241079zM295.61108025 98.12236305l-4.0174801 24.89002265h-3.9563002l-4.02767675-24.89002265h3.29351795l2.70211225 18.99635895 2.70211225-18.99635895zM297.1711677 123.02258235v-24.9002193h7.35178465v2.7734888h-4.0174801v8.49380945h4.0174801v2.7734888h-4.0174801v8.0757468h4.0174801v2.7734888h-7.35178465z"/></g></svg>