<!DOCTYPE svg PUBLIC "-//W3C//DTD SVG 1.1//EN" "http://www.w3.org/Graphics/SVG/1.1/DTD/svg11.dtd" [
	<!ENTITY ns_extend "http://ns.adobe.com/Extensibility/1.0/">
	<!ENTITY ns_ai "http://ns.adobe.com/AdobeIllustrator/10.0/">
	<!ENTITY ns_graphs "http://ns.adobe.com/Graphs/1.0/">
	<!ENTITY ns_vars "http://ns.adobe.com/Variables/1.0/">
	<!ENTITY ns_imrep "http://ns.adobe.com/ImageReplacement/1.0/">
	<!ENTITY ns_sfw "http://ns.adobe.com/SaveForWeb/1.0/">
	<!ENTITY ns_custom "http://ns.adobe.com/GenericCustomNamespace/1.0/">
	<!ENTITY ns_adobe_xpath "http://ns.adobe.com/XPath/1.0/">
]><svg id="Layer_1" xmlns="http://www.w3.org/2000/svg" viewBox="0 0 203 203"><style>.st0,.st1{fill:none;stroke:#007a7c;stroke-width:2;stroke-miterlimit:10}.st1{stroke-linecap:round;stroke-linejoin:round}</style><switch><g><circle class="st0" cx="101.5" cy="101.5" r="100"/><path class="st1" d="M132.3 78.6c0 23.3-16.7 42.2-30.8 42.2-12 0-30.8-19-30.7-42.3 0-23.3 13.8-34.9 30.8-34.9s30.7 11.6 30.7 35z"/><path class="st1" d="M119.2 118.9c-8.3 11-17.7 18-17.7 18s-9.5-7-17.7-18.1C64.1 128.4 50 150.1 50 150.1s23 9.3 51.5 9.3c28.4 0 51.5-9.2 51.5-9.2s-14.1-21.7-33.8-31.3zM178.1 87.5c0 14.3-10.3 25.9-18.9 25.9-7.4 0-18.8-11.6-18.8-25.9 0-14.3 8.5-21.4 18.9-21.4s18.8 7.1 18.8 21.4z"/><path class="st1" d="M135.9 121.5c3.4-3.4 7.7-6.9 12.5-9.3 5 6.8 10.8 11.1 10.8 11.1s5.8-4.3 10.9-11.1c12.1 5.8 20.7 19.2 20.7 19.2s-14.1 5.6-31.5 5.6c-3.4 0-6.7-.2-9.8-.6-.1 0-8.1-9.4-13.6-14.9z"/><g><path class="st1" d="M24.9 87.4c0 14.3 10.2 25.9 18.8 25.9 7.4 0 18.9-11.6 18.9-25.9 0-14.3-8.4-21.4-18.8-21.4s-18.9 7.1-18.9 21.4z"/><path class="st1" d="M67.1 121.4c-3.4-3.4-7.7-7-12.5-9.3-5.1 6.8-10.9 11.1-10.9 11.1s-5.8-4.3-10.8-11.1c-12.1 5.8-20.7 19.1-20.7 19.1s14.1 5.7 31.5 5.7c3.4 0 6.7-.2 9.8-.6.1.1 8-9.4 13.6-14.9z"/></g></g></switch></svg>