<!DOCTYPE svg PUBLIC "-//W3C//DTD SVG 1.1//EN" "http://www.w3.org/Graphics/SVG/1.1/DTD/svg11.dtd" [
	<!ENTITY ns_extend "http://ns.adobe.com/Extensibility/1.0/">
	<!ENTITY ns_ai "http://ns.adobe.com/AdobeIllustrator/10.0/">
	<!ENTITY ns_graphs "http://ns.adobe.com/Graphs/1.0/">
	<!ENTITY ns_vars "http://ns.adobe.com/Variables/1.0/">
	<!ENTITY ns_imrep "http://ns.adobe.com/ImageReplacement/1.0/">
	<!ENTITY ns_sfw "http://ns.adobe.com/SaveForWeb/1.0/">
	<!ENTITY ns_custom "http://ns.adobe.com/GenericCustomNamespace/1.0/">
	<!ENTITY ns_adobe_xpath "http://ns.adobe.com/XPath/1.0/">
]><svg id="Layer_1" xmlns="http://www.w3.org/2000/svg" viewBox="0 0 203 203"><style>.st0,.st1{fill:none;stroke:#007a7c;stroke-width:2;stroke-miterlimit:10}.st1{stroke-linecap:round;stroke-linejoin:round}</style><switch><g><circle class="st0" cx="101.5" cy="101.5" r="100"/><g id="Scheduling_2_"><path class="st1" d="M54.9 59.6h15.5M80.8 59.6h15.5M106.7 59.6h15.5M132.6 59.6h15.5M158.5 59.6h1.5c3.8 0 6.9 3.1 6.9 6.9v85.9c0 3.8-3.1 6.9-6.9 6.9H42.9c-3.8 0-6.9-3.1-6.9-6.9V66.6c0-3.8 3.1-6.9 6.9-6.9h1.5"/><path class="st1" d="M44.5 43.6h10.4v29.9H44.5zM70.4 43.6h10.4v29.9H70.4zM96.3 43.6h10.4v29.9H96.3zM122.2 43.6h10.4v29.9h-10.4zM148.1 43.6h10.4v29.9h-10.4z"/><g><path class="st1" d="M92.8 85.2v63.4H73.7v-38.7l-6.1 7.7-10.7-8.5L73.7 88l2.3-2.8z"/><ellipse class="st1" cx="123.4" cy="116.9" rx="22.7" ry="31.7"/><ellipse class="st1" cx="123.4" cy="116.9" rx="4.8" ry="16.5"/></g></g></g></switch></svg>