<?xml version="1.0" encoding="utf-8"?>
<!-- Generator: Adobe Illustrator 15.0.2, SVG Export Plug-In . SVG Version: 6.00 Build 0)  -->
<!DOCTYPE svg PUBLIC "-//W3C//DTD SVG 1.1//EN" "http://www.w3.org/Graphics/SVG/1.1/DTD/svg11.dtd">
<svg version="1.1" id="celebraciones_x5F_02_xA0_Image_1_"
	 xmlns="http://www.w3.org/2000/svg" xmlns:xlink="http://www.w3.org/1999/xlink" x="0px" y="0px" width="1098.2px"
	 height="1098.2px" viewBox="0 0 1098.2 1098.2" enable-background="new 0 0 1098.2 1098.2" xml:space="preserve">
<g>
	<path fill-rule="evenodd" clip-rule="evenodd" fill="#FFFFFF" d="M650.4,122.9c0.9,18.2-0.4,34.3-4.6,46.8
		c-4.3,13-12.2,21.3-24.7,27.1c-11.9,5.6-25.4,8.8-38.2,13.7c-12.5,4.8-24.1,11.5-36.7,14.9c-1-5.6-1.4-9.8-1.4-14.9
		c-0.1-28.4,15.6-39.8,38.6-46.6c22.2-6.5,47.9-7.9,60.5-24.7C647.1,134.9,649.5,128.9,650.4,122.9z"/>
	<path fill-rule="evenodd" clip-rule="evenodd" fill="#FFFFFF" d="M576.7,374.9c33,0.8,68-0.3,101,0.2c10.1,0.2,19.2,2.8,26.9,6.7
		c14.9,7.6,25.9,19.6,31.7,35.8c5.9,16.5,3.6,41.5,3.6,63.8c0,12.2,0.1,22.8-2.2,31.7c-2.2,8.6-6.1,16.2-11,22.6
		c-9.6,12.4-23.2,22.1-43,24.5c-10.5,1.3-22,0.5-33.4,0.5c-67.3,0-134.5,0-202.3,0c-11.2,0-22.8,1-33.4-0.2
		c-19.6-2.2-33.3-12.3-43-24.5c-5-6.4-9-14-11.3-22.6c-2.4-8.7-2.2-19.4-2.2-31.4c0-23-2.1-47.3,3.6-63.8
		c5.8-16.6,16.4-28.1,31.4-36c7.7-4,16.7-6.8,26.9-7c32.8-0.7,67.3,0.5,101,0c0.4-21.5,0.2-45.1,0.2-67.4c0-12.1-1.1-23.3,2.9-31
		c3.8-7.3,11-12.7,20.9-13.9c17.9-2.2,29.5,8.8,31.2,22.8c0.6,5.1,0.2,11,0.2,17.5C576.7,326.6,576.7,352.4,576.7,374.9z"/>
	<path fill-rule="evenodd" clip-rule="evenodd" fill="#FFFFFF" d="M347.5,594c13.5-0.9,29.9-0.2,44.6-0.2c117.8,0,236.6,0,354.2,0
		c14.7,0,25,3.9,34.3,9.8c17.9,11.4,30,28.8,30,58.6c0,14.7,0,29.6,0,44.4c0,14.9-1.7,27.4-6.7,37.4c-9.2,18.2-27.3,33.8-53.3,35.3
		c-14.6,0.8-29.4,0.2-44.2,0.2c-103,0-206.1,0-309.8,0c-15.7,0-30.7,0.5-44.4,0c-14.2-0.5-24.6-3.9-34.3-9.8
		c-17.8-10.9-30.5-28.4-30.5-58.1c0-14.5,0-29.5,0-44.4c0-14.9,1.1-26.8,6.5-37.7C303.4,610.7,321.6,595.8,347.5,594z"/>
	<path fill-rule="evenodd" clip-rule="evenodd" fill="#FFFFFF" d="M275.5,810.2c16.5-1.3,36.1-0.2,53.5-0.2c159.1,0,319.4,0,477.8,0
		c9.5,0,17.8,0,25,1.7c20.7,4.9,35.5,17.6,43.7,35.8c2.8,6.2,4.8,13,5.5,21.1c0.7,8,0.2,17.4,0.2,26.2c0,16.5,1.6,37.6-1.7,51.4
		c-6.2,26.2-26.9,46.7-56.9,49.2c-17.2,1.5-35.3,0.2-53,0.2c-159.1,0-318.9,0-477.8,0c-9.8,0-17.9,0.2-25.2-1.4
		c-20.7-4.6-35-17.8-43.7-35.8c-2.9-6-5-12.9-5.8-20.9c-0.8-8-0.2-17.6-0.2-26.2c0-16.2-1.7-37.6,1.4-51.6
		c3-13.5,10.3-25.1,19.7-33.4C247.3,818.2,259.9,811.5,275.5,810.2z M299.3,890.2c-1.2,2.6-2,4.2-2.4,8.4c-1.5,16.5,10,28.1,23.8,29
		c19.7,1.4,35.1-19.1,25.2-38.2c-4.3-8.2-13.4-14.9-26.4-13.4C309.5,877.2,302.1,884.3,299.3,890.2z M420.5,880.6
		c-9.3,6.8-14.1,22.6-7,34.6c4.2,6.9,13.1,13.4,24.7,12.5c12.3-0.9,23.8-10.8,23.8-25.9c0-15.6-12.6-27.6-29.5-25.7
		C427.9,876.5,423.4,878.4,420.5,880.6z M523.2,904.6c0.9,9.7,6.7,16.8,14.2,20.4c17.9,8.8,36.3-4.3,37.7-20.6
		c1.6-18-12.5-30.3-29.3-28.3C532.1,877.6,521.8,889.7,523.2,904.6z M642.7,884.4c-3.2,3.6-6.5,9.4-6.5,17.5
		c0.1,14.9,11.3,24.8,24,25.7c16.5,1.2,28.2-11.4,28.1-26.2c0-5.4-2.9-12.4-5-15.4c-4.4-6-13.2-11.4-24.5-10.1
		C651.5,876.9,646.3,880.4,642.7,884.4z M765.6,877.4c-9,3.7-17.3,13.2-16.1,26.9c0.8,9.6,7.4,17.3,14.2,20.6
		c17.4,8.6,39.7-4,37.7-26.4c-1.2-13.4-13.4-24.4-29.3-22.6C769.4,876.3,767.4,876.7,765.6,877.4z"/>
</g>
</svg>
