<?xml version="1.0" encoding="utf-8"?>
<!-- Generator: Adobe Illustrator 15.0.2, SVG Export Plug-In . SVG Version: 6.00 Build 0)  -->
<svg version="1.2" baseProfile="tiny" id="Layer_1" xmlns="http://www.w3.org/2000/svg" xmlns:xlink="http://www.w3.org/1999/xlink"
	 x="0px" y="0px" width="350px" height="140px" viewBox="0 0 350 140" overflow="inherit" xml:space="preserve">
<path fill="#007A7C" d="M17.05,3.02C9.45,3.02,3.28,9.2,3.28,16.8v75.24c0,7.6,6.18,13.78,13.77,13.78c0,0,125.39,0,128.58,0
	c1.87,2.28,19.65,24.01,19.65,24.01c2.63,3.21,6.52,5.05,10.66,5.05h129.17c7.6,0,13.78-6.19,13.78-13.78c0,0,0-10.69,0-15.28
	c4.42,0,13.86,0,13.86,0c7.6,0,13.78-6.18,13.78-13.78V16.8c0-7.6-6.18-13.78-13.78-13.78H17.05 M10.16,92.04V16.8
	c0-3.8,3.09-6.89,6.89-6.89h315.7c3.8,0,6.89,3.09,6.89,6.89v75.24c0,3.8-3.09,6.89-6.89,6.89h-17.31c-1.9,0-3.44,1.54-3.44,3.45
	v18.72c0,3.8-3.09,6.89-6.89,6.89H175.94c-2.07,0-4.01-0.92-5.33-2.52l-20.68-25.27c-0.66-0.8-1.63-1.27-2.67-1.27H17.05
	C13.26,98.93,10.16,95.84,10.16,92.04z"/>
<polyline fill="#007A7C" points="44.59,83.5 25.35,83.5 25.35,22.89 33.45,22.89 33.45,76.15 44.59,76.15 44.59,83.5 "/>
<path fill="#007A7C" d="M58.6,83.5c-6.53,0-9.8-3.44-9.8-10.3V33.27c0-6.92,3.24-10.39,9.71-10.39h7.76c6.47,0,9.71,3.47,9.71,10.39
	V73.2c0,6.87-3.26,10.3-9.79,10.3H58.6 M60.54,76.15h4.13c2.14,0,3.21-1.18,3.21-3.55V33.78c0-2.36-1.21-3.55-3.63-3.55h-3.79
	c-2.36,0-3.54,1.19-3.54,3.55V72.6C56.91,74.97,58.12,76.15,60.54,76.15z"/>
<path fill="#007A7C" d="M107.38,69.31v3.88c0,6.87-3.24,10.3-9.71,10.3h-5.23c-6.47,0-9.71-3.44-9.71-10.3V33.19
	c0-6.86,3.24-10.3,9.71-10.3h5.23c6.47,0,9.71,3.44,9.71,10.3v6.84h-8.11v-6.24c0-2.36-1.21-3.55-3.63-3.55h-1.6
	c-2.14,0-3.21,1.19-3.21,3.55V72.6c0,2.37,1.07,3.55,3.21,3.55h2.03c2.14,0,3.2-1.18,3.2-3.55v-3.29H107.38"/>
<path fill="#007A7C" d="M123.08,83.5c-6.53,0-9.79-3.44-9.79-10.3V33.27c0-6.92,3.23-10.39,9.71-10.39h7.76
	c6.47,0,9.71,3.47,9.71,10.39V73.2c0,6.87-3.27,10.3-9.8,10.3H123.08 M125.02,76.15h4.14c2.14,0,3.21-1.18,3.21-3.55V33.78
	c0-2.36-1.21-3.55-3.63-3.55h-3.8c-2.36,0-3.55,1.19-3.55,3.55V72.6C121.39,74.97,122.61,76.15,125.02,76.15z"/>
<polyline fill="#007A7C" points="164.44,52.18 164.44,22.89 172.54,22.89 172.54,83.5 164.44,83.5 164.44,71.42 155.74,43.83 
	155.74,83.5 147.64,83.5 147.64,22.89 155.74,22.89 164.44,52.18 "/>
<path fill="#007A7C" d="M189.5,83.5c-6.53,0-9.78-3.44-9.78-10.3V33.27c0-6.92,3.22-10.39,9.7-10.39h7.77
	c6.47,0,9.71,3.47,9.71,10.39V73.2c0,6.87-3.26,10.3-9.79,10.3H189.5 M191.44,76.15h4.13c2.14,0,3.21-1.18,3.21-3.55V33.78
	c0-2.36-1.21-3.55-3.63-3.55h-3.79c-2.36,0-3.54,1.19-3.54,3.55V72.6C187.82,74.97,189.02,76.15,191.44,76.15z"/>
<polyline fill="#007A7C" points="230.52,58.51 238.03,22.89 246.98,22.89 246.98,83.5 238.87,83.5 239.72,43.83 233.64,72.52 
	227.39,72.52 221.32,43.83 222.17,83.5 214.06,83.5 214.06,22.89 223,22.89 230.52,58.51 "/>
<rect x="254.57" y="22.89" fill="#007A7C" width="8.11" height="60.61"/>
<path fill="#007A7C" d="M294.49,69.31v3.88c0,6.87-3.24,10.3-9.71,10.3h-5.23c-6.47,0-9.71-3.44-9.71-10.3V33.19
	c0-6.86,3.24-10.3,9.71-10.3h5.23c6.47,0,9.71,3.44,9.71,10.3v6.84h-8.1v-6.24c0-2.36-1.21-3.55-3.64-3.55h-1.6
	c-2.14,0-3.21,1.19-3.21,3.55V72.6c0,2.37,1.07,3.55,3.21,3.55h2.02c2.13,0,3.21-1.18,3.21-3.55v-3.29H294.49"/>
<path fill="#007A7C" d="M316.36,39.18v-5.32c0-2.42-1.19-3.63-3.55-3.63h-1.27c-2.31,0-3.46,1.21-3.46,3.63v10.05
	c0,1.12,0.22,1.89,0.67,2.28c0.45,0.4,1.18,0.9,2.19,1.52l7.68,4.14c1.68,0.96,2.88,1.7,3.59,2.24c0.7,0.53,1.25,1.18,1.64,1.94
	c0.4,0.76,0.6,2.21,0.6,4.35v12.91c0,6.81-3.26,10.21-9.79,10.21h-4.98c-6.47,0-9.71-3.71-9.71-11.15v-3.04h8.1v3.29
	c0,2.37,1.21,3.55,3.63,3.55h1.44c2.14,0,3.21-1.18,3.21-3.55V62.31c0-1.13-0.23-1.88-0.69-2.27c-0.44-0.4-1.18-0.9-2.19-1.52
	l-7.68-4.31c-1.69-0.89-2.92-1.66-3.67-2.27c-0.76-0.62-1.31-1.42-1.65-2.41c-0.34-0.98-0.5-2.26-0.5-3.84v-12.4
	c0-6.92,3.24-10.39,9.71-10.39h5.07c6.47,0,9.71,3.47,9.71,10.39v5.91H316.36"/>
<g>
	<path fill="#007A7C" d="M187.79,117.28v2.24c0,2.77-1.3,4.15-3.91,4.15h-2.11c-2.61,0-3.91-1.38-3.91-4.15V103.4
		c0-2.77,1.3-4.15,3.91-4.15h2.11c2.61,0,3.91,1.38,3.91,4.15v3.43h-3.26v-3.43c0-0.95-0.49-1.43-1.46-1.43h-0.65
		c-0.86,0-1.29,0.48-1.29,1.43v16.12c0,0.95,0.43,1.43,1.29,1.43h0.82c0.86,0,1.29-0.48,1.29-1.43v-2.24H187.79z"/>
	<path fill="#007A7C" d="M194.29,123.67c-2.63,0-3.94-1.38-3.94-4.15v-16.08c0-2.79,1.3-4.18,3.91-4.18h2.79
		c2.61,0,3.91,1.39,3.91,4.18v16.08c0,2.77-1.31,4.15-3.94,4.15H194.29z M196.56,120.95c0.75,0,1.12-0.42,1.12-1.26v-16.46
		c0-0.84-0.43-1.26-1.29-1.26h-1.53c-0.84,0-1.26,0.42-1.26,1.26v16.46c0,0.84,0.43,1.26,1.29,1.26H196.56z"/>
	<path fill="#007A7C" d="M207.95,123.67c-2.63,0-3.94-1.38-3.94-4.15v-16.08c0-2.79,1.3-4.18,3.91-4.18h2.79
		c2.61,0,3.91,1.39,3.91,4.18v16.08c0,2.77-1.31,4.15-3.94,4.15H207.95z M210.23,120.95c0.75,0,1.12-0.42,1.12-1.26v-16.46
		c0-0.84-0.43-1.26-1.29-1.26h-1.53c-0.84,0-1.26,0.42-1.26,1.26v16.46c0,0.84,0.43,1.26,1.29,1.26H210.23z"/>
	<path fill="#007A7C" d="M220.94,123.67h-3.26V99.25h6.15c2.63,0,3.94,1.39,3.94,4.18v5.58c0,1.7-0.53,3.02-1.6,3.96
		c-1.06,0.94-2.63,1.41-4.69,1.41h-0.54V123.67z M220.94,111.67h0.54c1.02,0,1.78-0.19,2.28-0.58c0.5-0.38,0.75-1.01,0.75-1.87
		v-6.15c0.05-0.73-0.34-1.09-1.16-1.09h-2.41V111.67z"/>
	<path fill="#007A7C" d="M230.32,123.67V99.25h7.21v2.72h-3.94v8.33h3.94v2.72h-3.94v7.92h3.94v2.72H230.32z"/>
	<path fill="#007A7C" d="M247.46,123.67l-2.14-9.86h-1.97v9.86h-3.26V99.25h6.39c2.49,0,3.74,1.39,3.74,4.18v6.02
		c0,2.13-0.65,3.48-1.94,4.05l2.28,10.17H247.46z M243.35,111.02h2.14c0.97,0,1.46-0.59,1.46-1.77v-5.27c0-1.18-0.49-1.77-1.46-1.77
		h-2.14V111.02z"/>
	<path fill="#007A7C" d="M256.2,123.67h-3.26v-20.23c0-2.79,1.3-4.18,3.91-4.18h2.45c2.61,0,3.91,1.39,3.91,4.18v20.23h-3.26v-8.94
		h-3.74V123.67z M259.94,111.77v-8.13c0-0.95-0.48-1.43-1.43-1.43h-0.88c-0.95,0-1.43,0.48-1.43,1.43v8.13H259.94z"/>
	<path fill="#007A7C" d="M271.29,101.97v21.69h-3.26v-21.69h-3.13v-2.72h9.52v2.72H271.29z"/>
	<path fill="#007A7C" d="M276.29,123.67V99.25h3.26v24.41H276.29z"/>
	<path fill="#007A7C" d="M293.19,99.25l-3.94,24.41h-3.88l-3.95-24.41h3.23l2.65,18.63l2.65-18.63H293.19z"/>
	<path fill="#007A7C" d="M294.72,123.67V99.25h7.21v2.72h-3.94v8.33h3.94v2.72h-3.94v7.92h3.94v2.72H294.72z"/>
</g>
</svg>
