<?xml version="1.0" encoding="UTF-8" standalone="no"?>
<svg
   xmlns:dc="http://purl.org/dc/elements/1.1/"
   xmlns:cc="http://creativecommons.org/ns#"
   xmlns:rdf="http://www.w3.org/1999/02/22-rdf-syntax-ns#"
   xmlns:svg="http://www.w3.org/2000/svg"
   xmlns="http://www.w3.org/2000/svg"
   xmlns:sodipodi="http://sodipodi.sourceforge.net/DTD/sodipodi-0.dtd"
   xmlns:inkscape="http://www.inkscape.org/namespaces/inkscape"
   width="2279.4231"
   height="339.15936"
   viewBox="0 0 175.74899 26.150001"
   version="1.1"
   id="svg12"
   sodipodi:docname="fast-company.svg"
   inkscape:version="0.92.3 (2405546, 2018-03-11)">
  <metadata
     id="metadata18">
    <rdf:RDF>
      <cc:Work
         rdf:about="">
        <dc:format>image/svg+xml</dc:format>
        <dc:type
           rdf:resource="http://purl.org/dc/dcmitype/StillImage" />
        <dc:title></dc:title>
      </cc:Work>
    </rdf:RDF>
  </metadata>
  <defs
     id="defs16" />
  <sodipodi:namedview
     pagecolor="#ffffff"
     bordercolor="#666666"
     borderopacity="1"
     objecttolerance="10"
     gridtolerance="10"
     guidetolerance="10"
     inkscape:pageopacity="0"
     inkscape:pageshadow="2"
     inkscape:window-width="1920"
     inkscape:window-height="1057"
     id="namedview14"
     showgrid="false"
     inkscape:zoom="0.26700352"
     inkscape:cx="1094.9445"
     inkscape:cy="72.024633"
     inkscape:window-x="1912"
     inkscape:window-y="-8"
     inkscape:window-maximized="1"
     inkscape:current-layer="g10"
     fit-margin-top="0"
     fit-margin-left="0"
     fit-margin-right="0"
     fit-margin-bottom="0">
    <inkscape:grid
       type="xygrid"
       id="grid11"
       originx="-8.504"
       originy="-83.303" />
  </sodipodi:namedview>
  <g
     id="g10"
     style="clip-rule:evenodd;fill-rule:evenodd"
     transform="translate(-8.504,-83.303)">
    <path
       d="m 92.02,90.371 c 0,3.534 -0.353,14.489 -0.353,14.489 0,2.12 0.706,3.062 2.709,3.062 v 0.942 h -7.892 v -0.942 c 2.002,0 3.062,-0.942 3.062,-3.062 L 90.253,86.955 C 89.664,85.541 89.075,85.07 87.544,84.953 v -0.824 h 6.007 l 6.361,16.727 6.479,-16.727 h 5.418 v 0.824 c -1.531,0 -2.355,0.707 -2.355,2.356 l 0.707,17.316 c 0,2.592 0.471,3.298 2.592,3.298 v 0.942 h -9.07 v -0.942 c 1.766,0 2.592,-0.589 2.473,-3.298 0,0 -0.354,-12.133 -0.471,-14.253 l -4.357,12.015 a 44.827,44.827 0 0 0 -1.65,5.183 l -1.412,0.118 c -0.354,-1.296 -1.296,-3.651 -1.296,-3.651 0,0 -3.655,-10.25 -4.95,-13.666 z m -7.421,18.611 c -0.471,-0.118 -0.942,-0.118 -1.414,-0.118 -0.942,0 -2.592,0.471 -4.594,0.471 -7.657,0 -13.311,-4.594 -13.311,-13.075 0,-7.185 5.301,-12.721 13.428,-12.721 1.884,0 4.005,0.354 5.772,1.06 0.353,-0.354 0.471,-0.589 0.824,-0.942 h 0.707 c -0.118,1.296 -0.589,5.536 -0.589,5.536 h -0.707 c -0.471,-2.473 -1.767,-4.123 -5.89,-4.123 -4.947,0 -9.423,3.887 -9.423,11.073 0,8.128 4.594,11.661 9.659,11.661 3.299,0 5.301,-1.884 6.597,-4.24 l 0.825,0.354 z M 62.335,88.722 h -0.824 c -0.118,-2.238 -0.825,-2.945 -2.592,-2.945 h -3.416 v 18.494 c 0,3.062 0.589,3.651 2.592,3.651 v 0.942 H 49.26 v -0.942 c 2.003,0 2.592,-0.589 2.592,-3.77 V 85.777 h -3.416 c -2.238,0 -2.592,0.589 -3.181,2.945 h -0.824 l 0.589,-5.301 0.589,0.118 c 0.235,0.589 0.707,0.589 2.12,0.589 h 11.426 c 2.121,0 2.592,0 3.063,-0.707 h 0.707 z"
       id="path4"
       inkscape:connector-curvature="0" />
    <path
       d="m 37.363,109.453 c -1.649,0 -2.945,-0.235 -3.887,-0.589 -0.942,-0.235 -1.649,-0.589 -2.002,-0.824 -0.471,0.471 -0.825,1.06 -0.825,1.06 l -0.707,-0.235 0.589,-5.536 0.825,0.118 c 0.471,2.591 2.238,4.476 5.89,4.476 2.827,0 4.712,-2.355 4.712,-4.947 0,-2.12 -0.825,-3.181 -3.652,-5.301 -0.942,-0.589 -1.767,-1.06 -2.474,-1.649 -2.591,-1.648 -4.241,-3.533 -4.241,-6.596 0,-3.534 2.945,-5.89 6.832,-5.89 2.238,0 3.652,0.707 4.123,0.942 l 0.824,-0.942 0.589,0.118 -0.589,5.065 -0.824,-0.118 c 0,-2.355 -1.414,-3.416 -3.77,-3.416 -2.238,0 -3.887,1.178 -3.887,3.416 0,2.003 1.531,3.298 3.298,4.477 0.942,0.589 1.649,1.06 2.355,1.531 4.123,2.944 5.065,4.829 5.065,7.656 0.002,4.122 -3.179,7.184 -8.244,7.184 z M 23.935,88.722 h -0.942 c 0,-2.121 -0.942,-2.945 -2.827,-2.945 h -5.301 v 9.306 h 3.416 c 1.767,0 2.121,-0.942 2.356,-2.474 h 0.824 v 6.597 h -0.824 c -0.235,-1.767 -0.589,-2.474 -2.474,-2.474 h -3.298 v 7.893 c 0,2.944 0.707,3.298 2.592,3.298 v 0.942 H 8.504 v -0.942 c 2.238,0 2.591,-0.589 2.591,-3.298 V 87.308 c 0,-1.649 -0.707,-2.356 -2.591,-2.356 v -0.824 h 12.25 c 2.12,0 2.591,-0.118 2.945,-0.825 h 0.825 z m 127.1,1.413 v 14.135 c 0,3.062 0.705,3.651 2.59,3.651 v 0.942 h -13.898 v -0.942 c 1.061,0 2.002,-0.354 2.002,-1.06 0,-0.472 -0.117,-1.296 -0.354,-2.121 l -1.061,-3.416 h -7.773 c -0.119,0.472 -1.531,4.358 -1.531,5.419 0,0.942 1.061,1.178 1.766,1.178 v 0.942 h -6.479 v -0.942 c 1.178,0 2.121,-0.118 2.945,-2.591 l 6.008,-19.201 c -0.354,-0.824 -0.824,-1.06 -1.648,-1.178 v -0.824 h 5.301 l 6.359,20.143 c 0.59,2.12 1.178,3.181 2.121,3.651 1.414,-0.471 1.768,-0.942 1.768,-3.651 V 87.308 c -1.061,-1.414 -1.18,-2.356 -3.182,-2.356 v -0.824 h 6.008 l 9.895,16.844 V 88.133 c 0,-2.592 -0.588,-3.181 -2.592,-3.181 v -0.824 h 13.193 v 0.824 c -0.824,0 -1.531,0.354 -1.531,1.178 0,0.589 0.236,1.178 0.471,1.885 l 3.77,8.128 3.652,-7.892 c 0.588,-1.06 0.707,-1.649 0.707,-2.238 0,-0.707 -0.473,-1.061 -1.531,-1.061 v -0.824 h 6.242 v 0.824 c -1.531,0 -2.475,1.414 -3.18,3.062 l -4.83,9.895 v 6.479 c 0,2.828 0.707,3.534 2.592,3.534 v 0.942 h -8.953 v -0.942 c 1.885,0 2.592,-0.706 2.592,-3.534 V 98.852 L 167.29,87.897 c -0.941,-2.12 -1.295,-2.591 -1.885,-2.945 -1.178,0.471 -1.531,1.296 -1.531,3.181 v 18.14 c 0,0 0.119,1.414 0.236,3.062 l -1.531,0.118 z m -14.724,-1.178 -3.299,10.72 h 6.832 z"
       id="path6"
       inkscape:connector-curvature="0" />
    <path
       d="m 121.703,99.677 h -1.766 v 5.064 c 0,2.592 0.705,3.181 2.709,3.181 v 0.942 h -9.07 v -0.942 c 1.885,0 2.592,-0.706 2.592,-3.298 V 88.015 c 0,-2.591 -0.707,-3.062 -2.592,-3.062 v -0.824 h 6.832 c 6.596,0 10.482,2.002 10.482,7.42 0.001,5.654 -4.71,8.128 -9.187,8.128 z m -1.178,-13.9 h -0.588 v 12.132 h 1.059 c 3.889,0 5.891,-1.767 5.891,-6.243 0,-4.476 -1.768,-5.889 -6.362,-5.889 z m -39.932,18.375 c -4.476,0 -7.539,-3.181 -7.539,-7.774 0,-4.358 3.181,-7.774 7.539,-7.774 4.241,0 7.421,3.298 7.421,7.774 0.001,4.358 -3.298,7.774 -7.421,7.774 z m 0,-14.135 c -3.062,0 -4.123,2.945 -4.123,6.361 0,3.181 0.943,6.361 4.123,6.361 3.063,0 4.005,-3.181 4.005,-6.479 0.001,-3.18 -1.177,-6.243 -4.005,-6.243 z m -51.828,12.722 v -0.825 c 1.178,0 1.414,-0.353 1.414,-0.706 0,-0.472 -0.118,-0.825 -0.236,-1.178 0,0 -0.236,-0.943 -0.471,-1.649 h -4.594 l -0.471,1.531 c -0.117,0.354 -0.235,0.707 -0.235,1.178 0,0.472 0.471,0.824 1.178,0.824 v 0.825 h -4.594 v -0.825 c 1.178,0 1.649,-0.353 2.12,-1.648 L 26.41,89.664 C 26.292,89.192 25.938,88.839 25.232,88.839 V 88.014 H 29 a 2194.843,2194.843 0 0 0 3.887,11.309 c 0.589,2.002 1.178,2.591 2.12,2.591 v 0.825 z m -1.65,-11.426 -1.767,5.772 H 29 Z"
       id="path8"
       inkscape:connector-curvature="0" />
  </g>
</svg>
