<?xml version="1.0" encoding="utf-8"?>
<!-- Generator: Adobe Illustrator 15.0.2, SVG Export Plug-In . SVG Version: 6.00 Build 0)  -->
<!DOCTYPE svg PUBLIC "-//W3C//DTD SVG 1.1//EN" "http://www.w3.org/Graphics/SVG/1.1/DTD/svg11.dtd">
<svg version="1.1" id="Layer_1" xmlns="http://www.w3.org/2000/svg" xmlns:xlink="http://www.w3.org/1999/xlink" x="0px" y="0px"
	 width="180px" height="180px" viewBox="0 0 180 180" style="enable-background:new 0 0 180 180;" xml:space="preserve">
<style type="text/css">
<![CDATA[
	.st0{clip-path:url(#SVGID_4_);fill-rule:evenodd;clip-rule:evenodd;fill:#00989A;}
	.st1{clip-path:url(#SVGID_32_);fill-rule:evenodd;clip-rule:evenodd;fill:#FFFFFF;}
	.st2{clip-path:url(#SVGID_12_);fill-rule:evenodd;clip-rule:evenodd;fill:#00989A;}
	.st3{clip-path:url(#SVGID_32_);fill-rule:evenodd;clip-rule:evenodd;fill:#00989A;}
	.st4{clip-path:url(#SVGID_24_);fill-rule:evenodd;clip-rule:evenodd;fill:#FFFFFF;}
	.st5{clip-path:url(#SVGID_8_);fill-rule:evenodd;clip-rule:evenodd;fill:#FFFFFF;}
	.st6{clip-path:url(#SVGID_24_);fill-rule:evenodd;clip-rule:evenodd;fill:#00989A;}
	.st7{clip-path:url(#SVGID_16_);fill-rule:evenodd;clip-rule:evenodd;fill:#FFFFFF;}
	.st8{clip-path:url(#SVGID_2_);}
	.st9{clip-path:url(#SVGID_6_);}
	.st10{clip-path:url(#SVGID_26_);fill-rule:evenodd;clip-rule:evenodd;fill:#FFFFFF;}
	.st11{fill:#FFFFFF;}
	.st12{clip-path:url(#SVGID_8_);fill-rule:evenodd;clip-rule:evenodd;fill:#00989A;}
	.st13{clip-path:url(#SVGID_16_);fill-rule:evenodd;clip-rule:evenodd;fill:#00989A;}
	.st14{clip-path:url(#SVGID_20_);fill-rule:evenodd;clip-rule:evenodd;fill:#FFFFFF;}
	.st15{clip-path:url(#SVGID_18_);fill-rule:evenodd;clip-rule:evenodd;fill:#FFFFFF;}
	.st16{fill:#00989A;}
	.st17{clip-path:url(#SVGID_30_);fill-rule:evenodd;clip-rule:evenodd;fill:#FFFFFF;}
	.st18{clip-path:url(#SVGID_28_);fill-rule:evenodd;clip-rule:evenodd;fill:#FFFFFF;}
	.st19{clip-path:url(#SVGID_4_);fill-rule:evenodd;clip-rule:evenodd;fill:#FFFFFF;}
	.st20{clip-path:url(#SVGID_10_);}
	.st21{clip-path:url(#SVGID_14_);}
	.st22{clip-path:url(#SVGID_18_);}
	.st23{clip-path:url(#SVGID_22_);}
	.st24{clip-path:url(#SVGID_26_);}
	.st25{clip-path:url(#SVGID_30_);}
	.st26{clip-path:url(#SVGID_20_);fill-rule:evenodd;clip-rule:evenodd;fill:#00989A;}
	.st27{clip-path:url(#SVGID_12_);fill-rule:evenodd;clip-rule:evenodd;fill:#FFFFFF;}
	.st28{clip-path:url(#SVGID_24_);fill-rule:evenodd;clip-rule:evenodd;fill:#87D1D1;}
	.st29{clip-path:url(#SVGID_22_);fill-rule:evenodd;clip-rule:evenodd;fill:#FFFFFF;}
	.st30{clip-path:url(#SVGID_28_);fill-rule:evenodd;clip-rule:evenodd;fill:#00989A;}
]]>
</style>
<rect class="st16" width="180" height="180"/>
<path class="st11" d="M51.5,78.3c-1.9,0-3.4,1.5-3.4,3.4v18.3c0,1.8,1.5,3.4,3.4,3.4c0,0,30.5,0,31.3,0c0.5,0.6,4.8,5.8,4.8,5.8
	c0.6,0.8,1.6,1.2,2.6,1.2h31.5c1.9,0,3.4-1.5,3.4-3.4c0,0,0-2.6,0-3.7c1.1,0,3.4,0,3.4,0c1.9,0,3.4-1.5,3.4-3.4V81.6
	c0-1.9-1.5-3.4-3.4-3.4H51.5 M49.8,99.9V81.6c0-0.9,0.8-1.7,1.7-1.7h76.9c0.9,0,1.7,0.8,1.7,1.7v18.3c0,0.9-0.8,1.7-1.7,1.7h-4.2
	c-0.5,0-0.8,0.4-0.8,0.8v4.6c0,0.9-0.8,1.7-1.7,1.7H90.2c-0.5,0-1-0.2-1.3-0.6l-5-6.2c-0.2-0.2-0.4-0.3-0.7-0.3H51.5
	C50.6,101.6,49.8,100.9,49.8,99.9z"/>
<polyline class="st11" points="58.2,97.9 53.5,97.9 53.5,83.1 55.5,83.1 55.5,96.1 58.2,96.1 58.2,97.9 "/>
<path class="st11" d="M61.6,97.9c-1.6,0-2.4-0.8-2.4-2.5v-9.7c0-1.7,0.8-2.5,2.4-2.5h1.9c1.6,0,2.4,0.8,2.4,2.5v9.7
	c0,1.7-0.8,2.5-2.4,2.5H61.6 M62.1,96.1h1c0.5,0,0.8-0.3,0.8-0.9v-9.5c0-0.6-0.3-0.9-0.9-0.9h-0.9c-0.6,0-0.9,0.3-0.9,0.9v9.5
	C61.2,95.8,61.5,96.1,62.1,96.1z"/>
<path class="st11" d="M73.5,94.4v0.9c0,1.7-0.8,2.5-2.4,2.5h-1.3c-1.6,0-2.4-0.8-2.4-2.5v-9.7c0-1.7,0.8-2.5,2.4-2.5h1.3
	c1.6,0,2.4,0.8,2.4,2.5v1.7h-2v-1.5c0-0.6-0.3-0.9-0.9-0.9h-0.4c-0.5,0-0.8,0.3-0.8,0.9v9.5c0,0.6,0.3,0.9,0.8,0.9h0.5
	c0.5,0,0.8-0.3,0.8-0.9v-0.8H73.5"/>
<path class="st11" d="M77.3,97.9c-1.6,0-2.4-0.8-2.4-2.5v-9.7c0-1.7,0.8-2.5,2.4-2.5h1.9c1.6,0,2.4,0.8,2.4,2.5v9.7
	c0,1.7-0.8,2.5-2.4,2.5H77.3 M77.8,96.1h1c0.5,0,0.8-0.3,0.8-0.9v-9.5c0-0.6-0.3-0.9-0.9-0.9h-0.9c-0.6,0-0.9,0.3-0.9,0.9v9.5
	C76.9,95.8,77.2,96.1,77.8,96.1z"/>
<polyline class="st11" points="87.4,90.2 87.4,83.1 89.4,83.1 89.4,97.9 87.4,97.9 87.4,94.9 85.3,88.2 85.3,97.9 83.3,97.9 
	83.3,83.1 85.3,83.1 87.4,90.2 "/>
<path class="st11" d="M93.5,97.9c-1.6,0-2.4-0.8-2.4-2.5v-9.7c0-1.7,0.8-2.5,2.4-2.5h1.9c1.6,0,2.4,0.8,2.4,2.5v9.7
	c0,1.7-0.8,2.5-2.4,2.5H93.5 M94,96.1h1c0.5,0,0.8-0.3,0.8-0.9v-9.5c0-0.6-0.3-0.9-0.9-0.9h-0.9c-0.6,0-0.9,0.3-0.9,0.9v9.5
	C93.1,95.8,93.4,96.1,94,96.1z"/>
<polyline class="st11" points="103.5,91.8 105.3,83.1 107.5,83.1 107.5,97.9 105.5,97.9 105.7,88.2 104.2,95.2 102.7,95.2 
	101.2,88.2 101.5,97.9 99.5,97.9 99.5,83.1 101.7,83.1 103.5,91.8 "/>
<rect x="109.3" y="83.1" class="st11" width="2" height="14.8"/>
<path class="st11" d="M119.1,94.4v0.9c0,1.7-0.8,2.5-2.4,2.5h-1.3c-1.6,0-2.4-0.8-2.4-2.5v-9.7c0-1.7,0.8-2.5,2.4-2.5h1.3
	c1.6,0,2.4,0.8,2.4,2.5v1.7h-2v-1.5c0-0.6-0.3-0.9-0.9-0.9h-0.4c-0.5,0-0.8,0.3-0.8,0.9v9.5c0,0.6,0.3,0.9,0.8,0.9h0.5
	c0.5,0,0.8-0.3,0.8-0.9v-0.8H119.1"/>
<path class="st11" d="M124.4,87.1v-1.3c0-0.6-0.3-0.9-0.9-0.9h-0.3c-0.6,0-0.8,0.3-0.8,0.9v2.4c0,0.3,0.1,0.5,0.2,0.6
	c0.1,0.1,0.3,0.2,0.5,0.4l1.9,1c0.4,0.2,0.7,0.4,0.9,0.5c0.2,0.1,0.3,0.3,0.4,0.5c0.1,0.2,0.1,0.5,0.1,1.1v3.1
	c0,1.7-0.8,2.5-2.4,2.5h-1.2c-1.6,0-2.4-0.9-2.4-2.7v-0.7h2v0.8c0,0.6,0.3,0.9,0.9,0.9h0.3c0.5,0,0.8-0.3,0.8-0.9v-2.5
	c0-0.3-0.1-0.5-0.2-0.6c-0.1-0.1-0.3-0.2-0.5-0.4l-1.9-1c-0.4-0.2-0.7-0.4-0.9-0.6c-0.2-0.2-0.3-0.3-0.4-0.6
	c-0.1-0.2-0.1-0.6-0.1-0.9v-3c0-1.7,0.8-2.5,2.4-2.5h1.2c1.6,0,2.4,0.8,2.4,2.5v1.4H124.4"/>
<path class="st11" d="M90.9,106.5h-0.6v-3.8c0-0.5,0.2-0.8,0.7-0.8h0.5c0.5,0,0.7,0.3,0.7,0.8v3.8h-0.6v-1.7h-0.7V106.5 M91.6,104.3
	v-1.5c0-0.2-0.1-0.3-0.3-0.3h-0.2c-0.2,0-0.3,0.1-0.3,0.3v1.5H91.6z"/>
<polyline class="st11" points="93.7,102.5 93.7,106.5 93.1,106.5 93.1,102.5 92.5,102.5 92.5,101.9 94.3,101.9 94.3,102.5 
	93.7,102.5 "/>
<polyline class="st11" points="96.8,106.5 96.2,106.5 96.2,104.8 95.5,101.9 96.1,101.9 96.5,103.9 96.6,103.9 97,101.9 97.6,101.9 
	96.8,104.8 96.8,106.5 "/>
<path class="st11" d="M98.6,106.5c-0.5,0-0.7-0.3-0.7-0.8v-3c0-0.5,0.2-0.8,0.7-0.8h0.6c0.5,0,0.7,0.3,0.7,0.8v3
	c0,0.5-0.2,0.8-0.7,0.8H98.6 M98.7,106H99c0.2,0,0.2-0.1,0.2-0.3v-2.9c0-0.2-0.1-0.3-0.3-0.3h-0.3c-0.2,0-0.3,0.1-0.3,0.3v2.9
	C98.4,105.9,98.5,106,98.7,106z"/>
<path class="st11" d="M102.4,101.9v3.7c0,0.6-0.2,0.9-0.7,0.9h-0.5c-0.5,0-0.7-0.3-0.7-0.9v-3.7h0.6v3.7c0,0.2,0.1,0.3,0.3,0.3h0.2
	c0.2,0,0.2-0.1,0.2-0.3v-3.7H102.4"/>
<path class="st11" d="M103,101.9h1.2c0.5,0,0.7,0.3,0.7,0.8v1.1c0,0.4-0.1,0.7-0.4,0.8l0.4,1.9h-0.6l-0.4-1.8h-0.4v1.8H103V101.9
	 M103.6,104.1h0.4c0.2,0,0.3-0.1,0.3-0.3v-1c0-0.2-0.1-0.3-0.3-0.3h-0.4V104.1z"/>
<path class="st11" d="M107.6,103.2v-0.4c0-0.2-0.1-0.3-0.3-0.3h-0.1c-0.2,0-0.3,0.1-0.3,0.3v0.8c0,0.1,0,0.1,0.1,0.2
	s0.1,0.1,0.2,0.1l0.6,0.3c0.1,0.1,0.2,0.1,0.3,0.2c0.1,0,0.1,0.1,0.1,0.1c0,0.1,0,0.2,0,0.3v1c0,0.5-0.2,0.8-0.7,0.8h-0.4
	c-0.5,0-0.7-0.3-0.7-0.8v-0.2h0.6v0.2c0,0.2,0.1,0.3,0.3,0.3h0.1c0.2,0,0.2-0.1,0.2-0.3v-0.8c0-0.1,0-0.1-0.1-0.2
	c0,0-0.1-0.1-0.2-0.1l-0.6-0.3c-0.1-0.1-0.2-0.1-0.3-0.2c-0.1,0-0.1-0.1-0.1-0.2c0-0.1,0-0.2,0-0.3v-0.9c0-0.5,0.2-0.8,0.7-0.8h0.4
	c0.5,0,0.7,0.3,0.7,0.8v0.4H107.6"/>
<polyline class="st11" points="108.7,106.5 108.7,101.9 110.2,101.9 110.2,102.5 109.3,102.5 109.3,103.9 110.1,103.9 110.1,104.4 
	109.3,104.4 109.3,106 110.2,106 110.2,106.5 108.7,106.5 "/>
<path class="st11" d="M110.7,101.9h1.2c0.5,0,0.7,0.3,0.7,0.8v1.1c0,0.4-0.1,0.7-0.4,0.8l0.4,1.9H112l-0.4-1.8h-0.4v1.8h-0.6V101.9
	 M111.3,104.1h0.4c0.2,0,0.3-0.1,0.3-0.3v-1c0-0.2-0.1-0.3-0.3-0.3h-0.4V104.1z"/>
<polyline class="st11" points="115,101.9 114.3,106.5 113.6,106.5 112.8,101.9 113.5,101.9 113.9,105.4 114.4,101.9 115,101.9 "/>
<rect x="115.4" y="101.9" class="st11" width="0.6" height="4.6"/>
<path class="st11" d="M118.4,105.4v0.3c0,0.5-0.2,0.8-0.7,0.8h-0.4c-0.5,0-0.7-0.3-0.7-0.8v-3c0-0.5,0.2-0.8,0.7-0.8h0.4
	c0.5,0,0.7,0.3,0.7,0.8v0.5h-0.6v-0.5c0-0.2-0.1-0.3-0.3-0.3h-0.1c-0.2,0-0.2,0.1-0.2,0.3v2.9c0,0.2,0.1,0.3,0.2,0.3h0.2
	c0.2,0,0.2-0.1,0.2-0.3v-0.2H118.4"/>
<polyline class="st11" points="118.9,106.5 118.9,101.9 120.4,101.9 120.4,102.5 119.5,102.5 119.5,103.9 120.3,103.9 120.3,104.4 
	119.5,104.4 119.5,106 120.4,106 120.4,106.5 118.9,106.5 "/>
<g>
	<g>
		<defs>
			<rect id="SVGID_1_" x="17.9" y="96.4" width="26.4" height="26.4"/>
		</defs>
		<clipPath id="SVGID_2_">
			<use xlink:href="#SVGID_1_"  style="overflow:visible;"/>
		</clipPath>
		<g class="st8">
			<defs>
				<rect id="SVGID_3_" x="17.9" y="96.4" width="26.4" height="26.4"/>
			</defs>
			<clipPath id="SVGID_4_">
				<use xlink:href="#SVGID_3_"  style="overflow:visible;"/>
			</clipPath>
			<path class="st0" d="M21.9,96.4h18.3c1.2,0.1,2,0.5,2.7,1.1c0.6,0.6,1.2,1.4,1.3,2.5c0.1,0.6,0,1.2,0,1.9v16.2c0,0.3,0,0.6,0,0.9
				c-0.1,1.1-0.6,2-1.2,2.6c-0.6,0.6-1.5,1.1-2.6,1.2c-0.6,0.1-1.2,0-1.9,0H23.4c-0.6,0-1.3,0-1.9,0c-1.1-0.1-1.9-0.7-2.5-1.3
				c-0.6-0.7-1-1.5-1.1-2.7v-18.3c0,0,0,0,0,0c0.1-1.2,0.6-2.1,1.2-2.8C19.8,97,20.7,96.5,21.9,96.4 M32.9,103.8
				c-0.5-0.4-1.1-0.7-2-0.6c-0.7,0-1.3,0.3-1.8,0.7c-0.3,0.3-0.6,0.7-0.8,1.1c-0.1,0.1-0.1,0.3-0.1,0.5c0,0-0.1,0-0.1,0
				c0-0.4-0.2-0.6-0.4-0.8c-0.2-0.2-0.5-0.3-0.8-0.3c-0.4,0-0.6,0.2-0.8,0.4c-0.2,0.2-0.3,0.5-0.3,0.8H28c-0.1,0.1,0,0.4,0.2,0.4
				c0,1,0.3,1.6,0.8,2.1c0.5,0.5,1.1,0.9,2.1,0.9c0.9,0,1.6-0.4,2.1-0.9c0.5-0.5,0.8-1.2,0.8-2.1c0.2,0,0.3-0.2,0.2-0.3h2.2
				c0-0.4-0.1-0.6-0.3-0.8c-0.2-0.2-0.4-0.3-0.8-0.4c-0.4,0-0.6,0.1-0.9,0.3c-0.2,0.2-0.3,0.4-0.4,0.8c0,0-0.1,0-0.1,0
				C33.7,104.7,33.4,104.2,32.9,103.8 M34,113.5c0-0.4,0-0.9-0.1-1.2c-0.2-0.7-0.5-1.3-1-1.7c-0.5-0.4-1.1-0.7-2-0.6
				c-0.8,0-1.3,0.4-1.7,0.8c-0.4,0.4-0.7,1-0.8,1.7c-0.1,0.4-0.1,0.8-0.1,1.2c0,1.3,0,2.5,0,3.8H34C34,116.2,34,114.8,34,113.5
				 M29.9,118v1.6c0,0.2,0,0.4,0,0.5c0.1,0.2,0.3,0.3,0.5,0.2c0.1,0,0.2-0.1,0.2-0.2c0-0.1,0-0.3,0-0.5c0-0.5,0-1.1,0-1.6L29.9,118
				C29.9,118,29.9,118,29.9,118 M31.7,118c0,0.5,0,1.1,0,1.6c0,0.2,0,0.4,0,0.5c0,0.1,0.1,0.2,0.2,0.2c0.2,0.1,0.5,0,0.5-0.2
				c0-0.1,0-0.3,0-0.5V118L31.7,118C31.7,118,31.7,118,31.7,118"/>
			<path class="st19" d="M33.9,105.5c0,0,0.1,0,0.1,0c0.1-0.3,0.2-0.6,0.4-0.8c0.2-0.2,0.5-0.3,0.9-0.3c0.4,0,0.6,0.2,0.8,0.4
				c0.2,0.2,0.3,0.5,0.3,0.8h-2.2c0,0.2,0,0.3-0.2,0.3c0,1-0.3,1.6-0.8,2.1c-0.5,0.5-1.1,0.9-2.1,0.9c-0.9,0-1.6-0.4-2.1-0.9
				c-0.5-0.5-0.8-1.2-0.8-2.1c-0.2,0-0.3-0.3-0.2-0.4h-2.2c0-0.4,0.1-0.6,0.3-0.8c0.2-0.2,0.5-0.3,0.8-0.4c0.4,0,0.6,0.1,0.8,0.3
				c0.2,0.2,0.3,0.5,0.4,0.8c0,0,0.1,0,0.1,0c0.1-0.2,0.1-0.3,0.1-0.5c0.2-0.4,0.4-0.8,0.8-1.1c0.4-0.4,1-0.7,1.8-0.7
				c0.9,0,1.5,0.3,2,0.6C33.4,104.2,33.7,104.7,33.9,105.5"/>
			<path class="st19" d="M34,117.5h-5.7c0-1.2,0-2.5,0-3.8c0-0.4,0-0.8,0.1-1.2c0.1-0.7,0.4-1.3,0.8-1.7c0.4-0.4,0.9-0.8,1.7-0.8
				c0.9,0,1.5,0.2,2,0.6c0.4,0.4,0.8,1,1,1.7c0.1,0.4,0.1,0.8,0.1,1.2C34,114.8,34,116.2,34,117.5"/>
			<path class="st19" d="M29.9,118h0.8c0,0.5,0,1,0,1.6c0,0.2,0,0.4,0,0.5c0,0.1-0.1,0.2-0.2,0.2c-0.2,0.1-0.4,0-0.5-0.2
				c0-0.1,0-0.3,0-0.5L29.9,118C29.9,118,29.9,118,29.9,118"/>
			<path class="st19" d="M31.7,118h0.8v1.6c0,0.2,0,0.4,0,0.5c-0.1,0.2-0.3,0.3-0.5,0.2c-0.1,0-0.2-0.1-0.2-0.2
				c-0.1-0.1,0-0.3,0-0.5C31.7,119.1,31.7,118.6,31.7,118C31.7,118,31.7,118,31.7,118"/>
		</g>
	</g>
</g>
<g>
	<g>
		<defs>
			<rect id="SVGID_5_" x="136.7" y="96.4" width="26.4" height="26.4"/>
		</defs>
		<clipPath id="SVGID_6_">
			<use xlink:href="#SVGID_5_"  style="overflow:visible;"/>
		</clipPath>
		<g class="st9">
			<defs>
				<rect id="SVGID_7_" x="136.7" y="96.4" width="26.4" height="26.4"/>
			</defs>
			<clipPath id="SVGID_8_">
				<use xlink:href="#SVGID_7_"  style="overflow:visible;"/>
			</clipPath>
			<path class="st12" d="M140.7,96.4H159c1.2,0.1,2,0.5,2.7,1.1c0.6,0.6,1.2,1.4,1.3,2.5c0.1,0.6,0,1.2,0,1.9v16.2
				c0,0.3,0,0.6,0,0.9c-0.1,1.1-0.6,2-1.2,2.6c-0.6,0.6-1.5,1.1-2.6,1.2c-0.6,0.1-1.2,0-1.9,0h-15.2c-0.6,0-1.3,0-1.9,0
				c-1.1-0.1-1.9-0.7-2.5-1.3c-0.6-0.7-1-1.5-1.1-2.7v-18.3c0,0,0,0,0,0c0.1-1.2,0.6-2.1,1.2-2.8C138.6,97,139.5,96.5,140.7,96.4
				 M147.2,105.4c-0.9,0-1.6,0.3-2.1,0.7c-0.5-0.2-0.9-0.4-1.4-0.6c0.1,0.7,0.2,1.4,0.3,2.1c-0.1,0.3-0.2,0.6-0.2,0.9
				c-0.4-0.1-0.8-0.2-1.2-0.3c-0.1,0-0.3-0.1-0.4-0.1c-0.2,0-0.4,0.2-0.3,0.5c0.1,0.2,0.4,0.3,0.6,0.3c0.4,0.1,0.9,0.2,1.3,0.3
				c0,0.1,0,0.2,0,0.3c-0.2,0-0.3,0.1-0.5,0.1c-0.3,0.1-0.6,0.1-0.7,0.4c0,0.2,0.1,0.4,0.4,0.4c0.1,0,0.2,0,0.3-0.1
				c0.2-0.1,0.5-0.1,0.7-0.2c0.2,0.6,0.6,1.1,1.1,1.5c0.5,0.4,1.1,0.7,1.9,0.7c0.9,0.1,1.5-0.2,2.1-0.5c0.5-0.3,1-0.8,1.3-1.3
				c0.5,0.3,1,0.6,1.5,0.9c0.1,0,0.2,0.1,0.2,0.1c0.4,0.1,0.6-0.4,0.3-0.6c-0.1,0-0.1-0.1-0.2-0.1c-0.5-0.3-1.1-0.6-1.6-0.9
				c0.1-0.2,0.1-0.4,0.1-0.7c0.4-0.1,0.8-0.2,1.2-0.3c0.1,0,0.3-0.1,0.4-0.1c0.1-0.1,0.2-0.3,0.2-0.4c-0.1-0.1-0.2-0.2-0.4-0.2
				c-0.1,0-0.2,0.1-0.3,0.1c-0.3,0.1-0.7,0.2-1,0.3c0-0.3-0.1-0.5-0.2-0.8c0-0.1-0.1-0.2-0.1-0.2c0-0.1,0-0.2,0-0.3
				c0.1-0.6,0.2-1.2,0.2-1.8c-0.5,0.2-0.9,0.4-1.4,0.6C148.8,105.7,148.1,105.3,147.2,105.4 M150.7,116.6c-0.1-0.6-0.4-1.1-0.7-1.5
				c-0.3-0.4-0.7-0.8-1.2-1c-0.5-0.3-1.1-0.4-1.9-0.3c-0.7,0-1.3,0.4-1.7,0.7c-0.7,0.6-1.1,1.4-1.3,2.4c-0.1,0.3-0.1,0.7-0.1,1.1
				v2.5h6.9v-0.6c0.3-0.2,0.7-0.3,1.1-0.4c0.4-0.1,0.9,0,1.3,0.1c0.2,0.1,0.3,0.2,0.5,0.2c0.5,0.2,1.1,0.4,1.9,0.4
				c0.5,0,0.9-0.1,1.3-0.2c0.4-0.1,0.7-0.3,0.9-0.6c0.2-0.2,0.4-0.8,0.1-1.1c-0.1-0.1-0.4-0.2-0.6-0.1c-0.1,0-0.1,0.1-0.2,0.2
				c-0.1,0.1,0,0.2-0.1,0.3c-0.1,0.2-0.4,0.3-0.6,0.4c-0.3,0.1-0.5,0.1-0.9,0.1c-0.6,0-1.2-0.2-1.6-0.4c-0.2-0.1-0.4-0.2-0.7-0.3
				c-0.3-0.1-0.5-0.1-0.8-0.1c-0.6,0-1.2,0.1-1.6,0.3C150.8,117.9,150.8,117.1,150.7,116.6"/>
			<path class="st5" d="M149.3,106.1c0.5-0.2,0.9-0.4,1.4-0.6c-0.1,0.6-0.2,1.2-0.2,1.8c0,0.1,0,0.2,0,0.3c0,0.1,0.1,0.2,0.1,0.2
				c0.1,0.2,0.1,0.5,0.2,0.8c0.3-0.1,0.7-0.2,1-0.3c0.1,0,0.2-0.1,0.3-0.1c0.2,0,0.3,0.1,0.4,0.2c0.1,0.2,0,0.4-0.2,0.4
				c-0.1,0.1-0.3,0.1-0.4,0.1c-0.4,0.1-0.8,0.2-1.2,0.3c0,0.3-0.1,0.5-0.1,0.7c0.5,0.3,1.1,0.6,1.6,0.9c0.1,0,0.2,0.1,0.2,0.1
				c0.3,0.2,0.1,0.7-0.3,0.6c-0.1,0-0.2-0.1-0.2-0.1c-0.5-0.3-1-0.6-1.5-0.9c-0.3,0.5-0.7,1-1.3,1.3c-0.5,0.3-1.2,0.5-2.1,0.5
				c-0.8-0.1-1.4-0.3-1.9-0.7c-0.5-0.4-0.9-0.9-1.1-1.5c-0.2,0.1-0.5,0.1-0.7,0.2c-0.1,0-0.2,0-0.3,0.1c-0.2,0-0.4-0.2-0.4-0.4
				c0.1-0.3,0.4-0.3,0.7-0.4c0.2,0,0.3-0.1,0.5-0.1c0-0.1,0-0.2,0-0.3c-0.4-0.1-0.9-0.2-1.3-0.3c-0.3-0.1-0.6-0.1-0.6-0.3
				c-0.1-0.2,0.1-0.5,0.3-0.5c0.1,0,0.3,0.1,0.4,0.1c0.4,0.1,0.8,0.2,1.2,0.3c0-0.3,0.1-0.6,0.2-0.9c-0.1-0.7-0.2-1.4-0.3-2.1
				c0.5,0.2,0.9,0.4,1.4,0.6c0.5-0.4,1.2-0.7,2.1-0.7C148.1,105.3,148.8,105.7,149.3,106.1"/>
			<path class="st5" d="M150.8,118.6c0.5-0.2,1-0.4,1.6-0.3c0.3,0,0.6,0.1,0.8,0.1c0.2,0.1,0.5,0.2,0.7,0.3c0.4,0.2,1,0.4,1.6,0.4
				c0.3,0,0.6,0,0.9-0.1c0.2-0.1,0.5-0.2,0.6-0.4c0-0.1,0-0.2,0.1-0.3c0.1-0.1,0.1-0.1,0.2-0.2c0.2-0.1,0.4,0,0.6,0.1
				c0.3,0.3,0,0.8-0.1,1.1c-0.2,0.3-0.5,0.5-0.9,0.6c-0.4,0.1-0.8,0.2-1.3,0.2c-0.7,0-1.3-0.2-1.9-0.4c-0.2-0.1-0.3-0.2-0.5-0.2
				c-0.4-0.2-0.8-0.2-1.3-0.1c-0.4,0.1-0.8,0.2-1.1,0.4v0.6h-6.9v-2.5c0-0.4,0-0.8,0.1-1.1c0.2-1,0.6-1.8,1.3-2.4
				c0.4-0.4,1-0.7,1.7-0.7c0.8,0,1.4,0.1,1.9,0.3c0.5,0.3,0.9,0.6,1.2,1c0.3,0.4,0.5,0.9,0.7,1.5
				C150.8,117.1,150.8,117.9,150.8,118.6"/>
		</g>
	</g>
</g>
<g>
	<g>
		<defs>
			<rect id="SVGID_9_" x="53.3" y="126.6" width="26.4" height="26.4"/>
		</defs>
		<clipPath id="SVGID_10_">
			<use xlink:href="#SVGID_9_"  style="overflow:visible;"/>
		</clipPath>
		<g class="st20">
			<defs>
				<rect id="SVGID_11_" x="53.3" y="126.6" width="26.4" height="26.4"/>
			</defs>
			<clipPath id="SVGID_12_">
				<use xlink:href="#SVGID_11_"  style="overflow:visible;"/>
			</clipPath>
			<path class="st2" d="M57.3,126.6h18.3c1.2,0.1,2,0.5,2.7,1.1c0.6,0.6,1.2,1.4,1.3,2.5c0.1,0.6,0,1.2,0,1.9v16.2
				c0,0.3,0,0.6,0,0.9c-0.1,1.1-0.6,2-1.2,2.6c-0.6,0.6-1.5,1.1-2.6,1.2c-0.6,0.1-1.2,0-1.9,0H58.8c-0.6,0-1.3,0-1.9,0
				c-1.1-0.1-1.9-0.7-2.5-1.3c-0.6-0.7-1-1.5-1.1-2.7v-18.3c0,0,0,0,0,0c0.1-1.2,0.6-2.1,1.2-2.8C55.2,127.1,56.1,126.6,57.3,126.6
				 M68.8,129.9c-0.3,0.4-0.9,0.4-1.5,0.6c-0.6,0.2-0.9,0.4-0.9,1.1c0,0.1,0,0.2,0,0.4c0.3-0.1,0.6-0.2,0.9-0.4
				c0.3-0.1,0.6-0.2,0.9-0.3c0.3-0.1,0.5-0.3,0.6-0.7c0.1-0.3,0.1-0.7,0.1-1.1C68.9,129.7,68.9,129.8,68.8,129.9 M67.2,133.8
				c0-0.2,0-0.3,0-0.4c0-0.3-0.3-0.6-0.8-0.5c-0.2,0-0.4,0.2-0.5,0.3c-0.1,0.2-0.1,0.5-0.1,0.7c0,0.5,0,1.1,0,1.6
				c-0.8,0-1.6,0-2.4,0c-0.2,0-0.5,0.1-0.6,0.2c-0.4,0.2-0.6,0.5-0.8,0.9c-0.1,0.4-0.1,1-0.1,1.5c0,0.3,0,0.5,0.1,0.8
				c0.1,0.2,0.1,0.4,0.3,0.5c0.2,0.3,0.6,0.5,1,0.6c0.3,0,0.5,0,0.8,0h4.9c0.3,0,0.6,0,0.8,0c0.5-0.1,0.8-0.3,1-0.6
				c0.1-0.2,0.2-0.3,0.3-0.5c0.1-0.2,0.1-0.5,0.1-0.8c0-0.5,0.1-1.1-0.1-1.5c-0.1-0.4-0.4-0.7-0.8-0.9c-0.2-0.1-0.4-0.2-0.6-0.2
				c-0.8,0-1.6,0-2.4,0C67.2,135,67.2,134.4,67.2,133.8 M60.4,141.7c-0.1,0.3-0.2,0.5-0.2,0.9v1.1c0,0.7,0.3,1.1,0.7,1.4
				c0.2,0.1,0.5,0.2,0.8,0.2c0.3,0,0.7,0,1.1,0c2.5,0,5,0,7.4,0c0.4,0,0.7,0,1.1,0c0.6,0,1.1-0.4,1.3-0.8c0.1-0.2,0.2-0.5,0.2-0.9
				c0-0.4,0-0.7,0-1.1c0-0.7-0.3-1.1-0.7-1.4c-0.2-0.1-0.5-0.2-0.8-0.2c-2.8,0-5.7,0-8.5,0c-0.4,0-0.7,0-1.1,0
				C61,140.9,60.6,141.2,60.4,141.7 M59,146.4c-0.2,0.2-0.4,0.5-0.5,0.8c-0.1,0.3,0,0.9,0,1.2c0,0.2,0,0.4,0,0.6
				c0,0.2,0.1,0.4,0.1,0.5c0.2,0.4,0.6,0.7,1.1,0.9c0.2,0,0.4,0,0.6,0c3.8,0,7.7,0,11.5,0c0.4,0,0.9,0,1.3,0
				c0.7-0.1,1.2-0.6,1.4-1.2c0.1-0.3,0-0.8,0-1.2c0-0.2,0-0.4,0-0.6c0-0.2-0.1-0.4-0.1-0.5c-0.2-0.4-0.6-0.7-1.1-0.9
				c-0.2,0-0.4,0-0.6,0c-3.8,0-7.7,0-11.5,0c-0.4,0-0.9,0-1.3,0C59.5,146.1,59.2,146.2,59,146.4"/>
			<path class="st27" d="M68.9,129.5c0,0.4,0,0.8-0.1,1.1c-0.1,0.3-0.3,0.5-0.6,0.7c-0.3,0.1-0.6,0.2-0.9,0.3
				c-0.3,0.1-0.6,0.3-0.9,0.4c0-0.1,0-0.2,0-0.4c0-0.7,0.4-1,0.9-1.1c0.5-0.2,1.2-0.2,1.5-0.6C68.9,129.8,68.9,129.7,68.9,129.5"/>
			<path class="st27" d="M67.2,135.6c0.8,0,1.6,0,2.4,0c0.2,0,0.5,0.1,0.6,0.2c0.4,0.2,0.6,0.5,0.8,0.9c0.1,0.4,0.1,1,0.1,1.5
				c0,0.3,0,0.5-0.1,0.8c-0.1,0.2-0.1,0.4-0.3,0.5c-0.2,0.3-0.6,0.5-1,0.6c-0.3,0-0.5,0-0.8,0h-4.9c-0.3,0-0.5,0-0.8,0
				c-0.5-0.1-0.8-0.3-1-0.6c-0.1-0.2-0.2-0.3-0.3-0.5c-0.1-0.2-0.1-0.5-0.1-0.8c0-0.6-0.1-1.1,0.1-1.5c0.1-0.4,0.4-0.7,0.8-0.9
				c0.2-0.1,0.4-0.2,0.6-0.2c0.8,0,1.6,0,2.4,0c0-0.5,0-1.1,0-1.6c0-0.3,0-0.6,0.1-0.7c0.1-0.2,0.3-0.3,0.5-0.3
				c0.4-0.1,0.7,0.2,0.8,0.5c0,0.1,0,0.3,0,0.4C67.2,134.4,67.2,135,67.2,135.6"/>
			<path class="st27" d="M61.7,140.8c0.3,0,0.7,0,1.1,0c2.8,0,5.7,0,8.5,0c0.4,0,0.6,0.1,0.8,0.2c0.4,0.3,0.7,0.7,0.7,1.4
				c0,0.4,0,0.7,0,1.1c0,0.4,0,0.7-0.2,0.9c-0.2,0.4-0.7,0.8-1.3,0.8c-0.4,0-0.7,0-1.1,0c-2.5,0-5,0-7.4,0c-0.4,0-0.7,0-1.1,0
				c-0.3,0-0.6-0.1-0.8-0.2c-0.4-0.3-0.7-0.7-0.7-1.4v-1.1c0-0.4,0-0.6,0.2-0.9C60.6,141.2,61,140.9,61.7,140.8"/>
			<path class="st27" d="M59.9,146c0.4,0,0.9,0,1.3,0c3.8,0,7.7,0,11.5,0c0.2,0,0.4,0,0.6,0c0.5,0.1,0.9,0.4,1.1,0.9
				c0.1,0.1,0.1,0.3,0.1,0.5c0,0.2,0,0.4,0,0.6c0,0.4,0,0.9,0,1.2c-0.1,0.6-0.6,1.1-1.4,1.2c-0.4,0-0.8,0-1.3,0c-3.8,0-7.7,0-11.5,0
				c-0.2,0-0.4,0-0.6,0c-0.5-0.1-0.8-0.4-1.1-0.9c-0.1-0.1-0.1-0.3-0.1-0.5c0-0.2,0-0.4,0-0.6c0-0.4,0-0.9,0-1.2
				c0.1-0.3,0.2-0.6,0.5-0.8C59.2,146.2,59.5,146.1,59.9,146 M60.5,148c0,0.1,0,0.1-0.1,0.2c0,0.4,0.2,0.7,0.6,0.7
				c0.5,0,0.8-0.5,0.6-0.9c-0.1-0.2-0.3-0.4-0.6-0.3C60.7,147.6,60.6,147.8,60.5,148 M63.4,147.7c-0.2,0.2-0.3,0.5-0.2,0.8
				c0.1,0.2,0.3,0.3,0.6,0.3c0.3,0,0.6-0.3,0.6-0.6c0-0.4-0.3-0.7-0.7-0.6C63.6,147.6,63.5,147.7,63.4,147.7 M65.9,148.3
				c0,0.2,0.2,0.4,0.3,0.5c0.4,0.2,0.9-0.1,0.9-0.5c0-0.4-0.3-0.7-0.7-0.7C66.1,147.7,65.8,147.9,65.9,148.3 M68.8,147.8
				c-0.1,0.1-0.2,0.2-0.2,0.4c0,0.4,0.3,0.6,0.6,0.6c0.4,0,0.7-0.3,0.7-0.6c0-0.1-0.1-0.3-0.1-0.4c-0.1-0.1-0.3-0.3-0.6-0.2
				C69,147.6,68.8,147.7,68.8,147.8 M71.7,147.7c-0.2,0.1-0.4,0.3-0.4,0.6c0,0.2,0.2,0.4,0.3,0.5c0.4,0.2,1-0.1,0.9-0.6
				c0-0.3-0.3-0.6-0.7-0.5C71.8,147.6,71.7,147.6,71.7,147.7"/>
			<path class="st2" d="M61,147.6c0.3,0,0.5,0.1,0.6,0.3c0.2,0.5-0.1,1-0.6,0.9c-0.3,0-0.6-0.3-0.6-0.7c0-0.1,0-0.1,0.1-0.2
				C60.6,147.8,60.7,147.6,61,147.6"/>
			<path class="st2" d="M63.7,147.6c0.4,0,0.7,0.2,0.7,0.6c0,0.4-0.3,0.6-0.6,0.6c-0.3,0-0.5-0.1-0.6-0.3c-0.2-0.3-0.1-0.7,0.2-0.8
				C63.5,147.7,63.6,147.6,63.7,147.6"/>
			<path class="st2" d="M66.4,147.6c0.4,0,0.7,0.2,0.7,0.7c0,0.4-0.5,0.7-0.9,0.5c-0.2-0.1-0.3-0.3-0.3-0.5
				C65.8,147.9,66.1,147.7,66.4,147.6"/>
			<path class="st2" d="M69.1,147.6c0.3,0,0.5,0.1,0.6,0.2c0.1,0.1,0.1,0.2,0.1,0.4c0,0.4-0.3,0.7-0.7,0.6c-0.3,0-0.6-0.3-0.6-0.6
				c0-0.2,0.1-0.3,0.2-0.4C68.8,147.7,69,147.6,69.1,147.6"/>
			<path class="st2" d="M71.9,147.6c0.4,0,0.7,0.2,0.7,0.5c0,0.5-0.5,0.8-0.9,0.6c-0.2-0.1-0.3-0.3-0.3-0.5c0-0.3,0.2-0.6,0.4-0.6
				C71.7,147.6,71.8,147.6,71.9,147.6"/>
		</g>
	</g>
</g>
<g>
	<g>
		<defs>
			<rect id="SVGID_13_" x="53.3" y="26.1" width="26.4" height="26.4"/>
		</defs>
		<clipPath id="SVGID_14_">
			<use xlink:href="#SVGID_13_"  style="overflow:visible;"/>
		</clipPath>
		<g class="st21">
			<defs>
				<rect id="SVGID_15_" x="53.3" y="26.1" width="26.4" height="26.4"/>
			</defs>
			<clipPath id="SVGID_16_">
				<use xlink:href="#SVGID_15_"  style="overflow:visible;"/>
			</clipPath>
			<path class="st13" d="M57.3,26.1h18.3c1.2,0.1,2,0.5,2.7,1.1c0.6,0.6,1.2,1.4,1.3,2.5c0.1,0.6,0,1.2,0,1.9v16.2
				c0,0.3,0,0.6,0,0.9c-0.1,1.1-0.6,2-1.2,2.6c-0.6,0.6-1.5,1.1-2.6,1.2c-0.6,0.1-1.2,0-1.9,0H58.8c-0.6,0-1.3,0-1.9,0
				c-1.1-0.1-1.9-0.7-2.5-1.3c-0.6-0.7-1-1.5-1.1-2.7V30.1c0,0,0,0,0,0c0.1-1.2,0.6-2.1,1.2-2.8C55.2,26.7,56.1,26.2,57.3,26.1
				 M73.6,38.1c0.1-0.7-0.4-1.1-0.7-1.4c-0.4-0.4-0.7-0.7-1.1-1.1c-1.1-1.1-2.1-2.2-3.2-3.4c-0.3-0.4-0.7-0.7-1.1-1.1
				c-0.2-0.2-0.3-0.4-0.6-0.5c-0.2-0.2-0.5-0.3-0.9-0.2c-0.6,0.1-0.9,0.5-1.3,0.8c-0.3,0.4-0.7,0.7-1,1.1c-0.7,0.7-1.4,1.5-2.1,2.2
				c-0.4,0.4-0.7,0.7-1,1.1c-0.3,0.4-0.7,0.7-1,1.1C59.4,37,59,37.3,59,38c0,0.3,0.1,0.6,0.3,0.8c0.2,0.2,0.4,0.4,0.7,0.4
				c0,0.5,0,1,0,1.5V48c0,0.3,0,0.5,0,0.7c0,0.2,0.1,0.4,0.1,0.6c0.2,0.3,0.4,0.6,0.8,0.7c0.3,0.1,0.9,0.1,1.3,0.1
				c0.3,0,0.5,0,0.7,0c0.2,0,0.4-0.1,0.5-0.2c0.3-0.2,0.5-0.4,0.6-0.8c0.1-0.2,0-0.4,0-0.7c0-0.7,0-1.4,0-2.2c0-0.3,0-0.5,0-0.7
				c0-0.6,0.4-1.1,0.9-1.3c0.2-0.1,0.4-0.1,0.6-0.1c0.2,0,0.5,0,0.7,0c0.5,0,1,0,1.3,0.1c0.4,0.2,0.8,0.7,0.9,1.3c0,0.9,0,1.9,0,2.9
				c0,0.2,0,0.5,0.1,0.7c0.1,0.4,0.3,0.6,0.6,0.8c0.1,0.1,0.3,0.2,0.5,0.2c0.2,0,0.4,0,0.7,0c0.2,0,0.5,0,0.7,0c0.2,0,0.4,0,0.6-0.1
				c0.5-0.2,0.9-0.6,0.9-1.3c0-0.2,0-0.5,0-0.7c0-2.9,0-5.8,0-8.6C73.2,39.1,73.6,38.7,73.6,38.1 M73.3,33.3
				c0.1-0.1,0.3-0.3,0.5-0.5c0.1-0.2,0.3-0.4,0.3-0.6c0-0.4-0.1-0.7-0.4-0.9c-0.2-0.2-0.4-0.3-0.8-0.3c-0.3,0-0.5,0.1-0.6,0.3
				c-0.4,0.4-0.8,0.8-1.3,1.3c0,0-0.1,0.1-0.1,0.1c0,0,0.1,0.1,0.1,0.1c0.5,0.5,0.9,0.9,1.4,1.4C72.7,33.9,73,33.6,73.3,33.3"/>
			<path class="st7" d="M72.6,39.3c0,2.9,0,5.8,0,8.6c0,0.3,0,0.5,0,0.7c0,0.6-0.4,1.1-0.9,1.3C71.6,50,71.4,50,71.1,50
				c-0.2,0-0.5,0-0.7,0c-0.3,0-0.5,0-0.7,0c-0.2,0-0.4-0.1-0.5-0.2c-0.3-0.2-0.5-0.4-0.6-0.8c-0.1-0.2-0.1-0.4-0.1-0.7
				c0-0.9,0-1.9,0-2.9c0-0.6-0.4-1.1-0.9-1.3c-0.3-0.2-0.8-0.1-1.3-0.1c-0.2,0-0.5,0-0.7,0c-0.2,0-0.4,0.1-0.6,0.1
				c-0.5,0.2-0.8,0.6-0.9,1.3c0,0.2,0,0.5,0,0.7c0,0.7,0,1.4,0,2.2c0,0.3,0,0.5,0,0.7c-0.1,0.4-0.3,0.6-0.6,0.8
				c-0.1,0.1-0.3,0.2-0.5,0.2c-0.2,0-0.4,0-0.7,0c-0.5,0-1,0-1.3-0.1c-0.3-0.1-0.6-0.4-0.8-0.7C60,49.1,60,48.9,60,48.7
				c0-0.2,0-0.5,0-0.7v-7.2c0-0.5,0-1,0-1.5c-0.3-0.1-0.5-0.2-0.7-0.4C59.1,38.6,59,38.4,59,38c0-0.7,0.4-1,0.7-1.4
				c0.3-0.4,0.7-0.7,1-1.1c0.3-0.4,0.7-0.7,1-1.1c0.7-0.7,1.4-1.5,2.1-2.2c0.3-0.4,0.7-0.7,1-1.1c0.3-0.4,0.6-0.8,1.3-0.8
				c0.3,0,0.7,0.1,0.9,0.2c0.2,0.1,0.4,0.4,0.6,0.5c0.4,0.4,0.7,0.7,1.1,1.1c1.1,1.1,2.1,2.2,3.2,3.4c0.3,0.4,0.7,0.7,1.1,1.1
				c0.4,0.4,0.8,0.7,0.7,1.4C73.6,38.7,73.2,39.1,72.6,39.3"/>
			<path class="st7" d="M72.3,34.2c-0.5-0.5-0.9-0.9-1.4-1.4c0,0-0.1-0.1-0.1-0.1c0,0,0.1-0.1,0.1-0.1c0.4-0.4,0.8-0.9,1.3-1.3
				c0.2-0.2,0.4-0.3,0.6-0.3c0.3,0,0.6,0.1,0.8,0.3c0.2,0.2,0.4,0.5,0.4,0.9c0,0.3-0.1,0.5-0.3,0.6c-0.1,0.2-0.3,0.3-0.5,0.5
				C73,33.6,72.7,33.9,72.3,34.2"/>
		</g>
	</g>
</g>
<g>
	<g>
		<defs>
			<rect id="SVGID_17_" x="17.9" y="56" width="26.4" height="26.4"/>
		</defs>
		<clipPath id="SVGID_18_">
			<use xlink:href="#SVGID_17_"  style="overflow:visible;"/>
		</clipPath>
		<rect x="26.1" y="59" class="st15" width="10.2" height="21.2"/>
		<g class="st22">
			<defs>
				<rect id="SVGID_19_" x="17.9" y="56" width="26.4" height="26.4"/>
			</defs>
			<clipPath id="SVGID_20_">
				<use xlink:href="#SVGID_19_"  style="overflow:visible;"/>
			</clipPath>
			<path class="st26" d="M21.9,56h18.3c1.2,0.1,2,0.5,2.7,1.1c0.6,0.6,1.2,1.4,1.3,2.5c0.1,0.6,0,1.2,0,1.9v16.2c0,0.3,0,0.6,0,0.9
				c-0.1,1.1-0.6,2-1.2,2.6c-0.6,0.6-1.5,1.1-2.6,1.2c-0.6,0.1-1.2,0-1.9,0H23.4c-0.6,0-1.3,0-1.9,0c-1.1-0.1-1.9-0.7-2.5-1.3
				c-0.6-0.7-1-1.5-1.1-2.7V60c0,0,0,0,0,0c0.1-1.2,0.6-2.1,1.2-2.8C19.8,56.5,20.7,56.1,21.9,56 M30.9,59.5
				c-0.7,0.3-1.2,0.9-1.5,1.6c-0.2,0.4-0.3,0.8-0.3,1.3c0,0.7,0.3,1.3,0.6,1.8c0.3,0.5,0.8,0.8,1.3,1.1c0.4,0.2,0.8,0.3,1.3,0.3
				c1,0,1.7-0.4,2.2-1c0.3-0.3,0.5-0.6,0.6-0.9c0.2-0.4,0.3-0.8,0.3-1.3c0-1-0.4-1.7-1-2.2c-0.3-0.3-0.6-0.5-0.9-0.6
				c-0.4-0.2-0.8-0.3-1.3-0.3C31.7,59.2,31.3,59.3,30.9,59.5 M35.5,70.1c0-0.3,0-0.6,0-0.9c0-0.8-0.4-1.4-0.8-1.9
				c-0.3-0.3-0.6-0.6-1.1-0.7c-0.4-0.2-1-0.2-1.6-0.2c-0.5,0-1,0.2-1.3,0.4c-0.7,0.4-1.2,1.1-1.4,2c-0.1,0.5-0.1,1.1-0.1,1.6
				c0,2.2,0,4.6,0,6.8h6.2C35.5,74.9,35.5,72.5,35.5,70.1 M27.4,69.6c-0.2,0-0.3,0-0.5,0c-0.2,0-0.4,0.3-0.3,0.5
				c0,0.1,0.1,0.2,0.2,0.2c0.1,0,0.3,0,0.5,0c0.5,0,1,0,1.4,0v-0.7C28.4,69.6,27.9,69.6,27.4,69.6 M26.8,70.5c0,2.9,0,5.8,0,8.6
				c0,0.2,0,0.4,0,0.6c0,0.1,0.1,0.2,0.3,0.2c0.2,0,0.3-0.1,0.4-0.2c0-0.1,0-0.4,0-0.6c0-2.9,0-5.8,0-8.6L26.8,70.5
				C26.8,70.4,26.8,70.4,26.8,70.5 M31.2,77.8c0,0.5,0,1,0,1.4c0,0.2,0,0.3,0,0.5c0.1,0.2,0.3,0.3,0.5,0.2c0.1,0,0.2-0.1,0.2-0.2
				c0-0.1,0-0.3,0-0.5c0-0.5,0-1,0-1.5L31.2,77.8C31.2,77.8,31.2,77.8,31.2,77.8 M32.8,77.8c0,0.4,0,0.9,0,1.4c0,0.2,0,0.3,0,0.5
				c0,0.1,0.1,0.2,0.2,0.2c0.2,0.1,0.4,0,0.4-0.2c0-0.1,0-0.3,0-0.5c0-0.5,0-1,0-1.5L32.8,77.8C32.8,77.8,32.8,77.8,32.8,77.8"/>
			<path class="st14" d="M32.2,59.2c0.5,0,1,0.1,1.3,0.3c0.4,0.2,0.7,0.4,0.9,0.6c0.5,0.5,0.9,1.2,1,2.2c0,0.5-0.1,0.9-0.3,1.3
				c-0.2,0.4-0.4,0.7-0.6,0.9c-0.5,0.5-1.2,0.9-2.2,1c-0.5,0-1-0.1-1.3-0.3c-0.6-0.2-1-0.6-1.3-1.1c-0.3-0.5-0.6-1-0.6-1.8
				c0-0.5,0.1-1,0.3-1.3c0.3-0.7,0.8-1.3,1.5-1.6C31.3,59.3,31.7,59.2,32.2,59.2"/>
			<path class="st14" d="M35.5,77.3h-6.2c0-2.2,0-4.5,0-6.8c0-0.6,0-1.2,0.1-1.6c0.2-0.9,0.7-1.6,1.4-2c0.3-0.2,0.8-0.4,1.3-0.4
				c0.6,0,1.2,0,1.6,0.2c0.4,0.2,0.8,0.4,1.1,0.7c0.4,0.4,0.8,1,0.8,1.9c0,0.3,0,0.6,0,0.9C35.5,72.5,35.5,74.9,35.5,77.3"/>
			<path class="st14" d="M28.8,69.6v0.7c-0.4,0-1,0-1.4,0c-0.2,0-0.3,0-0.5,0c-0.1,0-0.2-0.1-0.2-0.2c-0.1-0.2,0.1-0.5,0.3-0.5
				c0.1,0,0.3,0,0.5,0C27.9,69.6,28.4,69.6,28.8,69.6"/>
			<path class="st14" d="M26.8,70.4h0.7c0,2.8,0,5.7,0,8.6c0,0.2,0,0.4,0,0.6c0,0.1-0.2,0.3-0.4,0.2c-0.1,0-0.2-0.1-0.3-0.2
				c-0.1-0.1,0-0.4,0-0.6C26.8,76.2,26.8,73.3,26.8,70.4C26.8,70.4,26.8,70.4,26.8,70.4"/>
			<path class="st14" d="M31.2,77.8h0.7c0,0.5,0,1,0,1.5c0,0.2,0,0.3,0,0.5c0,0.1-0.1,0.2-0.2,0.2c-0.2,0.1-0.4,0-0.5-0.2
				c0-0.1,0-0.3,0-0.5C31.2,78.7,31.2,78.2,31.2,77.8C31.2,77.8,31.2,77.8,31.2,77.8"/>
			<path class="st14" d="M32.8,77.8h0.7c0,0.5,0,1,0,1.5c0,0.2,0,0.4,0,0.5c-0.1,0.2-0.3,0.3-0.4,0.2c-0.1,0-0.2-0.1-0.2-0.2
				c0-0.1,0-0.3,0-0.5C32.8,78.7,32.8,78.2,32.8,77.8C32.8,77.8,32.8,77.8,32.8,77.8"/>
		</g>
	</g>
</g>
<g>
	<g>
		<defs>
			<rect id="SVGID_21_" x="100.2" y="26.1" width="26.4" height="26.4"/>
		</defs>
		<clipPath id="SVGID_22_">
			<use xlink:href="#SVGID_21_"  style="overflow:visible;"/>
		</clipPath>
		<rect x="105.4" y="30.6" class="st29" width="16.6" height="19.8"/>
		<g class="st23">
			<defs>
				<rect id="SVGID_23_" x="100.2" y="26.1" width="26.4" height="26.4"/>
			</defs>
			<clipPath id="SVGID_24_">
				<use xlink:href="#SVGID_23_"  style="overflow:visible;"/>
			</clipPath>
			<path class="st28" d="M104.2,26.1L104.2,26.1L104.2,26.1C104.3,26.1,104.2,26.1,104.2,26.1"/>
			<path class="st6" d="M104.3,26.1h18.2c0,0,0.1,0,0.1,0c1.2,0.1,2,0.5,2.7,1.1c0,0,0,0,0.1,0.1c0,0,0.1,0.1,0.1,0.1
				c0,0,0,0,0.1,0.1c0.6,0.7,1,1.5,1.1,2.7c0,0,0,0.1,0,0.1v18.2c0,0,0,0.1,0,0.1c-0.1,1.2-0.5,2-1.1,2.7c0,0,0,0-0.1,0.1
				c0,0-0.1,0.1-0.1,0.1c0,0,0,0-0.1,0.1c-0.7,0.6-1.5,1-2.7,1.1c0,0-0.1,0-0.1,0h-18.2c0,0-0.1,0-0.1,0c-1.2-0.1-2-0.5-2.7-1.1
				c0,0,0,0-0.1-0.1c0,0-0.1-0.1-0.1-0.1c0,0,0,0-0.1-0.1c-0.6-0.7-1-1.5-1.1-2.7c0,0,0-0.1,0-0.1V30.2c0,0,0-0.1,0-0.1
				c0.1-1.2,0.5-2,1.1-2.7c0,0,0,0,0.1-0.1c0,0,0.1-0.1,0.1-0.1c0,0,0,0,0.1-0.1C102.2,26.6,103,26.2,104.3,26.1
				C104.2,26.1,104.3,26.1,104.3,26.1 M107.3,31.2c-0.2,0-0.3,0.1-0.4,0.2c0,0,0,0-0.1,0.1c-0.2,0.2-0.3,0.5-0.3,0.8
				c0,5.4,0,10.9,0,16.3c0,0,0,0,0,0.1c0,0.2,0.1,0.4,0.2,0.6c0.1,0.1,0.3,0.3,0.5,0.3c0.1,0,0.3,0,0.4,0h4.5c0.2,0,0.4-0.1,0.6-0.2
				c0.2-0.1,0.3-0.3,0.4-0.5c0.1-0.2,0.1-0.4,0.1-0.7c0-1.4,0-2.7,0-4.1c0,0,0,0,0-0.1c0.1-0.6,0.4-1,1.1-1.1c0,0,0.1,0,0.1,0h1.6
				c0,0,0,0,0.1,0c0.6,0.1,1,0.4,1.1,1.1c0,0,0,0,0,0.1v4.4c0,0,0,0.1,0,0.1c0,0.3,0.1,0.6,0.3,0.8c0,0,0.1,0.1,0.1,0.1
				c0.1,0.1,0.3,0.1,0.5,0.1h1.3c0.2,0,0.4,0,0.5-0.2c0,0,0.1-0.1,0.1-0.1c0.1-0.2,0.3-0.4,0.3-0.7c0-5.4,0-10.9,0-16.4
				c0-0.5-0.2-0.9-0.7-1C115.4,31.2,111.3,31.2,107.3,31.2"/>
			<path class="st28" d="M122.5,26.1L122.5,26.1L122.5,26.1C122.5,26.1,122.5,26.1,122.5,26.1"/>
			<path class="st28" d="M100.2,30.1L100.2,30.1C100.2,30.1,100.2,30.2,100.2,30.1L100.2,30.1z"/>
			<path class="st28" d="M126.6,30.1C126.6,30.1,126.6,30.2,126.6,30.1C126.6,30.2,126.6,30.2,126.6,30.1"/>
			<path class="st28" d="M107.3,31.2c4,0,8.1,0,12.1,0H107.3z"/>
			<path class="st28" d="M120.1,32.2c0,5.4,0,10.9,0,16.4V32.2z"/>
			<path class="st6" d="M109,33c0.3,0,0.6,0,0.8,0c0.5,0,0.9,0.3,0.9,0.7c0,0.2,0,0.5,0,0.8c0,0.5,0,1.1,0,1.7
				c0,0.5-0.3,0.8-0.8,0.8c-0.3,0-0.5,0-0.8,0c-0.3,0-0.5-0.1-0.6-0.2c-0.2-0.1-0.3-0.3-0.3-0.5c0-0.2,0-0.5,0-0.8
				c0-0.5,0-1.2,0-1.7C108.2,33.4,108.6,33,109,33"/>
			<path class="st6" d="M112.7,33c0.3,0,0.6,0,0.8,0c0.5,0,0.9,0.3,0.9,0.7c0,0.2,0,0.5,0,0.8c0,0.5,0,1.1,0,1.7
				c0,0.5-0.3,0.8-0.8,0.8c-0.3,0-0.5,0-0.8,0c-0.3,0-0.5-0.1-0.6-0.2c-0.2-0.1-0.3-0.3-0.3-0.5c0-0.2,0-0.5,0-0.8
				c0-0.5,0-1.2,0-1.7C111.9,33.4,112.2,33,112.7,33"/>
			<path class="st6" d="M116.4,33c0.3,0,0.6,0,0.8,0c0.5,0,0.9,0.3,0.9,0.7c0,0.2,0,0.5,0,0.8c0,0.5,0,1.1,0,1.7
				c0,0.5-0.3,0.8-0.8,0.8c-0.3,0-0.5,0-0.8,0c-0.3,0-0.5-0.1-0.6-0.2c-0.2-0.1-0.3-0.3-0.3-0.5c0-0.2,0-0.5,0-0.8
				c0-0.5,0-1.2,0-1.7C115.6,33.4,116,33,116.4,33"/>
			<path class="st6" d="M109,37.7c0.3,0,0.6,0,0.8,0c0.5,0,0.9,0.3,0.9,0.7c0,0.2,0,0.5,0,0.8c0,0.5,0,1.1,0,1.7
				c0,0.5-0.3,0.8-0.8,0.8c-0.3,0-0.5,0-0.8,0c-0.3,0-0.5-0.1-0.6-0.2c-0.2-0.1-0.3-0.3-0.3-0.5c0-0.2,0-0.5,0-0.8
				c0-0.5,0-1.2,0-1.6C108.2,38.1,108.5,37.7,109,37.7"/>
			<path class="st6" d="M112.7,37.7c0.3,0,0.6,0,0.8,0c0.5,0,0.9,0.3,0.9,0.7c0,0.2,0,0.5,0,0.8c0,0.5,0,1.1,0,1.7
				c0,0.5-0.3,0.8-0.8,0.8c-0.3,0-0.5,0-0.8,0c-0.3,0-0.5-0.1-0.6-0.2c-0.2-0.1-0.3-0.3-0.3-0.5c0-0.2,0-0.5,0-0.8
				c0-0.5,0-1.2,0-1.6C111.9,38.1,112.3,37.7,112.7,37.7"/>
			<path class="st6" d="M116.4,37.7c0.3,0,0.6,0,0.8,0c0.5,0,0.9,0.3,0.9,0.7c0,0.2,0,0.5,0,0.8c0,0.5,0,1.1,0,1.7
				c0,0.5-0.3,0.8-0.8,0.8c-0.3,0-0.5,0-0.8,0c-0.3,0-0.5-0.1-0.6-0.2c-0.2-0.1-0.3-0.3-0.3-0.5c0-0.2,0-0.5,0-0.8
				c0-0.5,0-1.2,0-1.6C115.6,38.1,116,37.7,116.4,37.7"/>
			<path class="st28" d="M114.3,43C114.3,42.9,114.3,43,114.3,43C114.3,43,114.3,42.9,114.3,43"/>
			<path class="st28" d="M115.9,42.9C115.9,43,116,42.9,115.9,42.9C115.9,42.9,115.9,43,115.9,42.9"/>
			<path class="st28" d="M113.2,44C113.2,44,113.2,44.1,113.2,44C113.2,44,113.2,44,113.2,44"/>
			<path class="st28" d="M117,44C117,44,117,44,117,44C117,44.1,117,44,117,44"/>
			<path class="st28" d="M126.6,48.4C126.6,48.4,126.6,48.5,126.6,48.4C126.6,48.4,126.6,48.4,126.6,48.4"/>
			<path class="st28" d="M100.2,48.4C100.2,48.4,100.2,48.4,100.2,48.4L100.2,48.4L100.2,48.4z"/>
			<path class="st28" d="M117,48.4C117,48.4,117,48.5,117,48.4C117,48.5,117,48.5,117,48.4"/>
			<path class="st28" d="M106.6,48.5C106.6,48.5,106.6,48.6,106.6,48.5C106.6,48.6,106.6,48.6,106.6,48.5"/>
			<path class="st28" d="M104.2,52.5C104.2,52.5,104.3,52.5,104.2,52.5C104.3,52.5,104.2,52.5,104.2,52.5"/>
			<path class="st28" d="M122.5,52.5C122.5,52.5,122.5,52.5,122.5,52.5C122.5,52.5,122.5,52.5,122.5,52.5"/>
			<path class="st28" d="M101.5,27.3C101.5,27.2,101.5,27.2,101.5,27.3C101.5,27.2,101.5,27.2,101.5,27.3"/>
			<path class="st28" d="M101.3,27.5C101.3,27.4,101.3,27.4,101.3,27.5C101.3,27.4,101.3,27.4,101.3,27.5"/>
			<path class="st28" d="M125.2,27.2C125.2,27.2,125.3,27.2,125.2,27.2C125.3,27.2,125.2,27.2,125.2,27.2"/>
			<path class="st28" d="M125.4,27.4C125.4,27.4,125.5,27.4,125.4,27.4C125.5,27.4,125.4,27.4,125.4,27.4"/>
			<path class="st28" d="M125.4,51.2C125.4,51.2,125.5,51.2,125.4,51.2C125.5,51.2,125.4,51.2,125.4,51.2"/>
			<path class="st28" d="M125.2,51.4C125.2,51.4,125.3,51.3,125.2,51.4C125.3,51.4,125.2,51.4,125.2,51.4"/>
			<path class="st28" d="M101.5,51.3C101.5,51.3,101.5,51.4,101.5,51.3C101.5,51.4,101.5,51.4,101.5,51.3"/>
			<path class="st28" d="M101.3,51.1C101.3,51.2,101.3,51.2,101.3,51.1C101.3,51.2,101.3,51.2,101.3,51.1"/>
			<path class="st28" d="M106.9,31.5C106.9,31.5,106.9,31.4,106.9,31.5C106.9,31.4,106.9,31.5,106.9,31.5"/>
			<path class="st4" d="M117,44c-0.1-0.6-0.4-1-1.1-1.1c0,0,0,0-0.1,0h-1.6c0,0-0.1,0-0.1,0c-0.6,0.1-1,0.4-1.1,1.1c0,0,0,0,0,0.1
				c0,1.3,0,2.7,0,4.1c0,0.3,0,0.5-0.1,0.7c-0.1,0.2-0.2,0.3-0.4,0.5c-0.1,0.1-0.3,0.2-0.6,0.2h-4.5c-0.1,0-0.3,0-0.4,0
				c-0.2,0-0.4-0.2-0.5-0.3c-0.1-0.2-0.2-0.4-0.2-0.6c0,0,0,0,0-0.1c0-5.4,0-10.8,0-16.3c0-0.3,0.1-0.6,0.3-0.8c0,0,0,0,0.1-0.1
				c0.1-0.1,0.2-0.2,0.4-0.2h12.1c0.5,0.1,0.7,0.5,0.7,1v16.4c0,0.3-0.1,0.5-0.3,0.7c0,0-0.1,0.1-0.1,0.1c-0.1,0.1-0.3,0.2-0.5,0.2
				h-1.3c-0.2,0-0.4,0-0.5-0.1c0,0-0.1-0.1-0.1-0.1c-0.2-0.2-0.3-0.5-0.3-0.8c0,0,0-0.1,0-0.1L117,44C117,44,117,44,117,44
				 M108.2,33.9c0,0.5,0,1.2,0,1.7c0,0.3,0,0.6,0,0.8c0,0.2,0.2,0.4,0.3,0.5c0.2,0.1,0.4,0.2,0.6,0.2c0.3,0,0.5,0,0.8,0
				c0.5,0,0.8-0.4,0.8-0.8c0-0.6,0-1.1,0-1.7c0-0.3,0-0.6,0-0.8c-0.1-0.4-0.4-0.7-0.9-0.7c-0.3,0-0.6,0-0.8,0
				C108.6,33,108.2,33.4,108.2,33.9 M111.9,33.9c0,0.5,0,1.2,0,1.7c0,0.3,0,0.6,0,0.8c0,0.2,0.2,0.4,0.3,0.5
				c0.2,0.1,0.4,0.2,0.6,0.2c0.3,0,0.5,0,0.8,0c0.5,0,0.8-0.4,0.8-0.8c0-0.6,0-1.1,0-1.7c0-0.3,0-0.6,0-0.8
				c-0.1-0.4-0.4-0.7-0.9-0.7c-0.3,0-0.6,0-0.8,0C112.2,33,111.9,33.4,111.9,33.9 M115.6,33.9c0,0.5,0,1.2,0,1.7c0,0.3,0,0.6,0,0.8
				c0,0.2,0.2,0.4,0.3,0.5c0.2,0.1,0.4,0.2,0.6,0.2c0.3,0,0.5,0,0.8,0c0.5,0,0.8-0.4,0.8-0.8c0-0.6,0-1.1,0-1.7c0-0.3,0-0.6,0-0.8
				c-0.1-0.4-0.4-0.7-0.9-0.7c-0.3,0-0.6,0-0.8,0C116,33,115.6,33.4,115.6,33.9 M108.2,38.5c0,0.5,0,1.2,0,1.6c0,0.3,0,0.6,0,0.8
				c0,0.2,0.2,0.4,0.3,0.5c0.2,0.1,0.4,0.2,0.6,0.2c0.3,0,0.5,0,0.8,0c0.5,0,0.8-0.4,0.8-0.8c0-0.6,0-1.1,0-1.7c0-0.3,0-0.6,0-0.8
				c-0.1-0.4-0.4-0.7-0.9-0.7c-0.3,0-0.6,0-0.8,0C108.5,37.7,108.2,38.1,108.2,38.5 M111.9,38.5c0,0.5,0,1.2,0,1.6
				c0,0.3,0,0.6,0,0.8c0,0.2,0.2,0.4,0.3,0.5c0.2,0.1,0.4,0.2,0.6,0.2c0.3,0,0.5,0,0.8,0c0.5,0,0.8-0.4,0.8-0.8c0-0.6,0-1.1,0-1.7
				c0-0.3,0-0.6,0-0.8c-0.1-0.4-0.4-0.7-0.9-0.7c-0.3,0-0.6,0-0.8,0C112.3,37.7,111.9,38.1,111.9,38.5 M115.6,38.5
				c0,0.5,0,1.2,0,1.6c0,0.3,0,0.6,0,0.8c0,0.2,0.2,0.4,0.3,0.5c0.2,0.1,0.4,0.2,0.6,0.2c0.3,0,0.5,0,0.8,0c0.5,0,0.8-0.4,0.8-0.8
				c0-0.6,0-1.1,0-1.7c0-0.3,0-0.6,0-0.8c-0.1-0.4-0.4-0.7-0.9-0.7c-0.3,0-0.6,0-0.8,0C116,37.7,115.6,38.1,115.6,38.5"/>
			<path class="st28" d="M117.3,49.3C117.4,49.3,117.4,49.4,117.3,49.3C117.4,49.4,117.4,49.3,117.3,49.3"/>
			<path class="st28" d="M119.8,49.4C119.8,49.3,119.8,49.3,119.8,49.4C119.8,49.3,119.8,49.3,119.8,49.4"/>
		</g>
	</g>
</g>
<g>
	<g>
		<defs>
			<rect id="SVGID_25_" x="100.2" y="126.6" width="26.4" height="26.4"/>
		</defs>
		<clipPath id="SVGID_26_">
			<use xlink:href="#SVGID_25_"  style="overflow:visible;"/>
		</clipPath>
		<rect x="101.3" y="136.5" class="st10" width="24.1" height="14.2"/>
		<g class="st24">
			<defs>
				<rect id="SVGID_27_" x="100.2" y="126.6" width="26.4" height="26.4"/>
			</defs>
			<clipPath id="SVGID_28_">
				<use xlink:href="#SVGID_27_"  style="overflow:visible;"/>
			</clipPath>
			<path class="st30" d="M104.2,126.6h18.4c0.6,0.1,1.1,0.2,1.6,0.4c0.9,0.4,1.6,1.1,2,2c0.2,0.5,0.4,1,0.4,1.6v18.2
				c-0.1,1.3-0.6,2.2-1.2,2.9c-0.7,0.7-1.6,1.2-2.9,1.2h-18.2c-1.3-0.1-2.2-0.6-2.8-1.2c-0.7-0.7-1.2-1.5-1.3-2.8v-18.4
				c0-0.1,0-0.2,0-0.2c0.1-1.1,0.6-1.9,1.2-2.5C102.1,127.1,103,126.7,104.2,126.6 M118,138.5c-0.5-0.5-1.1-0.9-1.9-1.2
				c-0.7-0.3-1.6-0.5-2.6-0.5c-0.2,0-0.5,0-0.7,0.1c-0.7,0.1-1.2,0.3-1.7,0.5c-0.7,0.3-1.3,0.7-1.8,1.2c-1,1-1.7,2.3-1.9,4.1
				c-0.6,0-1.1,0-1.7,0c-0.6,0-1.2-0.1-1.6,0.1c-0.4,0.2-0.7,0.5-0.9,0.8c-0.1,0.2-0.1,0.4-0.1,0.7c0,0.8,0,1.7,0,2.5
				c0,0.3,0,0.6,0.1,0.8c0.1,0.2,0.2,0.4,0.3,0.6c0.3,0.3,0.6,0.5,1.1,0.6c0.3,0,0.6,0,0.8,0c0.3,0,0.6,0,0.9,0c0-0.5,0-0.8,0.2-1.2
				c0.1-0.3,0.3-0.6,0.5-0.8c0.2-0.2,0.5-0.4,0.8-0.6c0.3-0.1,0.7-0.3,1.1-0.2c0.4,0,0.8,0.1,1.1,0.3c0.3,0.2,0.6,0.3,0.8,0.6
				c0.4,0.5,0.7,1.1,0.7,2h4c-0.1-0.9,0.2-1.5,0.7-2c0.4-0.4,1-0.8,1.9-0.8c0.6,0,1.1,0.2,1.5,0.5c0.6,0.5,1.1,1.2,1,2.3
				c0.7,0.1,1.2-0.1,1.5-0.5c0.3-0.3,0.5-0.8,0.5-1.5c0.3,0,0.6,0,0.8-0.1c0.2-0.1,0.3-0.3,0.3-0.6c0-0.3-0.2-0.5-0.3-0.6
				c-0.2-0.1-0.5-0.1-0.8-0.1c0-0.5,0-0.9,0-1.4c0-0.4-0.2-0.7-0.4-1c-0.2-0.2-0.5-0.4-0.8-0.5c-0.4-0.1-0.8,0-1.3-0.1
				C119.8,140.8,119,139.5,118,138.5 M108.4,146.7c-0.4,0.1-0.7,0.3-0.9,0.5c-0.3,0.3-0.6,0.8-0.5,1.4c0,0.6,0.3,1,0.6,1.3
				c0.3,0.3,0.7,0.5,1.3,0.6c0.1,0,0.1,0,0.2,0c0.5,0,0.9-0.2,1.3-0.5c0.3-0.3,0.5-0.7,0.6-1.2c0-0.1,0-0.2,0-0.3
				c0-0.5-0.3-1-0.6-1.2c-0.3-0.3-0.8-0.5-1.4-0.5C108.6,146.6,108.5,146.7,108.4,146.7 M117.1,146.8c-0.4,0.2-0.7,0.5-0.9,0.9
				c-0.1,0.2-0.2,0.4-0.2,0.7c-0.1,0.7,0.2,1.1,0.5,1.5c0.3,0.4,0.7,0.6,1.3,0.6c0.6,0,1.1-0.2,1.4-0.5c0.3-0.3,0.6-0.8,0.6-1.4
				c0-0.6-0.3-1.1-0.6-1.4c-0.3-0.3-0.8-0.6-1.4-0.6C117.6,146.7,117.3,146.7,117.1,146.8"/>
			<path class="st18" d="M119.9,142.7c0.5,0,0.9,0,1.3,0.1c0.3,0.1,0.6,0.3,0.8,0.5c0.2,0.2,0.4,0.6,0.4,1c0,0.4,0,0.9,0,1.4
				c0.3,0,0.6,0,0.8,0.1c0.2,0.1,0.3,0.3,0.3,0.6c0,0.3-0.2,0.5-0.3,0.6c-0.2,0.1-0.5,0.1-0.8,0.1c0.1,0.7-0.2,1.1-0.5,1.5
				c-0.3,0.3-0.8,0.5-1.5,0.5c0.1-1.1-0.4-1.8-1-2.3c-0.4-0.3-0.9-0.5-1.5-0.5c-0.8,0-1.5,0.4-1.9,0.8c-0.4,0.5-0.7,1.1-0.7,2h-4
				c0.1-0.9-0.2-1.5-0.7-2c-0.2-0.2-0.5-0.4-0.8-0.6c-0.3-0.2-0.7-0.2-1.1-0.3c-0.4,0-0.8,0.1-1.1,0.2c-0.3,0.1-0.6,0.4-0.8,0.6
				c-0.2,0.2-0.4,0.5-0.5,0.8c-0.1,0.3-0.2,0.7-0.2,1.2c-0.3,0-0.6,0-0.9,0c-0.3,0-0.6,0-0.8,0c-0.5-0.1-0.8-0.3-1.1-0.6
				c-0.1-0.2-0.2-0.3-0.3-0.6c-0.1-0.2-0.1-0.5-0.1-0.8c0-0.8,0-1.7,0-2.5c0-0.3,0.1-0.5,0.1-0.7c0.2-0.4,0.5-0.7,0.9-0.8
				c0.4-0.2,1-0.1,1.6-0.1c0.6,0,1.1,0,1.7,0c0.1-1.8,0.9-3.1,1.9-4.1c0.5-0.5,1.1-0.9,1.8-1.2c0.5-0.2,1.1-0.4,1.7-0.5
				c0.2,0,0.4,0,0.7-0.1c1,0,1.9,0.2,2.6,0.5c0.7,0.3,1.3,0.7,1.9,1.2C119,139.5,119.8,140.8,119.9,142.7"/>
			<path class="st18" d="M108.8,146.6c0.6,0,1,0.2,1.4,0.5c0.3,0.3,0.6,0.7,0.6,1.2c0,0.1,0,0.2,0,0.3c0,0.5-0.3,0.9-0.6,1.2
				c-0.3,0.3-0.7,0.5-1.3,0.5c-0.1,0-0.1,0-0.2,0c-0.6,0-1-0.2-1.3-0.6c-0.3-0.3-0.5-0.7-0.6-1.3c0-0.6,0.2-1.1,0.5-1.4
				c0.2-0.2,0.5-0.4,0.9-0.5C108.5,146.7,108.6,146.6,108.8,146.6"/>
			<path class="st18" d="M117.9,146.6c0.6,0,1.1,0.3,1.4,0.6c0.3,0.3,0.6,0.8,0.6,1.4c0,0.6-0.3,1.1-0.6,1.4
				c-0.3,0.3-0.8,0.6-1.4,0.5c-0.6,0-1-0.3-1.3-0.6c-0.3-0.3-0.5-0.8-0.5-1.5c0-0.3,0.1-0.5,0.2-0.7c0.2-0.4,0.5-0.7,0.9-0.9
				C117.3,146.7,117.6,146.7,117.9,146.6"/>
		</g>
	</g>
</g>
<g>
	<g>
		<defs>
			<rect id="SVGID_29_" x="136.7" y="56" width="26.4" height="26.4"/>
		</defs>
		<clipPath id="SVGID_30_">
			<use xlink:href="#SVGID_29_"  style="overflow:visible;"/>
		</clipPath>
		<rect x="146.4" y="58" class="st17" width="7" height="22.1"/>
		<g class="st25">
			<defs>
				<rect id="SVGID_31_" x="136.7" y="56" width="26.4" height="26.4"/>
			</defs>
			<clipPath id="SVGID_32_">
				<use xlink:href="#SVGID_31_"  style="overflow:visible;"/>
			</clipPath>
			<path class="st3" d="M140.7,56H159c1.2,0.1,2.1,0.6,2.8,1.2c0.7,0.7,1.2,1.6,1.2,2.8v18.3c-0.1,1.2-0.6,2.1-1.2,2.8
				c-0.7,0.7-1.6,1.1-2.8,1.2h-18.3c-1.2-0.1-2.1-0.6-2.8-1.2c-0.7-0.7-1.1-1.6-1.2-2.8V60c0,0,0,0,0,0c0.1-1.2,0.6-2.1,1.2-2.8
				C138.6,56.5,139.5,56.1,140.7,56 M148.5,58.3c-0.4,0.2-0.6,0.4-0.9,0.7c-0.3,0.3-0.5,0.6-0.6,0.9c-0.2,0.4-0.3,0.8-0.2,1.3
				c0,1,0.4,1.6,0.9,2.1c0.5,0.5,1.2,0.9,2.2,0.9c0.5,0,0.9-0.1,1.2-0.3c0.4-0.2,0.6-0.4,0.9-0.6c0.5-0.5,0.9-1.2,0.9-2.2
				c0-0.5-0.1-0.9-0.3-1.2c-0.3-0.7-0.9-1.2-1.6-1.5c-0.4-0.1-0.8-0.3-1.3-0.2C149.3,58.1,148.9,58.2,148.5,58.3 M152.6,67.9
				c0-0.6-0.1-1.1-0.4-1.5c-0.2-0.4-0.6-0.7-1-0.9c-0.4-0.2-1-0.3-1.7-0.3c-0.6,0-1,0.2-1.4,0.5c-0.5,0.4-0.9,0.9-1.1,1.7
				c0,0.3,0,0.6,0,0.9v9.3h5.5C152.6,74.4,152.6,71.1,152.6,67.9 M148.8,78v1.3c0,0.1,0,0.3,0,0.4c0.1,0.2,0.5,0.3,0.6,0
				c0-0.1,0-0.3,0-0.4c0-0.5,0-0.9,0-1.3L148.8,78C148.8,78,148.8,78,148.8,78 M150.3,78c0,0.4,0,0.9,0,1.3c0,0.1,0,0.3,0,0.4
				c0,0.1,0.1,0.2,0.2,0.2c0.2,0.1,0.4-0.1,0.4-0.2c0-0.1,0-0.3,0-0.4V78L150.3,78C150.3,78,150.3,78,150.3,78"/>
			<path class="st1" d="M149.8,58.1c0.5,0,0.9,0.1,1.3,0.2c0.7,0.3,1.2,0.8,1.6,1.5c0.2,0.3,0.3,0.8,0.3,1.2c0,1-0.3,1.7-0.9,2.2
				c-0.2,0.3-0.5,0.5-0.9,0.6c-0.3,0.2-0.8,0.3-1.2,0.3c-1,0-1.7-0.3-2.2-0.9c-0.5-0.5-0.9-1.2-0.9-2.1c0-0.5,0.1-0.9,0.2-1.3
				c0.2-0.4,0.3-0.7,0.6-0.9c0.3-0.3,0.5-0.5,0.9-0.7C148.9,58.2,149.3,58.1,149.8,58.1"/>
			<path class="st1" d="M152.6,77.6h-5.5v-9.3c0-0.3,0-0.6,0-0.9c0.1-0.8,0.5-1.3,1.1-1.7c0.4-0.3,0.8-0.5,1.4-0.5
				c0.7,0,1.2,0.1,1.7,0.3c0.4,0.2,0.8,0.5,1,0.9c0.3,0.4,0.4,0.9,0.4,1.5C152.6,71.1,152.6,74.4,152.6,77.6 M149.6,68.2
				c-0.1,0.2,0.1,0.4,0.2,0.4c0.2,0,0.3-0.2,0.2-0.4c0-0.1-0.1-0.2-0.3-0.1C149.7,68.1,149.7,68.2,149.6,68.2 M149.6,70.4
				c0,0.3,0.4,0.4,0.5,0.1c0.1-0.2,0-0.3-0.1-0.4c0,0-0.1,0-0.2,0C149.7,70.2,149.6,70.3,149.6,70.4 M149.6,72.5c0,0.1,0,0.2,0,0.2
				c0.1,0.3,0.6,0.2,0.5-0.1c0-0.1-0.2-0.2-0.3-0.2C149.7,72.4,149.6,72.4,149.6,72.5 M149.6,74.6c-0.1,0.2,0.1,0.4,0.2,0.4
				c0.2,0,0.3-0.2,0.2-0.4c0-0.1-0.1-0.2-0.3-0.1C149.7,74.5,149.7,74.5,149.6,74.6"/>
			<path class="st3" d="M149.8,68.1c0.1,0,0.2,0.1,0.3,0.1c0.1,0.2-0.1,0.4-0.2,0.4c-0.2,0-0.4-0.2-0.2-0.4
				C149.7,68.2,149.7,68.1,149.8,68.1"/>
			<path class="st3" d="M149.8,70.2c0.1,0,0.1,0,0.2,0c0.1,0,0.2,0.2,0.1,0.4c-0.1,0.3-0.6,0.2-0.5-0.1
				C149.6,70.3,149.7,70.2,149.8,70.2"/>
			<path class="st3" d="M149.8,72.3c0.2,0,0.3,0.1,0.3,0.2c0.1,0.3-0.4,0.4-0.5,0.1c0,0,0-0.1,0-0.2
				C149.6,72.4,149.7,72.4,149.8,72.3"/>
			<path class="st3" d="M149.8,74.5c0.1,0,0.2,0.1,0.3,0.1c0.1,0.2-0.1,0.4-0.2,0.4c-0.2,0-0.4-0.2-0.2-0.4
				C149.7,74.5,149.7,74.5,149.8,74.5"/>
			<path class="st1" d="M148.9,78h0.6c0,0.4,0,0.9,0,1.3c0,0.1,0,0.3,0,0.4c-0.1,0.3-0.5,0.2-0.6,0c0-0.1,0-0.3,0-0.4L148.9,78
				C148.8,78,148.8,78,148.9,78"/>
			<path class="st1" d="M150.3,78h0.6v1.3c0,0.1,0,0.3,0,0.4c0,0.1-0.2,0.3-0.4,0.2c-0.1,0-0.2-0.1-0.2-0.2c0-0.1,0-0.3,0-0.4
				C150.3,78.9,150.3,78.4,150.3,78C150.3,78,150.3,78,150.3,78"/>
		</g>
	</g>
</g>
</svg>
