<?xml version="1.0" encoding="utf-8"?>
<!-- Generator: Adobe Illustrator 15.0.0, SVG Export Plug-In . SVG Version: 6.00 Build 0)  -->
<!DOCTYPE svg PUBLIC "-//W3C//DTD SVG 1.1//EN" "http://www.w3.org/Graphics/SVG/1.1/DTD/svg11.dtd">
<svg version="1.1" id="Layer_1" xmlns="http://www.w3.org/2000/svg" xmlns:xlink="http://www.w3.org/1999/xlink" x="0px" y="0px"
	 width="200px" height="50px" viewBox="0 0 200 50" style="enable-background:new 0 0 200 50;" xml:space="preserve">
<style type="text/css">
<![CDATA[
	.st0{fill:#FFFFFF;stroke:#6A6A6A;stroke-miterlimit:10;}
	.st1{fill:#6A6A6A;}
	.st2{fill-rule:evenodd;clip-rule:evenodd;fill:#FFFFFF;}
	.st3{fill-rule:evenodd;clip-rule:evenodd;fill:#6A6A6A;}
]]>
</style>
<rect x="0.5" y="0.5" class="st0" width="199" height="49"/>
<g>
	<path class="st3" d="M33.9,23.5c0,0.3,0,0.5,0,0.8c-0.2,4-1.7,6.6-3.8,8.7c-1,1-2.3,1.9-3.7,2.6c-1.4,0.6-3.1,1.1-5.2,1.1
		c-2,0-3.7-0.4-5.2-1.1c-1.4-0.6-2.7-1.5-3.7-2.5c-2.1-2.1-3.7-4.7-3.8-8.6c0-0.3,0-0.6,0-0.9c0-0.5,0.1-1,0.1-1.4
		c0.3-2.3,1.2-4,2.3-5.5c0.4-0.6,0.9-1.1,1.5-1.7c2.1-2,4.8-3.6,8.9-3.6c2.1,0,3.7,0.4,5.2,1.1c1.6,0.7,2.9,1.7,4.1,2.9
		C32.3,17.3,33.8,19.8,33.9,23.5z M19.5,12.4c-2.1,0.3-3.8,1.1-5.2,2.1c-0.8,0.6-1.6,1.3-2.2,2.1c-0.7,0.8-1.2,1.7-1.6,2.7
		c-0.6,1.3-1,3-0.9,4.9c0.1,1.8,0.5,3.4,1.1,4.7c0.6,1.3,1.5,2.4,2.5,3.3c1,0.9,2.1,1.7,3.5,2.3c1.3,0.6,3,1,4.9,0.9
		c2.8-0.1,4.8-1,6.5-2.2c1.1-0.8,2.1-1.8,2.9-3c0.4-0.6,0.7-1.2,1-1.9c0.4-1,0.7-2.2,0.9-3.5c0.1-1.4,0-2.8-0.3-4
		c-0.4-1.5-1.1-2.8-1.9-3.9c-0.8-1.1-1.8-2.1-3-2.9c-1.2-0.8-2.5-1.4-4.1-1.7c-0.8-0.2-1.7-0.3-2.7-0.2
		C20.4,12.3,19.9,12.3,19.5,12.4z"/>
	<path class="st2" d="M20.9,12.3c1,0,1.9,0.1,2.7,0.2c1.6,0.3,2.9,0.9,4.1,1.7c1.1,0.8,2.1,1.8,3,2.9c0.8,1.1,1.5,2.4,1.9,3.9
		c0.3,1.1,0.4,2.6,0.3,4c-0.1,1.3-0.4,2.5-0.9,3.5c-0.3,0.7-0.6,1.3-1,1.9c-0.8,1.1-1.7,2.1-2.9,3c-1.7,1.2-3.7,2.1-6.5,2.2
		c-1.9,0.1-3.6-0.3-4.9-0.9c-1.4-0.6-2.5-1.4-3.5-2.3c-1-1-1.8-2-2.5-3.3c-0.6-1.3-1.1-2.9-1.1-4.7c-0.1-2,0.3-3.6,0.9-4.9
		c0.4-1,1-1.9,1.6-2.7c0.7-0.8,1.4-1.5,2.2-2.1c1.4-1,3-1.8,5.2-2.1C19.9,12.3,20.4,12.3,20.9,12.3z M21.2,16.1c0,2.6,0,5.2,0,7.8
		c-1.9,0-3.9,0-5.8,0c0,0.3,0,0.7,0,1c2.3,0,4.6,0,6.9,0c0-2.9,0-5.9,0-8.8C21.9,16.1,21.6,16.1,21.2,16.1
		C21.2,16.1,21.2,16.1,21.2,16.1z"/>
	<path class="st3" d="M21.2,16.1c0.3,0,0.7,0,1,0c0,2.9,0,5.9,0,8.8c-2.3,0-4.6,0-6.9,0c0-0.3,0-0.7,0-1c1.9,0,3.9,0,5.8,0
		C21.2,21.3,21.2,18.7,21.2,16.1C21.2,16.1,21.2,16.1,21.2,16.1z"/>
</g>
<path class="st1" d="M163.8,35c-0.7,0-1.2,0.5-1.2,1.2v6.4c0,0.7,0.5,1.2,1.2,1.2c0,0,10.7,0,11,0c0.2,0.2,1.7,2.1,1.7,2.1
	c0.2,0.3,0.6,0.4,0.9,0.4h11.1c0.7,0,1.2-0.5,1.2-1.2c0,0,0-0.9,0-1.3c0.4,0,1.2,0,1.2,0c0.7,0,1.2-0.5,1.2-1.2v-6.4
	c0-0.7-0.5-1.2-1.2-1.2H163.8 M163.2,42.7v-6.4c0-0.3,0.3-0.6,0.6-0.6h27.1c0.3,0,0.6,0.3,0.6,0.6v6.4c0,0.3-0.3,0.6-0.6,0.6h-1.5
	c-0.2,0-0.3,0.1-0.3,0.3v1.6c0,0.3-0.3,0.6-0.6,0.6h-11.1c-0.2,0-0.3-0.1-0.5-0.2l-1.8-2.2c-0.1-0.1-0.1-0.1-0.2-0.1h-11.2
	C163.4,43.2,163.2,43,163.2,42.7z"/>
<polyline class="st1" points="166.1,41.9 164.5,41.9 164.5,36.7 165.2,36.7 165.2,41.3 166.1,41.3 166.1,41.9 "/>
<path class="st1" d="M167.3,41.9c-0.6,0-0.8-0.3-0.8-0.9v-3.4c0-0.6,0.3-0.9,0.8-0.9h0.7c0.6,0,0.8,0.3,0.8,0.9V41
	c0,0.6-0.3,0.9-0.8,0.9H167.3 M167.5,41.3h0.4c0.2,0,0.3-0.1,0.3-0.3v-3.3c0-0.2-0.1-0.3-0.3-0.3h-0.3c-0.2,0-0.3,0.1-0.3,0.3V41
	C167.2,41.2,167.3,41.3,167.5,41.3z"/>
<path class="st1" d="M171.5,40.7V41c0,0.6-0.3,0.9-0.8,0.9h-0.4c-0.6,0-0.8-0.3-0.8-0.9v-3.4c0-0.6,0.3-0.9,0.8-0.9h0.4
	c0.6,0,0.8,0.3,0.8,0.9v0.6h-0.7v-0.5c0-0.2-0.1-0.3-0.3-0.3h-0.1c-0.2,0-0.3,0.1-0.3,0.3V41c0,0.2,0.1,0.3,0.3,0.3h0.2
	c0.2,0,0.3-0.1,0.3-0.3v-0.3H171.5"/>
<path class="st1" d="M172.9,41.9c-0.6,0-0.8-0.3-0.8-0.9v-3.4c0-0.6,0.3-0.9,0.8-0.9h0.7c0.6,0,0.8,0.3,0.8,0.9V41
	c0,0.6-0.3,0.9-0.8,0.9H172.9 M173,41.3h0.4c0.2,0,0.3-0.1,0.3-0.3v-3.3c0-0.2-0.1-0.3-0.3-0.3H173c-0.2,0-0.3,0.1-0.3,0.3V41
	C172.7,41.2,172.8,41.3,173,41.3z"/>
<polyline class="st1" points="176.4,39.2 176.4,36.7 177.1,36.7 177.1,41.9 176.4,41.9 176.4,40.9 175.7,38.5 175.7,41.9 175,41.9 
	175,36.7 175.7,36.7 176.4,39.2 "/>
<path class="st1" d="M178.5,41.9c-0.6,0-0.8-0.3-0.8-0.9v-3.4c0-0.6,0.3-0.9,0.8-0.9h0.7c0.6,0,0.8,0.3,0.8,0.9V41
	c0,0.6-0.3,0.9-0.8,0.9H178.5 M178.7,41.3h0.4c0.2,0,0.3-0.1,0.3-0.3v-3.3c0-0.2-0.1-0.3-0.3-0.3h-0.3c-0.2,0-0.3,0.1-0.3,0.3V41
	C178.4,41.2,178.5,41.3,178.7,41.3z"/>
<polyline class="st1" points="182.1,39.8 182.7,36.7 183.5,36.7 183.5,41.9 182.8,41.9 182.8,38.5 182.3,41 181.8,41 181.3,38.5 
	181.3,41.9 180.6,41.9 180.6,36.7 181.4,36.7 182.1,39.8 "/>
<rect x="184.1" y="36.7" class="st1" width="0.7" height="5.2"/>
<path class="st1" d="M187.5,40.7V41c0,0.6-0.3,0.9-0.8,0.9h-0.4c-0.6,0-0.8-0.3-0.8-0.9v-3.4c0-0.6,0.3-0.9,0.8-0.9h0.4
	c0.6,0,0.8,0.3,0.8,0.9v0.6h-0.7v-0.5c0-0.2-0.1-0.3-0.3-0.3h-0.1c-0.2,0-0.3,0.1-0.3,0.3V41c0,0.2,0.1,0.3,0.3,0.3h0.2
	c0.2,0,0.3-0.1,0.3-0.3v-0.3H187.5"/>
<path class="st1" d="M189.4,38.1v-0.5c0-0.2-0.1-0.3-0.3-0.3H189c-0.2,0-0.3,0.1-0.3,0.3v0.9c0,0.1,0,0.2,0.1,0.2
	c0,0,0.1,0.1,0.2,0.1l0.7,0.4c0.1,0.1,0.2,0.1,0.3,0.2s0.1,0.1,0.1,0.2c0,0.1,0.1,0.2,0.1,0.4v1.1c0,0.6-0.3,0.9-0.8,0.9h-0.4
	c-0.6,0-0.8-0.3-0.8-1v-0.3h0.7V41c0,0.2,0.1,0.3,0.3,0.3h0.1c0.2,0,0.3-0.1,0.3-0.3v-0.9c0-0.1,0-0.2-0.1-0.2c0,0-0.1-0.1-0.2-0.1
	l-0.7-0.4c-0.1-0.1-0.2-0.1-0.3-0.2c-0.1-0.1-0.1-0.1-0.1-0.2c0-0.1,0-0.2,0-0.3v-1.1c0-0.6,0.3-0.9,0.8-0.9h0.4
	c0.6,0,0.8,0.3,0.8,0.9v0.5H189.4"/>
<path class="st1" d="M177.6,45h-0.2v-1.3c0-0.2,0.1-0.3,0.3-0.3h0.2c0.2,0,0.3,0.1,0.3,0.3V45h-0.2v-0.6h-0.2V45 M177.9,44.2v-0.5
	c0-0.1,0-0.1-0.1-0.1h-0.1c-0.1,0-0.1,0-0.1,0.1v0.5H177.9z"/>
<polyline class="st1" points="178.6,43.6 178.6,45 178.4,45 178.4,43.6 178.2,43.6 178.2,43.4 178.8,43.4 178.8,43.6 178.6,43.6 "/>
<polyline class="st1" points="179.7,45 179.5,45 179.5,44.4 179.2,43.4 179.5,43.4 179.6,44.1 179.6,44.1 179.8,43.4 180,43.4 
	179.7,44.4 179.7,45 "/>
<path class="st1" d="M180.3,45c-0.2,0-0.3-0.1-0.3-0.3v-1.1c0-0.2,0.1-0.3,0.3-0.3h0.2c0.2,0,0.3,0.1,0.3,0.3v1.1
	c0,0.2-0.1,0.3-0.3,0.3H180.3 M180.4,44.8h0.1c0.1,0,0.1,0,0.1-0.1v-1c0-0.1,0-0.1-0.1-0.1h-0.1c-0.1,0-0.1,0-0.1,0.1L180.4,44.8
	C180.3,44.7,180.3,44.8,180.4,44.8z"/>
<path class="st1" d="M181.7,43.4v1.3c0,0.2-0.1,0.3-0.3,0.3h-0.2c-0.2,0-0.3-0.1-0.3-0.3v-1.3h0.2v1.3c0,0.1,0,0.1,0.1,0.1h0.1
	c0.1,0,0.1,0,0.1-0.1v-1.3H181.7"/>
<path class="st1" d="M181.9,43.4h0.4c0.2,0,0.2,0.1,0.2,0.3V44c0,0.1,0,0.2-0.1,0.3l0.2,0.7h-0.2l-0.1-0.7h-0.1V45h-0.2V43.4
	 M182.1,44.1h0.1c0.1,0,0.1,0,0.1-0.1v-0.3c0-0.1,0-0.1-0.1-0.1h-0.1V44.1z"/>
<path class="st1" d="M183.5,43.8v-0.1c0-0.1,0-0.1-0.1-0.1h0c-0.1,0-0.1,0-0.1,0.1v0.3c0,0,0,0,0,0.1s0,0,0.1,0l0.2,0.1
	c0,0,0.1,0,0.1,0.1c0,0,0,0,0,0.1c0,0,0,0.1,0,0.1v0.3c0,0.2-0.1,0.3-0.3,0.3h-0.1c-0.2,0-0.3-0.1-0.3-0.3v-0.1h0.2v0.1
	c0,0.1,0,0.1,0.1,0.1h0c0.1,0,0.1,0,0.1-0.1v-0.3c0,0,0,0,0-0.1c0,0,0,0-0.1,0l-0.2-0.1c0,0-0.1,0-0.1-0.1c0,0,0,0,0-0.1
	c0,0,0-0.1,0-0.1v-0.3c0-0.2,0.1-0.3,0.3-0.3h0.1c0.2,0,0.3,0.1,0.3,0.3v0.2H183.5"/>
<polyline class="st1" points="183.9,45 183.9,43.4 184.4,43.4 184.4,43.6 184.1,43.6 184.1,44 184.4,44 184.4,44.2 184.1,44.2 
	184.1,44.8 184.4,44.8 184.4,45 183.9,45 "/>
<path class="st1" d="M184.6,43.4h0.4c0.2,0,0.2,0.1,0.2,0.3V44c0,0.1,0,0.2-0.1,0.3l0.2,0.7h-0.2l-0.1-0.7h-0.1V45h-0.2V43.4
	 M184.8,44.1h0.1c0.1,0,0.1,0,0.1-0.1v-0.3c0-0.1,0-0.1-0.1-0.1h-0.1V44.1z"/>
<polyline class="st1" points="186.1,43.4 185.9,45 185.6,45 185.4,43.4 185.6,43.4 185.7,44.6 185.9,43.4 186.1,43.4 "/>
<rect x="186.3" y="43.4" class="st1" width="0.2" height="1.6"/>
<path class="st1" d="M187.3,44.6v0.1c0,0.2-0.1,0.3-0.3,0.3h-0.1c-0.2,0-0.3-0.1-0.3-0.3v-1.1c0-0.2,0.1-0.3,0.3-0.3h0.1
	c0.2,0,0.3,0.1,0.3,0.3v0.2h-0.2v-0.2c0-0.1,0-0.1-0.1-0.1h0c-0.1,0-0.1,0-0.1,0.1v1c0,0.1,0,0.1,0.1,0.1h0.1c0.1,0,0.1,0,0.1-0.1
	v-0.1H187.3"/>
<polyline class="st1" points="187.5,45 187.5,43.4 188,43.4 188,43.6 187.7,43.6 187.7,44 188,44 188,44.2 187.7,44.2 187.7,44.8 
	188,44.8 188,45 187.5,45 "/>
<g>
	<path class="st1" d="M46.8,15.6c0.6,0,1.2,0.1,1.7,0.2s0.9,0.3,1.3,0.5c0.4,0.2,0.6,0.6,0.8,1c0.2,0.4,0.3,0.9,0.3,1.5
		c0,0.6-0.1,1.2-0.4,1.6c-0.3,0.4-0.7,0.8-1.3,1.1c0.8,0.2,1.4,0.6,1.8,1.2c0.4,0.6,0.6,1.3,0.6,2.1c0,0.6-0.1,1.2-0.4,1.7
		c-0.3,0.5-0.6,0.9-1,1.2s-0.9,0.5-1.5,0.7s-1.1,0.2-1.7,0.2h-6.2V15.6H46.8z M46.4,20.9c0.5,0,0.9-0.1,1.2-0.4
		c0.3-0.2,0.5-0.6,0.5-1.2c0-0.3-0.1-0.5-0.2-0.7s-0.3-0.3-0.4-0.5c-0.2-0.1-0.4-0.2-0.6-0.2s-0.5-0.1-0.7-0.1h-2.6v3H46.4z
		 M46.6,26.3c0.3,0,0.5,0,0.8-0.1c0.3-0.1,0.5-0.1,0.7-0.3s0.3-0.3,0.5-0.5c0.1-0.2,0.2-0.5,0.2-0.8c0-0.7-0.2-1.1-0.6-1.4
		c-0.4-0.3-0.9-0.4-1.5-0.4h-3.1v3.5H46.6z"/>
	<path class="st1" d="M53.2,21.8c0.2-0.6,0.6-1.1,1-1.5c0.4-0.4,0.9-0.8,1.5-1s1.2-0.4,2-0.4c0.7,0,1.4,0.1,2,0.4s1.1,0.6,1.5,1
		c0.4,0.4,0.7,0.9,1,1.5c0.2,0.6,0.3,1.3,0.3,2c0,0.7-0.1,1.4-0.3,2c-0.2,0.6-0.6,1.1-1,1.5c-0.4,0.4-0.9,0.8-1.5,1
		c-0.6,0.2-1.3,0.3-2,0.3c-0.7,0-1.4-0.1-2-0.3c-0.6-0.2-1.1-0.6-1.5-1c-0.4-0.4-0.7-0.9-1-1.5c-0.2-0.6-0.3-1.3-0.3-2
		C52.9,23.1,53,22.4,53.2,21.8z M55.5,24.9c0.1,0.4,0.2,0.7,0.4,1c0.2,0.3,0.4,0.5,0.7,0.7s0.6,0.3,1.1,0.3c0.4,0,0.8-0.1,1.1-0.3
		c0.3-0.2,0.5-0.4,0.7-0.7c0.2-0.3,0.3-0.6,0.4-1c0.1-0.4,0.1-0.7,0.1-1.1c0-0.4,0-0.7-0.1-1.1c-0.1-0.4-0.2-0.7-0.4-1
		s-0.4-0.5-0.7-0.7c-0.3-0.2-0.7-0.3-1.1-0.3c-0.4,0-0.8,0.1-1.1,0.3c-0.3,0.2-0.5,0.4-0.7,0.7s-0.3,0.6-0.4,1
		c-0.1,0.4-0.1,0.7-0.1,1.1C55.4,24.2,55.4,24.6,55.5,24.9z"/>
	<path class="st1" d="M64.2,21.8c0.2-0.6,0.6-1.1,1-1.5c0.4-0.4,0.9-0.8,1.5-1s1.2-0.4,2-0.4c0.7,0,1.4,0.1,2,0.4s1.1,0.6,1.5,1
		c0.4,0.4,0.7,0.9,1,1.5c0.2,0.6,0.3,1.3,0.3,2c0,0.7-0.1,1.4-0.3,2c-0.2,0.6-0.6,1.1-1,1.5c-0.4,0.4-0.9,0.8-1.5,1
		c-0.6,0.2-1.3,0.3-2,0.3c-0.7,0-1.4-0.1-2-0.3c-0.6-0.2-1.1-0.6-1.5-1c-0.4-0.4-0.7-0.9-1-1.5c-0.2-0.6-0.3-1.3-0.3-2
		C63.9,23.1,64,22.4,64.2,21.8z M66.5,24.9c0.1,0.4,0.2,0.7,0.4,1c0.2,0.3,0.4,0.5,0.7,0.7s0.6,0.3,1.1,0.3c0.4,0,0.8-0.1,1.1-0.3
		c0.3-0.2,0.5-0.4,0.7-0.7c0.2-0.3,0.3-0.6,0.4-1c0.1-0.4,0.1-0.7,0.1-1.1c0-0.4,0-0.7-0.1-1.1c-0.1-0.4-0.2-0.7-0.4-1
		s-0.4-0.5-0.7-0.7c-0.3-0.2-0.7-0.3-1.1-0.3c-0.4,0-0.8,0.1-1.1,0.3c-0.3,0.2-0.5,0.4-0.7,0.7s-0.3,0.6-0.4,1
		c-0.1,0.4-0.1,0.7-0.1,1.1C66.4,24.2,66.4,24.6,66.5,24.9z"/>
	<path class="st1" d="M77.9,15.6v6.9l3.2-3.3h3l-3.5,3.4l3.9,5.9h-3.1l-2.6-4.2l-1,1v3.2h-2.6V15.6H77.9z"/>
	<path class="st1" d="M93,19.2v1.3h0c0.3-0.5,0.7-0.9,1.2-1.1c0.5-0.3,1-0.4,1.6-0.4c0.6,0,1.1,0.1,1.6,0.3c0.5,0.2,0.9,0.6,1.1,1.2
		c0.3-0.4,0.7-0.8,1.1-1.1c0.5-0.3,1-0.5,1.7-0.5c0.5,0,0.9,0.1,1.4,0.2c0.4,0.1,0.8,0.3,1.1,0.6c0.3,0.3,0.5,0.6,0.7,1
		c0.2,0.4,0.3,0.9,0.3,1.5v6.2h-2.6v-5.3c0-0.3,0-0.6,0-0.9c0-0.3-0.1-0.5-0.2-0.7c-0.1-0.2-0.3-0.4-0.5-0.5
		c-0.2-0.1-0.5-0.2-0.9-0.2c-0.4,0-0.7,0.1-0.9,0.2c-0.2,0.1-0.4,0.3-0.5,0.5c-0.1,0.2-0.2,0.5-0.3,0.8c0,0.3-0.1,0.6-0.1,0.9v5.2
		h-2.6v-5.2c0-0.3,0-0.5,0-0.8s-0.1-0.5-0.2-0.7c-0.1-0.2-0.2-0.4-0.5-0.5C95.5,21,95.2,21,94.8,21c-0.1,0-0.3,0-0.5,0.1
		c-0.2,0.1-0.4,0.2-0.6,0.3s-0.3,0.4-0.5,0.6s-0.2,0.7-0.2,1.1v5.4h-2.6v-9.3H93z"/>
	<path class="st1" d="M109.5,26.3c0.4,0.4,0.9,0.6,1.7,0.6c0.5,0,1-0.1,1.3-0.4c0.4-0.3,0.6-0.5,0.7-0.8h2.2
		c-0.4,1.1-0.9,1.9-1.7,2.4c-0.7,0.5-1.6,0.7-2.7,0.7c-0.7,0-1.4-0.1-2-0.4s-1.1-0.6-1.5-1c-0.4-0.4-0.7-0.9-0.9-1.5
		c-0.2-0.6-0.3-1.3-0.3-2c0-0.7,0.1-1.3,0.3-1.9c0.2-0.6,0.6-1.1,1-1.6s0.9-0.8,1.5-1s1.2-0.4,1.9-0.4c0.8,0,1.5,0.2,2.1,0.5
		c0.6,0.3,1.1,0.7,1.4,1.2c0.4,0.5,0.7,1.1,0.8,1.8c0.2,0.7,0.2,1.4,0.2,2.1h-6.7C108.9,25.3,109.1,25.9,109.5,26.3z M112.4,21.4
		c-0.3-0.3-0.8-0.5-1.4-0.5c-0.4,0-0.7,0.1-1,0.2c-0.3,0.1-0.5,0.3-0.6,0.5c-0.2,0.2-0.3,0.4-0.3,0.6c-0.1,0.2-0.1,0.4-0.1,0.6h4.2
		C112.9,22.2,112.7,21.7,112.4,21.4z"/>
	<path class="st1" d="M124.5,19.2v1.3h0.1c0.3-0.5,0.7-0.9,1.3-1.2c0.5-0.2,1-0.4,1.6-0.4c0.7,0,1.2,0.1,1.7,0.3
		c0.4,0.2,0.8,0.4,1,0.8s0.4,0.7,0.5,1.2s0.2,1,0.2,1.6v5.7h-2.6v-5.3c0-0.8-0.1-1.3-0.4-1.7s-0.7-0.6-1.3-0.6
		c-0.7,0-1.2,0.2-1.5,0.6c-0.3,0.4-0.5,1.1-0.5,2v4.9h-2.6v-9.3H124.5z"/>
	<path class="st1" d="M132.8,21.8c0.2-0.6,0.6-1.1,1-1.5s0.9-0.8,1.5-1s1.2-0.4,2-0.4c0.7,0,1.4,0.1,2,0.4c0.6,0.2,1.1,0.6,1.5,1
		s0.7,0.9,1,1.5c0.2,0.6,0.3,1.3,0.3,2c0,0.7-0.1,1.4-0.3,2c-0.2,0.6-0.6,1.1-1,1.5s-0.9,0.8-1.5,1c-0.6,0.2-1.3,0.3-2,0.3
		c-0.7,0-1.4-0.1-2-0.3c-0.6-0.2-1.1-0.6-1.5-1s-0.7-0.9-1-1.5c-0.2-0.6-0.3-1.3-0.3-2C132.5,23.1,132.6,22.4,132.8,21.8z
		 M135.2,24.9c0.1,0.4,0.2,0.7,0.4,1c0.2,0.3,0.4,0.5,0.7,0.7s0.6,0.3,1.1,0.3c0.4,0,0.8-0.1,1.1-0.3s0.5-0.4,0.7-0.7
		c0.2-0.3,0.3-0.6,0.4-1c0.1-0.4,0.1-0.7,0.1-1.1c0-0.4,0-0.7-0.1-1.1c-0.1-0.4-0.2-0.7-0.4-1c-0.2-0.3-0.4-0.5-0.7-0.7
		c-0.3-0.2-0.7-0.3-1.1-0.3c-0.4,0-0.8,0.1-1.1,0.3c-0.3,0.2-0.5,0.4-0.7,0.7s-0.3,0.6-0.4,1c-0.1,0.4-0.1,0.7-0.1,1.1
		C135.1,24.2,135.1,24.6,135.2,24.9z"/>
	<path class="st1" d="M151.8,28.5l-1.7-6.2h0l-1.6,6.2h-2.6l-3-9.3h2.7l1.7,6.3h0l1.5-6.3h2.5l1.6,6.3h0l1.7-6.3h2.6l-2.9,9.3H151.8
		z"/>
</g>
<g>
	<path class="st1" d="M130.5,37c0.4,0,0.8,0.1,1,0.3c0.2,0.2,0.3,0.5,0.3,0.9c0,0.4-0.1,0.7-0.3,0.9s-0.5,0.3-1,0.3h-1.3v1.8h-0.6
		V37H130.5z M130.3,39.1c0.3,0,0.6-0.1,0.7-0.2c0.1-0.1,0.2-0.3,0.2-0.6c0-0.3-0.1-0.5-0.2-0.6c-0.2-0.1-0.4-0.2-0.7-0.2h-1.1v1.6
		H130.3z"/>
	<path class="st1" d="M132.4,39.1c0.1-0.2,0.2-0.4,0.3-0.5c0.1-0.1,0.3-0.3,0.5-0.3c0.2-0.1,0.4-0.1,0.6-0.1c0.2,0,0.5,0,0.7,0.1
		c0.2,0.1,0.3,0.2,0.5,0.3c0.1,0.1,0.2,0.3,0.3,0.5c0.1,0.2,0.1,0.4,0.1,0.6c0,0.2,0,0.4-0.1,0.6c-0.1,0.2-0.2,0.4-0.3,0.5
		c-0.1,0.1-0.3,0.3-0.5,0.3c-0.2,0.1-0.4,0.1-0.7,0.1c-0.2,0-0.5,0-0.6-0.1c-0.2-0.1-0.3-0.2-0.5-0.3c-0.1-0.1-0.2-0.3-0.3-0.5
		c-0.1-0.2-0.1-0.4-0.1-0.6C132.3,39.6,132.3,39.3,132.4,39.1z M132.9,40.3c0,0.1,0.1,0.3,0.2,0.4c0.1,0.1,0.2,0.2,0.3,0.2
		s0.2,0.1,0.4,0.1s0.3,0,0.4-0.1s0.2-0.1,0.3-0.2c0.1-0.1,0.2-0.2,0.2-0.4c0-0.1,0.1-0.3,0.1-0.5c0-0.2,0-0.4-0.1-0.5
		c-0.1-0.1-0.1-0.3-0.2-0.4s-0.2-0.2-0.3-0.2c-0.1-0.1-0.2-0.1-0.4-0.1s-0.3,0-0.4,0.1c-0.1,0.1-0.2,0.1-0.3,0.2s-0.2,0.2-0.2,0.4
		c0,0.1-0.1,0.3-0.1,0.5C132.8,40,132.8,40.1,132.9,40.3z"/>
	<path class="st1" d="M138.4,41.3l-0.6-2.5h0l-0.6,2.5h-0.6l-1-3.1h0.6l0.7,2.5h0l0.6-2.5h0.6l0.6,2.5h0l0.7-2.5h0.5l-1,3.1H138.4z"
		/>
	<path class="st1" d="M142.6,41.1c-0.2,0.2-0.5,0.3-0.9,0.3c-0.2,0-0.5,0-0.6-0.1c-0.2-0.1-0.3-0.2-0.5-0.3
		c-0.1-0.1-0.2-0.3-0.3-0.5c-0.1-0.2-0.1-0.4-0.1-0.7c0-0.2,0-0.5,0.1-0.6s0.2-0.4,0.3-0.5c0.1-0.1,0.3-0.3,0.5-0.3s0.4-0.1,0.6-0.1
		c0.3,0,0.5,0.1,0.7,0.2c0.2,0.1,0.3,0.3,0.4,0.4c0.1,0.2,0.2,0.4,0.2,0.6s0.1,0.4,0.1,0.6h-2.3c0,0.1,0,0.3,0,0.4s0.1,0.2,0.2,0.3
		c0.1,0.1,0.2,0.2,0.3,0.2s0.3,0.1,0.4,0.1c0.2,0,0.4,0,0.5-0.2c0.1-0.1,0.2-0.3,0.3-0.5h0.5C143,40.7,142.9,41,142.6,41.1z
		 M142.5,39.1c0-0.1-0.1-0.2-0.2-0.3c-0.1-0.1-0.2-0.1-0.3-0.2c-0.1,0-0.2-0.1-0.4-0.1c-0.1,0-0.3,0-0.4,0.1c-0.1,0-0.2,0.1-0.3,0.2
		s-0.1,0.2-0.2,0.3c0,0.1-0.1,0.2-0.1,0.3h1.8C142.6,39.4,142.5,39.3,142.5,39.1z"/>
	<path class="st1" d="M144.1,38.2v0.7h0c0.1-0.3,0.3-0.4,0.5-0.6c0.2-0.1,0.4-0.2,0.7-0.2v0.5c-0.2,0-0.4,0-0.5,0.1
		c-0.1,0.1-0.3,0.1-0.3,0.2c-0.1,0.1-0.2,0.2-0.2,0.4c0,0.2-0.1,0.3-0.1,0.5v1.4h-0.5v-3.1H144.1z"/>
	<path class="st1" d="M147.7,41.1c-0.2,0.2-0.5,0.3-0.9,0.3c-0.2,0-0.5,0-0.6-0.1c-0.2-0.1-0.3-0.2-0.5-0.3
		c-0.1-0.1-0.2-0.3-0.3-0.5c-0.1-0.2-0.1-0.4-0.1-0.7c0-0.2,0-0.5,0.1-0.6s0.2-0.4,0.3-0.5c0.1-0.1,0.3-0.3,0.5-0.3s0.4-0.1,0.6-0.1
		c0.3,0,0.5,0.1,0.7,0.2c0.2,0.1,0.3,0.3,0.4,0.4c0.1,0.2,0.2,0.4,0.2,0.6s0.1,0.4,0.1,0.6h-2.3c0,0.1,0,0.3,0,0.4s0.1,0.2,0.2,0.3
		c0.1,0.1,0.2,0.2,0.3,0.2s0.3,0.1,0.4,0.1c0.2,0,0.4,0,0.5-0.2c0.1-0.1,0.2-0.3,0.3-0.5h0.5C148.1,40.7,148,41,147.7,41.1z
		 M147.6,39.1c0-0.1-0.1-0.2-0.2-0.3c-0.1-0.1-0.2-0.1-0.3-0.2c-0.1,0-0.2-0.1-0.4-0.1c-0.1,0-0.3,0-0.4,0.1c-0.1,0-0.2,0.1-0.3,0.2
		S146,39,146,39.1c0,0.1-0.1,0.2-0.1,0.3h1.8C147.7,39.4,147.7,39.3,147.6,39.1z"/>
	<path class="st1" d="M151,41.3v-0.4h0c-0.1,0.2-0.2,0.3-0.4,0.4c-0.2,0.1-0.4,0.1-0.6,0.1c-0.2,0-0.4,0-0.6-0.1
		c-0.2-0.1-0.3-0.2-0.4-0.4s-0.2-0.3-0.3-0.5c-0.1-0.2-0.1-0.4-0.1-0.6c0-0.2,0-0.4,0.1-0.6c0.1-0.2,0.1-0.4,0.3-0.5
		c0.1-0.1,0.3-0.3,0.4-0.3s0.4-0.1,0.6-0.1c0.1,0,0.2,0,0.3,0c0.1,0,0.2,0,0.3,0.1s0.2,0.1,0.3,0.2c0.1,0.1,0.2,0.1,0.2,0.2h0V37
		h0.5v4.3H151z M149.2,40.2c0,0.1,0.1,0.3,0.2,0.4c0.1,0.1,0.2,0.2,0.3,0.3c0.1,0.1,0.3,0.1,0.4,0.1c0.2,0,0.3,0,0.4-0.1
		c0.1-0.1,0.2-0.2,0.3-0.3s0.1-0.2,0.2-0.4c0-0.1,0.1-0.3,0.1-0.4c0-0.2,0-0.3-0.1-0.4c0-0.1-0.1-0.3-0.2-0.4
		c-0.1-0.1-0.2-0.2-0.3-0.3s-0.3-0.1-0.5-0.1c-0.2,0-0.3,0-0.4,0.1s-0.2,0.2-0.3,0.3c-0.1,0.1-0.1,0.2-0.2,0.4c0,0.1,0,0.3,0,0.4
		C149.1,40,149.2,40.1,149.2,40.2z"/>
	<path class="st1" d="M154.5,37v1.6h0c0.1-0.2,0.2-0.3,0.4-0.4c0.2-0.1,0.4-0.1,0.6-0.1c0.2,0,0.4,0,0.6,0.1s0.3,0.2,0.4,0.4
		c0.1,0.1,0.2,0.3,0.3,0.5s0.1,0.4,0.1,0.6s0,0.4-0.1,0.6s-0.1,0.4-0.3,0.5c-0.1,0.1-0.3,0.3-0.4,0.3s-0.4,0.1-0.6,0.1
		c-0.1,0-0.2,0-0.3,0s-0.2,0-0.3-0.1c-0.1,0-0.2-0.1-0.3-0.1c-0.1-0.1-0.2-0.1-0.2-0.2h0v0.4H154V37H154.5z M156.4,39.3
		c0-0.1-0.1-0.3-0.2-0.4c-0.1-0.1-0.2-0.2-0.3-0.3c-0.1-0.1-0.3-0.1-0.4-0.1c-0.2,0-0.3,0-0.4,0.1s-0.2,0.2-0.3,0.3
		c-0.1,0.1-0.1,0.2-0.2,0.4c0,0.1-0.1,0.3-0.1,0.4c0,0.2,0,0.3,0.1,0.4c0,0.1,0.1,0.3,0.2,0.4c0.1,0.1,0.2,0.2,0.3,0.3
		c0.1,0.1,0.3,0.1,0.5,0.1s0.3,0,0.4-0.1c0.1-0.1,0.2-0.2,0.3-0.3c0.1-0.1,0.1-0.2,0.2-0.4c0-0.1,0-0.3,0-0.4
		C156.4,39.6,156.4,39.5,156.4,39.3z"/>
	<path class="st1" d="M158.8,41.7c-0.1,0.2-0.1,0.3-0.2,0.4c-0.1,0.1-0.1,0.2-0.2,0.3c-0.1,0.1-0.1,0.1-0.2,0.1c-0.1,0-0.2,0-0.3,0
		c-0.1,0-0.1,0-0.2,0c-0.1,0-0.1,0-0.2,0v-0.5c0,0,0.1,0,0.2,0.1c0.1,0,0.1,0,0.1,0c0.1,0,0.2,0,0.3-0.1c0.1,0,0.1-0.1,0.2-0.2
		l0.2-0.5l-1.2-3.1h0.6l0.9,2.5h0l0.9-2.5h0.5L158.8,41.7z"/>
</g>
</svg>
