<?xml version="1.0" encoding="utf-8"?>
<!-- Generator: Adobe Illustrator 15.0.0, SVG Export Plug-In . SVG Version: 6.00 Build 0)  -->
<!DOCTYPE svg PUBLIC "-//W3C//DTD SVG 1.1//EN" "http://www.w3.org/Graphics/SVG/1.1/DTD/svg11.dtd">
<svg version="1.1" id="Layer_1" xmlns="http://www.w3.org/2000/svg" xmlns:xlink="http://www.w3.org/1999/xlink" x="0px" y="0px"
	 width="85px" height="32px" viewBox="0 0 85 32" style="enable-background:new 0 0 85 32;" xml:space="preserve">
<style type="text/css">
<![CDATA[
	.st0{fill:none;stroke:#F26766;stroke-miterlimit:10;}
	.st1{fill:#F26766;}
]]>
</style>
<rect x="1.1" y="2.2" class="st0" width="82.8" height="28.2"/>
<g>
	<path class="st1" d="M13.4,10.3c0.6-0.1,1.4-0.2,2.3-0.2c1.3,0,2.1,0.2,2.7,0.7c0.5,0.4,0.8,1,0.8,1.7c0,1-0.6,1.8-1.7,2.1v0
		c0.9,0.2,2,1,2,2.4c0,0.8-0.3,1.5-0.8,2c-0.7,0.6-1.8,0.9-3.4,0.9c-0.9,0-1.5-0.1-2-0.1V10.3z M14.7,14.4h1.1
		c1.3,0,2.1-0.7,2.1-1.7c0-1.1-0.9-1.6-2.1-1.6c-0.6,0-0.9,0-1.1,0.1V14.4z M14.7,19c0.3,0,0.6,0.1,1.1,0.1c1.3,0,2.5-0.5,2.5-1.9
		c0-1.3-1.1-1.9-2.5-1.9h-1V19z"/>
	<path class="st1" d="M27.6,16.4c0,2.6-1.8,3.7-3.5,3.7c-1.9,0-3.4-1.4-3.4-3.6c0-2.3,1.6-3.7,3.5-3.7
		C26.3,12.8,27.6,14.3,27.6,16.4z M22.1,16.5c0,1.5,0.9,2.7,2.1,2.7c1.2,0,2.1-1.1,2.1-2.7c0-1.2-0.6-2.7-2.1-2.7
		C22.7,13.8,22.1,15.2,22.1,16.5z"/>
	<path class="st1" d="M35.6,16.4c0,2.6-1.8,3.7-3.5,3.7c-1.9,0-3.4-1.4-3.4-3.6c0-2.3,1.6-3.7,3.5-3.7
		C34.2,12.8,35.6,14.3,35.6,16.4z M30.1,16.5c0,1.5,0.9,2.7,2.1,2.7c1.2,0,2.1-1.1,2.1-2.7c0-1.2-0.6-2.7-2.1-2.7
		C30.7,13.8,30.1,15.2,30.1,16.5z"/>
	<path class="st1" d="M38.5,16.2L38.5,16.2c0.2-0.2,0.4-0.6,0.6-0.8l2.1-2.4h1.5L40,15.9l3.1,4.1h-1.6l-2.4-3.4l-0.7,0.7V20h-1.3
		V9.7h1.3V16.2z"/>
	<path class="st1" d="M47.1,14.9c0-0.7,0-1.3-0.1-1.9h1.1l0.1,1.2h0c0.3-0.7,1.2-1.3,2.3-1.3c1,0,2.5,0.6,2.5,3V20h-1.3v-4.1
		c0-1.1-0.4-2.1-1.6-2.1c-0.8,0-1.5,0.6-1.7,1.3c-0.1,0.2-0.1,0.4-0.1,0.6V20h-1.3V14.9z"/>
	<path class="st1" d="M61.5,16.4c0,2.6-1.8,3.7-3.5,3.7c-1.9,0-3.4-1.4-3.4-3.6c0-2.3,1.6-3.7,3.5-3.7
		C60.2,12.8,61.5,14.3,61.5,16.4z M56,16.5c0,1.5,0.9,2.7,2.1,2.7c1.2,0,2.1-1.1,2.1-2.7c0-1.2-0.6-2.7-2.1-2.7
		C56.6,13.8,56,15.2,56,16.5z"/>
	<path class="st1" d="M63.6,13l0.9,3.6c0.2,0.8,0.4,1.5,0.5,2.2h0c0.2-0.7,0.4-1.5,0.6-2.2l1.1-3.6h1.1l1.1,3.5
		c0.3,0.8,0.5,1.6,0.6,2.3h0c0.1-0.7,0.3-1.5,0.5-2.3l1-3.5h1.3l-2.3,7H69L68,16.6c-0.2-0.8-0.5-1.5-0.6-2.3h0
		c-0.2,0.8-0.4,1.6-0.6,2.3L65.5,20h-1.2l-2.1-7H63.6z"/>
</g>
</svg>
