<?xml version="1.0" encoding="utf-8"?>
<!-- Generator: Adobe Illustrator 15.0.0, SVG Export Plug-In . SVG Version: 6.00 Build 0)  -->
<!DOCTYPE svg PUBLIC "-//W3C//DTD SVG 1.1//EN" "http://www.w3.org/Graphics/SVG/1.1/DTD/svg11.dtd">
<svg version="1.1" id="niños_x5F_02_xA0_Image_1_"
	 xmlns="http://www.w3.org/2000/svg" xmlns:xlink="http://www.w3.org/1999/xlink" x="0px" y="0px" width="1098.2px"
	 height="1098.2px" viewBox="0 0 1098.2 1098.2" style="enable-background:new 0 0 1098.2 1098.2;" xml:space="preserve">
<style type="text/css">
<![CDATA[
	.st0{fill-rule:evenodd;clip-rule:evenodd;fill:#FFFFFF;}
	.st1{fill-rule:evenodd;clip-rule:evenodd;fill:#00989A;}
]]>
</style>
<g>
	<path class="st1" d="M167.5,0c254.4,0,508.8,0,763.2,0c49.4,3.3,84,21.8,111.6,46.8c26.4,24,48,59.8,54.2,103.9
		c3.4,23.9,1.7,51.3,1.7,77.5c0,224,0,447.5,0,672.5c0,13.2,0.4,26.1-0.7,38.6c-4.3,46.4-25.1,82-50.6,107.5
		c-25.4,25.4-61.1,46.6-107.8,50.6c-25.1,2.2-51.9,0.7-78.5,0.7c-211.6,0-421.6,0-632.9,0c-26.2,0-53.4,1.7-77.3-1.7
		c-44.4-6.2-79-27.5-103.7-54.5C21.7,1014.7,3.5,980.4,0,930.7c0-254.4,0-508.8,0-763.2c0.2-0.1,0.3-0.2,0.2-0.5
		C3.4,115.4,24,78.9,51.6,51.4C79.2,23.7,116.1,3.4,167.5,0z M624,308.2c-19.3-16.1-46.5-28.6-82.1-26.9
		c-30.9,1.5-54.9,14.5-73,30.2c-13.8,12-24.5,27.1-31.7,45.1c-2.5,6.2-4,12.8-6.2,19.4c-0.5-0.4-2.6-0.3-3.1,0
		c-1.1-14.6-6.6-25.6-15.1-33.6c-8.2-7.7-20.2-14-35.3-13.7c-15.2,0.3-26.1,6.9-34.1,14.9c-8.3,8.3-14,19.3-14.4,34.6
		c30.9,0,61.8,0,92.6,0c-5.9,5.7-2,17.8,7.4,16.8c-0.6,40.1,13.3,68.3,33.6,88.6c20,20,47,36.2,85.9,36.2c39,0,65.8-16.6,85.7-36.5
		c20.5-20.5,33.6-49,33.4-88.6c8.5,0.9,12.4-6.6,10.3-13.2c30.4,0,60.8,0,91.2,0c-0.4-14.8-5.8-26.1-13.7-34.3
		c-7.9-8.2-18.5-14.2-33.1-15.1c-15-1-27,4.9-35.5,12.2c-8.8,7.7-14.4,18-16.6,31.7c-1.6-0.6-3.9,0.2-5.3-0.2
		C658.5,346.3,644.1,324.9,624,308.2z M672.5,711.4c0-18.3-0.6-35.5-4.3-50.9c-6.9-28.6-21.4-53-40.1-69.8
		c-19.9-17.9-44-28.7-83.3-26.9c-32.8,1.5-54.6,16.8-71.3,34.6c-16.7,17.8-28.8,42-34.1,70.8c-2.9,15.5-2.6,32.2-2.6,49.7
		c0,52.1,0,105.8,0,157.4c78.6,0,157.1,0,235.7,0C672.5,821.6,672.5,765.8,672.5,711.4z M501.1,899c0,21.7,0,43.5,0,65.5
		c0,7.2-1.1,15.4,1,20.9c2.8,7.6,12.1,12.6,20.9,9.1c4.1-1.6,7.8-5.7,9.1-10.1c1.7-5.7,0.5-14.2,0.5-21.1c0-21.7,0-44.2,0-65
		c-10.4,0-20.8,0-31.2,0C501.1,898.4,501.1,898.7,501.1,899z M573.4,899c0,22,0,43.9,0,66.2c0,7.3-1,15.5,1.2,20.9
		c1.6,3.8,5.4,6.9,8.2,8.2c9.3,4,19.3-1.7,21.6-9.8c1.7-5.7,0.5-14.2,0.5-21.1c0-21.7,0-44.2,0-65c-10.4,0-20.8,0-31.2,0
		C573.3,898.4,573.3,898.7,573.4,899z"/>
	<path class="st0" d="M665,375.8c1.4,0.4,3.6-0.4,5.3,0.2c2.2-13.7,7.7-24,16.6-31.7c8.5-7.4,20.5-13.2,35.5-12.2
		c14.6,0.9,25.2,6.9,33.1,15.1c7.9,8.3,13.3,19.5,13.7,34.3c-30.4,0-60.8,0-91.2,0c2.1,6.6-1.8,14.1-10.3,13.2
		c0.2,39.6-12.9,68.1-33.4,88.6c-19.9,19.9-46.7,36.5-85.7,36.5c-38.9,0-65.9-16.2-85.9-36.2c-20.3-20.3-34.2-48.5-33.6-88.6
		c-9.4,1-13.3-11.1-7.4-16.8c-30.9,0-61.8,0-92.6,0c0.4-15.2,6.1-26.2,14.4-34.6c8-8,18.9-14.5,34.1-14.9c15-0.3,27,6,35.3,13.7
		c8.5,8,14,19,15.1,33.6c0.6-0.3,2.6-0.4,3.1,0c2.3-6.7,3.8-13.3,6.2-19.4c7.2-18,17.9-33.1,31.7-45.1c18-15.8,42-28.8,73-30.2
		c35.6-1.7,62.8,10.8,82.1,26.9C644.1,324.9,658.5,346.3,665,375.8z"/>
	<path class="st0" d="M672.5,876.2c-78.6,0-157.1,0-235.7,0c0-51.6,0-105.3,0-157.4c0-17.5-0.2-34.2,2.6-49.7
		c5.3-28.8,17.4-53,34.1-70.8c16.7-17.8,38.5-33,71.3-34.6c39.3-1.9,63.3,9,83.3,26.9c18.7,16.8,33.2,41.3,40.1,69.8
		c3.7,15.4,4.3,32.6,4.3,50.9C672.5,765.8,672.5,821.6,672.5,876.2z"/>
	<path class="st0" d="M501.4,898.3c10.4,0,20.8,0,31.2,0c0,20.9,0,43.3,0,65c0,6.9,1.2,15.4-0.5,21.1c-1.3,4.4-5.1,8.5-9.1,10.1
		c-8.8,3.5-18-1.5-20.9-9.1c-2-5.5-1-13.7-1-20.9c0-22.1,0-43.8,0-65.5C501.1,898.7,501.1,898.4,501.4,898.3z"/>
	<path class="st0" d="M573.6,898.3c10.4,0,20.8,0,31.2,0c0,20.9,0,43.3,0,65c0,6.9,1.2,15.4-0.5,21.1c-2.3,8.1-12.3,13.9-21.6,9.8
		c-2.8-1.2-6.6-4.4-8.2-8.2c-2.2-5.3-1.2-13.6-1.2-20.9c0-22.3,0-44.3,0-66.2C573.3,898.7,573.3,898.4,573.6,898.3z"/>
</g>
</svg>
