<?xml version="1.0" encoding="utf-8"?>
<!-- Generator: Adobe Illustrator 15.0.0, SVG Export Plug-In . SVG Version: 6.00 Build 0)  -->
<!DOCTYPE svg PUBLIC "-//W3C//DTD SVG 1.1//EN" "http://www.w3.org/Graphics/SVG/1.1/DTD/svg11.dtd">
<svg version="1.1" id="casa_x5F_02_xA0_Image_1_" xmlns="http://www.w3.org/2000/svg" xmlns:xlink="http://www.w3.org/1999/xlink"
	 x="0px" y="0px" width="1098.2px" height="1098.2px" viewBox="0 0 1098.2 1098.2"
	 style="enable-background:new 0 0 1098.2 1098.2;" xml:space="preserve">
<style type="text/css">
<![CDATA[
	.st0{fill-rule:evenodd;clip-rule:evenodd;fill:#FFFFFF;}
	.st1{fill-rule:evenodd;clip-rule:evenodd;fill:#00989A;}
]]>
</style>
<g>
	<path class="st1" d="M167.5,0c254.4,0,508.8,0,763.2,0c49.4,3.3,84,21.8,111.6,46.8c26.4,24,48,59.8,54.2,103.9
		c3.4,23.9,1.7,51.3,1.7,77.5c0,224,0,447.5,0,672.5c0,13.2,0.4,26.1-0.7,38.6c-4.3,46.4-25.1,82-50.6,107.5
		c-25.4,25.4-61.1,46.6-107.8,50.6c-25.1,2.2-51.9,0.7-78.5,0.7c-211.6,0-421.6,0-632.9,0c-26.2,0-53.4,1.7-77.3-1.7
		c-44.4-6.2-79-27.5-103.7-54.5C21.7,1014.7,3.5,980.4,0,930.7c0-254.4,0-508.8,0-763.2c0.2-0.1,0.3-0.2,0.2-0.5
		C3.4,115.4,24,78.9,51.6,51.4C79.2,23.7,116.1,3.4,167.5,0z M846.2,499c2.5-30.4-15.8-44.5-30.5-59.5
		c-14.9-15.2-29.5-30.9-43.9-46.3c-43.7-46.9-87.9-93-131.8-139.4c-14.3-15.1-28.8-30.8-43.9-46.3c-7.2-7.4-14-16.1-23-22.1
		c-9.4-6.3-22.3-10.7-36.5-9.4c-26.4,2.4-39.4,20.2-53.3,35.3c-14.3,15.5-29,30.9-43.2,45.6c-29.5,30.6-57.4,61-86.4,91.2
		c-14.8,15.4-29.1,30.3-43.2,45.6c-14.1,15.3-29.2,29.7-43.4,45.4c-14.2,15.7-31.8,27.5-31,57.8c0.4,13,5.7,24,12.2,32.2
		c7,8.7,16.4,15.2,28.1,18.5c0.9,19.8,0.5,41.6,0.5,62.6c0,100.7,0,198.7,0,299c0,10.6-0.3,20.2,0,29.8c0.3,9.4,2.9,16.9,6.2,23.8
		c6.5,13.3,17.3,23.3,31.2,28.8c14.3,5.6,36.1,4.1,55.7,4.1c11,0,20.8,0.7,29-0.7c8.4-1.4,15.6-4.6,21.6-8.4
		c12.2-7.8,21.2-18.4,25.7-34.1c2.3-8,1.9-17.5,1.9-28.1c0-30.1,0-60.2,0-89.8c0-10.5-0.4-20.7,0.2-29.5c1.9-26.7,17.5-44,37.2-52.6
		c6.8-3,15.2-5,25-5c9.5,0,19.8,0,30,0c21.8,0,40-1.1,54.2,5.5c18.5,8.6,35.1,27.2,35.8,53.8c0.9,38.7,0.5,80,0.5,119.3
		c0,10.4,0,19.7,2.4,27.6c4.5,15.1,14,26.3,26.2,33.6c6.1,3.7,13.6,6.7,21.8,7.9c8.6,1.2,18.4,0.5,29.5,0.5c10,0,20.3,0,30,0
		c9.8,0,18.2-1.5,25.4-4.6c19.4-8,35.8-26.7,36.2-53.3c0.1-9.5,0-19.3,0-30c0-119.9,0-239.9,0-359
		C825.8,542.3,844.1,525.6,846.2,499z M830.9,300c6.1-6.1,13.1-12.5,19.2-19.2c6-6.6,11.3-15.7,12-26.6c1.1-17-5.7-28.7-14.6-36.5
		c-7.6-6.6-18-11.9-32.4-10.8c-11.2,0.8-20.4,5.9-26.9,12.2c-17.6,17.2-34.9,35.2-52.6,52.8c-1.2,1.2-4.8,4.2-4.8,4.8
		c0,0.2,2.9,2.9,3.8,3.8c19.5,19.5,38.8,38.4,57.6,57.6C805.2,325.7,817.8,313.1,830.9,300z"/>
	<path class="st0" d="M802.8,548.6c0,119.2,0,239.2,0,359c0,10.7,0.1,20.5,0,30c-0.4,26.6-16.9,45.3-36.2,53.3
		c-7.3,3-15.6,4.6-25.4,4.6c-9.7,0-20,0-30,0c-11.1,0-20.9,0.7-29.5-0.5c-8.2-1.2-15.7-4.2-21.8-7.9c-12.1-7.3-21.7-18.5-26.2-33.6
		c-2.4-7.9-2.4-17.2-2.4-27.6c0-39.3,0.4-80.6-0.5-119.3c-0.6-26.5-17.3-45.2-35.8-53.8c-14.2-6.6-32.5-5.5-54.2-5.5
		c-10.2,0-20.5,0-30,0c-9.8,0-18.2,2.1-25,5c-19.7,8.6-35.3,25.9-37.2,52.6c-0.6,8.8-0.2,19-0.2,29.5c0,29.6,0,59.6,0,89.8
		c0,10.6,0.3,20.1-1.9,28.1c-4.5,15.7-13.5,26.3-25.7,34.1c-6,3.8-13.2,7-21.6,8.4c-8.3,1.4-18,0.7-29,0.7
		c-19.6,0-41.4,1.6-55.7-4.1c-13.9-5.5-24.7-15.5-31.2-28.8c-3.4-6.9-5.9-14.3-6.2-23.8c-0.3-9.6,0-19.2,0-29.8
		c0-100.3,0-198.3,0-299c0-21,0.4-42.9-0.5-62.6c-11.6-3.3-21.1-9.8-28.1-18.5c-6.5-8.2-11.9-19.2-12.2-32.2
		c-0.8-30.4,16.7-42.2,31-57.8c14.2-15.6,29.3-30.1,43.4-45.4c14.1-15.3,28.4-30.2,43.2-45.6c29-30.2,56.9-60.6,86.4-91.2
		c14.2-14.7,28.9-30.1,43.2-45.6c13.9-15.1,26.9-32.8,53.3-35.3c14.1-1.3,27.1,3.1,36.5,9.4c9,6,15.8,14.7,23,22.1
		c15.1,15.5,29.6,31.2,43.9,46.3c43.9,46.4,88,92.6,131.8,139.4c14.4,15.5,29,31.1,43.9,46.3c14.7,15,33,29.1,30.5,59.5
		C844.1,525.6,825.8,542.3,802.8,548.6z"/>
	<path class="st0" d="M792.2,338.2c-18.8-19.2-38.1-38.1-57.6-57.6c-1-1-3.8-3.6-3.8-3.8c0-0.6,3.6-3.6,4.8-4.8
		c17.6-17.6,35-35.6,52.6-52.8c6.5-6.4,15.7-11.4,26.9-12.2c14.4-1.1,24.8,4.2,32.4,10.8c9,7.8,15.8,19.5,14.6,36.5
		c-0.7,11-6,20-12,26.6c-6.1,6.7-13.1,13.1-19.2,19.2C817.8,313.1,805.2,325.7,792.2,338.2z"/>
</g>
</svg>
