<?xml version="1.0" encoding="utf-8"?>
<!-- Generator: Adobe Illustrator 15.0.0, SVG Export Plug-In . SVG Version: 6.00 Build 0)  -->
<!DOCTYPE svg PUBLIC "-//W3C//DTD SVG 1.1//EN" "http://www.w3.org/Graphics/SVG/1.1/DTD/svg11.dtd">
<svg version="1.1" id="Layer_1" xmlns="http://www.w3.org/2000/svg" xmlns:xlink="http://www.w3.org/1999/xlink" x="0px" y="0px"
	 width="200px" height="200px" viewBox="0 0 200 200" style="enable-background:new 0 0 200 200;" xml:space="preserve">
<style type="text/css">
<![CDATA[
	.st0{fill:#6B6B6B;}
]]>
</style>
<g>
	<path class="st0" d="M166.3,120.7c1.4,4.9,2.1,9,2.1,12.5c0,8.6-2,16.2-6,22.8c-3.7,6.3-8.7,11.3-15,15c-7.7,4.6-14.9,7.6-21.5,9
		c-3.2,0.6-7.3,1.1-12.5,1.7v15H86v-15c-0.6,0-4.6-0.9-12-2.6c-8.6-2-15.9-5.3-21.9-9.9c-6.3-4.6-11.3-10.5-15-17.6
		c-3.7-7.2-5.7-15-6-23.6h29.6c0,5.7,1,10.5,3,14.2c2,3.7,5,7,9,9.9c4,2.6,8.4,4.6,13.3,6v-51.6l-11.6-2.6c-7.2-1.7-13-4-17.6-6.9
		c-4.6-2.9-8.5-6.2-11.6-9.9c-2.6-2.9-4.6-6.6-6-11.2c-1.1-3.4-1.7-7.4-1.7-12c0-7.7,1.7-14.6,5.2-20.6c3.4-5.7,8.2-10.6,14.2-14.6
		c6.6-4,13.2-6.9,19.8-8.6c1.7-0.6,4.9-1.1,9.5-1.7V4.2h27.5v14.2l10.3,2.6c8,2.3,14.9,5.4,20.6,9.5c6,4.3,10.7,9.6,14.2,15.9
		c3.1,5.7,4.9,12.3,5.2,19.8h-29.6c-1.4-9.2-5.2-15.8-11.2-19.8c-4.3-2.3-7.5-3.7-9.5-4.3v45.5c1.1,0.3,2.9,0.7,5.2,1.3
		c2.3,0.6,4.1,1,5.6,1.3c1.4,0.3,3.5,0.8,6.2,1.5c2.7,0.7,4.5,1.2,5.4,1.5c4.6,1.4,9.3,3.6,14.2,6.4c4.6,3.2,8,6.3,10.3,9.5
		C163.2,112.8,165.2,116.7,166.3,120.7z M86,80.7V41.2c-4.6,1.4-7.6,2.4-9,3c-2.6,1.4-5,3.6-7.3,6.4c-2,2.3-3,5.6-3,9.9
		c0,6,1.9,10.5,5.6,13.3C75.1,76.4,79.7,78.7,86,80.7z M137.1,144.7c1.1-2.6,1.7-5.4,1.7-8.6c0-6-1.4-10.5-4.3-13.3
		c-2.6-2.6-5.9-4.6-9.9-6c-0.9-0.3-4.6-1.4-11.2-3.4v46c1.7-0.3,3.7-0.7,6-1.3c4-1.1,7.9-3,11.6-5.6
		C133.7,150.8,135.7,148.2,137.1,144.7z"/>
</g>
</svg>
