<?xml version="1.0" encoding="utf-8"?>
<!-- Generator: Adobe Illustrator 15.0.0, SVG Export Plug-In . SVG Version: 6.00 Build 0)  -->
<!DOCTYPE svg PUBLIC "-//W3C//DTD SVG 1.1//EN" "http://www.w3.org/Graphics/SVG/1.1/DTD/svg11.dtd">
<svg version="1.1" id="Layer_1" xmlns="http://www.w3.org/2000/svg" xmlns:xlink="http://www.w3.org/1999/xlink" x="0px" y="0px"
	 width="200px" height="200px" viewBox="0 0 200 200" style="enable-background:new 0 0 200 200;" xml:space="preserve">
<style type="text/css">
<![CDATA[
	.st0{fill:#6B6B6B;}
]]>
</style>
<g>
	<path class="st0" d="M4.7,52.4h190v95H4.7V52.4z M4.7,171.1v-11.9h190v11.9H4.7z M76.3,135.5c-8.2-9.4-12.2-21.3-12.2-35.6
		c0-14.3,4.1-26.2,12.2-35.6h-36c0,6.4-2.4,12-7.1,16.7C28.6,85.6,23,88,16.6,88v29.7c4.9,0,9.1,1.7,12.6,5.2
		c3.5,3.5,5.2,7.7,5.2,12.6H76.3z M40.3,111.7c-7.9,0-11.9-4-11.9-11.9c0-7.9,4-11.9,11.9-11.9c7.9,0,11.9,4,11.9,11.9
		C52.2,107.8,48.3,111.7,40.3,111.7z M115.3,113.6c1-1.2,1.5-3.1,1.5-5.6c0-1.2-0.1-2.2-0.4-3c-0.5-1.5-1-2.5-1.5-3
		c-1-1-1.9-1.7-2.6-2.2c-1.5-1-2.7-1.6-3.7-1.9c-0.2,0-1.1-0.2-2.6-0.7c-0.2-0.2-0.7-0.4-1.5-0.4s-1.2,0-1.5,0V85.4
		c0.2,0.2,0.7,0.5,1.3,0.7c0.6,0.2,1,0.4,1.3,0.4c1.5,1,2.3,2.6,2.6,4.8h7.4c0-1.2-0.5-2.8-1.5-4.8c-0.7-1.7-1.9-3.1-3.3-4.1
		c-1.5-1-3.2-1.7-5.2-2.2c-1-0.5-1.9-0.7-2.6-0.7v-3.3h-6.7v3.3c-0.5,0-1.2,0.2-2.2,0.7c-2.5,0.5-4.2,1.1-5.2,1.9
		c-1.5,1.2-2.6,2.5-3.3,3.7c-1,2-1.5,3.7-1.5,5.2c0,1.2,0.1,2.2,0.4,3c0.2,1.2,0.7,2.1,1.5,2.6c1.2,1.2,2.2,2.1,3,2.6
		c1.5,1,3,1.6,4.5,1.9c0.2,0.2,0.7,0.4,1.5,0.4s1.2,0,1.5,0v13c-1.5-0.5-2.6-1-3.3-1.5c-1.2-0.7-2-1.6-2.2-2.6
		c-0.5-1.5-0.7-2.6-0.7-3.3h-7.4c0,1.5,0.5,3.5,1.5,5.9c1,1.5,2.2,2.8,3.7,4.1c2,1.5,3.8,2.4,5.6,2.6c1.5,0.5,2.5,0.7,3,0.7v3.3h6.7
		v-3.3c0.7,0,1.9-0.2,3.3-0.7c2.5-0.5,4.2-1.1,5.2-1.9C112.6,116.9,113.8,115.6,115.3,113.6z M92.3,87.6c0.2-0.5,0.9-1,1.9-1.5
		c1-0.5,1.7-0.7,2.2-0.7V95c-1.2-0.2-2.4-0.9-3.3-1.9c-1-1-1.5-2-1.5-3C91.6,89.5,91.8,88.6,92.3,87.6z M106,103.9
		c1,0.5,1.7,1,2.2,1.5c0.7,0.7,1.1,1.9,1.1,3.3c0,1-0.1,1.7-0.4,2.2c-0.5,1-1,1.6-1.5,1.9l-3,1.5l-0.4,0.4c-0.5,0-0.9,0-1.1,0v-11.5
		c0.2,0,0.7,0.1,1.5,0.2C105.3,103.5,105.8,103.7,106,103.9z M182.8,117.7V88c-6.4,0-12-2.3-16.7-7.1c-4.7-4.7-7.1-10.3-7.1-16.7
		h-36c8.2,9.4,12.2,21.3,12.2,35.6c0,14.4-4.1,26.2-12.2,35.6H165c0-4.9,1.7-9.1,5.2-12.6C173.7,119.4,177.9,117.7,182.8,117.7z
		 M159.1,111.7c-7.9,0-11.9-4-11.9-11.9c0-7.9,4-11.9,11.9-11.9c7.9,0,11.9,4,11.9,11.9C171,107.8,167,111.7,159.1,111.7z"/>
</g>
</svg>
