<?xml version="1.0" encoding="utf-8"?>
<!-- Generator: Adobe Illustrator 15.0.0, SVG Export Plug-In . SVG Version: 6.00 Build 0)  -->
<!DOCTYPE svg PUBLIC "-//W3C//DTD SVG 1.1//EN" "http://www.w3.org/Graphics/SVG/1.1/DTD/svg11.dtd">
<svg version="1.1" id="Layer_1" xmlns="http://www.w3.org/2000/svg" xmlns:xlink="http://www.w3.org/1999/xlink" x="0px" y="0px"
	 width="200px" height="200px" viewBox="0 0 200 200" style="enable-background:new 0 0 200 200;" xml:space="preserve">
<style type="text/css">
<![CDATA[
	.st0{fill:#6B6B6B;}
]]>
</style>
<g>
	<path class="st0" d="M149.8,169.2V79.9l6.9-6.9v103.1H19.2V45.5h110l-6.9,6.9H26.1v116.9H149.8z M94,112.5L167.5,39l4.7,4.7
		l-77.3,77.3H81.1v-13.8L158.4,30l4.7,4.7l-73.5,73.5L94,112.5z M182.5,24.9c1.1,1.7,1.7,3.2,1.7,4.3c0,1.1-0.6,2.6-1.7,4.3
		l-5.2,5.2l-9-9l-4.7-4.7l5.2-5.2c1.7-1.1,3.1-1.7,4.3-1.7c1.1,0,2.6,0.6,4.3,1.7L182.5,24.9z"/>
</g>
</svg>
