<?xml version="1.0" encoding="utf-8"?>
<!-- Generator: Adobe Illustrator 15.0.2, SVG Export Plug-In . SVG Version: 6.00 Build 0)  -->
<!DOCTYPE svg PUBLIC "-//W3C//DTD SVG 1.1//EN" "http://www.w3.org/Graphics/SVG/1.1/DTD/svg11.dtd">
<svg version="1.1" id="Layer_1" xmlns="http://www.w3.org/2000/svg" xmlns:xlink="http://www.w3.org/1999/xlink" x="0px" y="0px"
	 width="200px" height="200px" viewBox="0 0 200 200" enable-background="new 0 0 200 200" xml:space="preserve">
<g>
	<path fill="#6B6B6A" d="M33.546,33.56C51.905,15.201,74.032,6.014,99.926,6.014c25.888,0,48.015,9.187,66.38,27.546
		c18.359,18.366,27.547,40.493,27.547,66.38c0,25.895-9.188,48.021-27.547,66.38c-18.365,18.367-40.492,27.547-66.38,27.547
		c-25.895,0-48.021-9.18-66.38-27.547C15.18,147.962,6,125.835,6,99.94C6,74.053,15.18,51.926,33.546,33.56z M38.964,160.902
		c16.856,16.863,37.177,25.287,60.962,25.287c23.778,0,44.099-8.424,60.962-25.287c16.855-16.856,25.287-37.177,25.287-60.962
		c0-23.778-8.432-44.099-25.287-60.962c-16.863-16.856-37.185-25.288-60.962-25.288c-23.785,0-44.105,8.432-60.962,25.288
		C22.101,55.842,13.677,76.163,13.677,99.94C13.677,123.726,22.101,144.046,38.964,160.902z M101.732,50.268
		c7.521,0,13.921,2.258,19.191,6.773c5.264,4.516,7.902,10.541,7.902,18.062c0,7.832-3.916,15.354-11.74,22.579
		c-4.819,4.819-7.677,8.432-8.58,10.837c-0.902,2.414-1.51,6.774-1.807,13.096H98.12c0.296-11.438,4.812-21.068,13.547-28.9
		c5.716-5.115,8.58-10.838,8.58-17.16c0-5.419-1.807-9.779-5.419-13.095c-3.613-3.31-8.129-4.967-13.547-4.967
		c-7.226,0-12.722,1.806-16.482,5.418c-3.768,3.613-5.497,8.735-5.193,15.354h-8.58C71.026,59.603,81.257,50.268,101.732,50.268z
		 M96.314,136.518c1.502-1.503,3.309-2.258,5.418-2.258c2.103,0,3.909,0.755,5.419,2.258c1.503,1.51,2.258,3.316,2.258,5.419
		c0,2.109-0.755,3.915-2.258,5.419c-1.51,1.51-3.316,2.258-5.419,2.258c-2.109,0-3.916-0.748-5.418-2.258
		c-1.51-1.504-2.258-3.31-2.258-5.419C94.056,139.834,94.804,138.027,96.314,136.518z"/>
</g>
</svg>
