<?xml version="1.0" encoding="utf-8"?>
<!-- Generator: Adobe Illustrator 15.0.0, SVG Export Plug-In . SVG Version: 6.00 Build 0)  -->
<!DOCTYPE svg PUBLIC "-//W3C//DTD SVG 1.1//EN" "http://www.w3.org/Graphics/SVG/1.1/DTD/svg11.dtd">
<svg version="1.1" id="Layer_1" xmlns="http://www.w3.org/2000/svg" xmlns:xlink="http://www.w3.org/1999/xlink" x="0px" y="0px"
	 width="200px" height="200px" viewBox="0 0 200 200" style="enable-background:new 0 0 200 200;" xml:space="preserve">
<style type="text/css">
<![CDATA[
	.st0{fill:#6B6B6A;}
]]>
</style>
<g>
	<path class="st0" d="M92.7,149.3c9.5,2.9,17.4,8.5,23.8,17c6.4,8.5,11,17.7,13.5,27.7H3.8c2.6-10,7.1-19.3,13.5-27.7
		c6.4-8.4,14.4-14.1,23.8-17c8.3,4.6,16.9,6.9,25.8,6.9C75.8,156.2,84.4,153.9,92.7,149.3z M34.9,66.4c9-8.9,19.7-13.3,32-13.3
		c12.3,0,23,4.4,32,13.3c9,8.9,13.5,19.6,13.5,32.2c0,12.6-4.5,23.4-13.5,32.2c-9,8.9-19.7,13.3-32,13.3c-12.3,0-23-4.4-32-13.3
		c-9-8.9-13.5-19.6-13.5-32.2C21.4,86,25.9,75.3,34.9,66.4z M47.6,127.2c5.7,4.2,12.2,6.2,19.3,6.2c7.2,0,13.6-2.1,19.3-6.2
		c5.7-4.1,9.9-9.4,12.5-15.7H35.1C37.7,117.8,41.8,123,47.6,127.2z M121.9,87.4c-3.7-16.9-12.8-29.4-27.1-37.4
		C104,36,116.8,29,133.1,29c12.3,0,23,4.4,32,13.3c9,8.9,13.5,19.6,13.5,32.2c0,12.6-4.5,23.4-13.5,32.2c-9,8.9-19.7,13.3-32,13.3
		c-4.3,0-8.9-0.7-13.8-2.1c1.7-4.6,2.7-8.2,3-10.7c3.1,1.1,6.7,1.7,10.7,1.7c7.2,0,13.6-2,19.3-6c5.7-4,9.9-9.2,12.5-15.5H121.9z
		 M128.8,166.5c-7.5-11.5-16-19-25.8-22.8c4.3-3.4,8.3-8.4,12-15c6,2.3,12,3.4,18,3.4c8.9,0,17.5-2.3,25.8-6.9
		c19.2,5.7,31.6,19.5,37.4,41.2H128.8z"/>
</g>
</svg>
