<?xml version="1.0" encoding="utf-8"?>
<!-- Generator: Adobe Illustrator 15.0.0, SVG Export Plug-In . SVG Version: 6.00 Build 0)  -->
<!DOCTYPE svg PUBLIC "-//W3C//DTD SVG 1.1//EN" "http://www.w3.org/Graphics/SVG/1.1/DTD/svg11.dtd">
<svg version="1.1" id="Layer_1" xmlns="http://www.w3.org/2000/svg" xmlns:xlink="http://www.w3.org/1999/xlink" x="0px" y="0px"
	 width="200px" height="200px" viewBox="0 0 200 200" style="enable-background:new 0 0 200 200;" xml:space="preserve">
<style type="text/css">
<![CDATA[
	.st0{fill:#6B6B6A;}
]]>
</style>
<g>
	<path class="st0" d="M182.1,111.5l0.4,0.4l-2.6,2.6c-14.3,14.3-25.5,24.2-33.5,29.6c-15.5,10.3-30.9,15.5-46.4,15.5
		c-11.2,0-21.8-2.4-32-7.3c-10.2-4.9-18-9.7-23.4-14.6c-5.4-4.9-13.5-12.6-24.1-23.2l-3-3l0.4-0.4c15.8-16,29.2-27.6,40.4-34.8
		C72.1,67.7,86,63.4,100,63.4C126.9,63.4,154.3,79.4,182.1,111.5z M75.7,135.8c6.7,6.7,14.8,10.1,24.3,10.1s17.5-3.4,24.3-10.1
		c6.7-6.7,10.1-14.8,10.1-24.3S131,94,124.3,87.2c-6.7-6.7-14.8-10.1-24.3-10.1s-17.5,3.4-24.3,10.1C69,94,65.6,102,65.6,111.5
		S69,129,75.7,135.8z M97.4,99c0,4,1.5,7.5,4.5,10.5s6.5,4.5,10.5,4.5c3.1,0,5.9-0.9,8.2-2.6c0,5.7-2,10.6-6,14.6c-4,4-8.9,6-14.6,6
		c-5.7,0-10.6-2-14.6-6c-4-4-6-8.9-6-14.6c0-5.7,2-10.6,6-14.6c4-4,8.9-6,14.6-6C98.3,93.2,97.4,95.9,97.4,99z"/>
</g>
</svg>
