<?xml version="1.0" encoding="utf-8"?>
<!-- Generator: Adobe Illustrator 15.0.0, SVG Export Plug-In . SVG Version: 6.00 Build 0)  -->
<!DOCTYPE svg PUBLIC "-//W3C//DTD SVG 1.1//EN" "http://www.w3.org/Graphics/SVG/1.1/DTD/svg11.dtd">
<svg version="1.1" id="Layer_1" xmlns="http://www.w3.org/2000/svg" xmlns:xlink="http://www.w3.org/1999/xlink" x="0px" y="0px"
	 width="200px" height="200px" viewBox="0 0 200 200" style="enable-background:new 0 0 200 200;" xml:space="preserve">
<style type="text/css">
<![CDATA[
	.st0{fill:#6A6A6A;}
]]>
</style>
<g>
	<path class="st0" d="M146.3,128.7v-0.4h8.2l-1.3,2.6c-2,3.7-5.2,7.6-9.5,11.6c-3.2,2.9-7.2,5.7-12,8.6c-3.7,2.3-8.3,4.2-13.8,5.6
		c-5.2,1.4-10,2.1-14.6,2.1c-6.6,0-13.6-1.1-21.1-3.4c-6.6-2-12.7-5.4-18.5-10.3c-6.3-5.7-11.2-12.3-14.6-19.8
		c-2.9-6.6-4.3-14.9-4.3-24.9c0-8,1.6-15.9,4.7-23.6c2.9-6.6,7-12.6,12.5-18c4.6-4.6,10.7-8.6,18.5-12c6.3-2.6,13.9-3.9,22.8-3.9
		c6.9,0,13.5,1.1,19.8,3.4c6.6,2.3,12.2,5.4,16.8,9.5c3.4,3.2,6.9,8.2,10.3,15c2.3,4.9,3.4,11.2,3.4,18.9c0,6.6-1,12.3-3,17.2
		c-2.3,5.2-4.7,9.5-7.3,12.9c-4,4.3-7.3,7.3-9.9,9c-4.6,2.6-8.7,3.9-12.5,3.9c-3.7,0-6.6-1-8.6-3c-1.1-0.9-2-2.1-2.6-3.9
		c-2.6,2.9-5,4.6-7.3,5.2c-3.7,1.1-7.5,1.7-11.2,1.7c-3.7,0-6.7-0.6-9-1.7c-2.9-1.4-5.3-3.1-7.3-5.2c-1.7-1.7-3.3-4.3-4.7-7.7
		c-1.4-3.4-2.1-6.6-2.1-9.5c0-4.3,1-9.5,3-15.5v-0.9c2-5.2,3.9-8.9,5.6-11.2c3.1-4.3,7.2-8,12-11.2c4.9-3.1,10.3-4.7,16.3-4.7
		c4.6,0,9,1.3,13.3,3.9c2.6,1.4,4.9,3.7,6.9,6.9l2.6-7.3h7.7l-16.3,43.8c-1.1,2.9-1.9,4.9-2.1,6c-0.3,1.1-0.4,2.6-0.4,4.3
		c0,0.9,0.4,1.6,1.3,2.1c1.1,0.6,2.3,0.9,3.4,0.9c2,0,4.9-1,8.6-3c2-1.1,4.7-3.6,8.2-7.3c2.9-3.7,4.9-7.3,6-10.7
		c1.7-4.9,2.6-9.9,2.6-15c0-6-1-11.2-3-15.5c-2.9-6.3-5.6-10.6-8.2-12.9c-4-3.7-8.7-6.6-14.2-8.6c-5.2-2-11.2-3-18-3
		c-8,0-14.9,1.3-20.6,3.9c-6.3,2.6-11.6,6-15.9,10.3c-4.3,4-7.9,9.3-10.7,15.9c-2.9,7.2-4.3,14-4.3,20.6c0,9.2,1.1,16.2,3.4,21.1
		c2.9,6.9,6.9,12.7,12,17.6c4.9,4.6,10.3,7.9,16.3,9.9c5.7,2,12.3,3,19.8,3c4.9,0,9.2-0.6,12.9-1.7c4.6-1.4,8.4-3,11.6-4.7
		c3.7-2.3,7.2-4.9,10.3-7.7C142.7,133.2,145.4,130.2,146.3,128.7z M108.1,117.1c2-2.3,3.6-5.2,4.7-8.6l9-24.5
		c-1.1-2.9-2.1-4.7-3-5.6c-1.1-1.4-2.6-2.6-4.3-3.4h-0.4l-0.4-0.4c-1.1-0.9-2.4-1.4-3.9-1.7c-2.9-0.6-4.7-0.9-5.6-0.9
		c-4,0-8,1.3-12,3.9c-4.3,2.9-7.6,6-9.9,9.5c-2,3.2-3.4,6-4.3,8.6c0,0.3-0.1,0.9-0.4,1.7c-1.4,4-2.1,8.3-2.1,12.9
		c0,2.3,0.4,4.6,1.3,6.9c0.6,1.4,1.7,3.3,3.4,5.6c0.9,1.4,2.6,2.6,5.2,3.4c2,0.9,4.1,1.3,6.4,1.3c1.1,0,3.1-0.3,6-0.9
		c2.3-0.6,4-1.3,5.2-2.1C104.9,121.3,106.6,119.4,108.1,117.1z"/>
</g>
</svg>
