<?xml version="1.0" encoding="utf-8"?>
<!-- Generator: Adobe Illustrator 15.0.0, SVG Export Plug-In . SVG Version: 6.00 Build 0)  -->
<!DOCTYPE svg PUBLIC "-//W3C//DTD SVG 1.1//EN" "http://www.w3.org/Graphics/SVG/1.1/DTD/svg11.dtd">
<svg version="1.1" id="Layer_1" xmlns="http://www.w3.org/2000/svg" xmlns:xlink="http://www.w3.org/1999/xlink" x="0px" y="0px"
	 width="200px" height="200px" viewBox="0 0 200 200" style="enable-background:new 0 0 200 200;" xml:space="preserve">
<style type="text/css">
<![CDATA[
	.st0{fill:#6B6B6B;}
]]>
</style>
<g>
	<path class="st0" d="M132,135.7c12.9,4,23.8,10.2,32.7,18.5c8.9,8.3,14.8,17.9,17.6,28.8h-165c2.9-10.9,8.7-20.5,17.6-28.8
		c8.9-8.3,19.8-14.5,32.7-18.5c9.7,5.7,20.5,8.6,32.2,8.6C111.5,144.3,122.2,141.5,132,135.7z M59.5,34.5C70.6,23.5,84,18,99.7,18
		c15.8,0,29.1,5.5,40.2,16.5c11,11,16.5,24.4,16.5,40.2c0,15.8-5.5,29.2-16.5,40.2c-11,11-24.4,16.5-40.2,16.5
		c-15.8,0-29.2-5.5-40.2-16.5c-11-11-16.5-24.4-16.5-40.2C43,59,48.5,45.6,59.5,34.5z M75.7,109.7c7.2,5,15.2,7.5,24.1,7.5
		c8.9,0,16.9-2.5,24.1-7.5c7.2-5,12.3-11.5,15.5-19.6H60.2C63.3,98.2,68.5,104.7,75.7,109.7z"/>
</g>
</svg>
