<?xml version="1.0" encoding="utf-8"?>
<!-- Generator: Adobe Illustrator 15.0.0, SVG Export Plug-In . SVG Version: 6.00 Build 0)  -->
<!DOCTYPE svg PUBLIC "-//W3C//DTD SVG 1.1//EN" "http://www.w3.org/Graphics/SVG/1.1/DTD/svg11.dtd">
<svg version="1.1" id="Layer_1" xmlns="http://www.w3.org/2000/svg" xmlns:xlink="http://www.w3.org/1999/xlink" x="0px" y="0px"
	 width="200px" height="200px" viewBox="0 0 200 200" style="enable-background:new 0 0 200 200;" xml:space="preserve">
<style type="text/css">
<![CDATA[
	.st0{fill:#D9534F;}
]]>
</style>
<g>
	<path class="st0" d="M140.6,32.6c13.8,0,25.1,4,34,12.1c8.8,8.1,13.3,19.1,13.3,33.2c0,14.3-5.3,28-16,41
		c-10.4,12.8-23.4,24.2-39.1,34.4c-6.2,4.2-12.1,7.6-17.6,10.4s-9.4,4.5-11.7,5.3l-3.1,1.2c-7.3-1.8-18.1-7.4-32.4-16.8
		c-15.6-10.2-28.6-21.6-39.1-34.4c-10.7-13-16-26.7-16-41c0-14.1,4.4-25.1,13.3-33.2c8.9-8.1,20.2-12.1,34-12.1
		c8.1,0,15.8,1.8,23.2,5.5c7.4,3.6,13.1,8.7,17,15.2c3.9-6.5,9.6-11.6,17-15.2C124.8,34.4,132.6,32.6,140.6,32.6z"/>
</g>
</svg>
