<?xml version="1.0" encoding="utf-8"?>
<!-- Generator: Adobe Illustrator 15.0.0, SVG Export Plug-In . SVG Version: 6.00 Build 0)  -->
<!DOCTYPE svg PUBLIC "-//W3C//DTD SVG 1.1//EN" "http://www.w3.org/Graphics/SVG/1.1/DTD/svg11.dtd">
<svg version="1.1" id="Layer_1" xmlns="http://www.w3.org/2000/svg" xmlns:xlink="http://www.w3.org/1999/xlink" x="0px" y="0px"
	 width="200px" height="200px" viewBox="0 0 200 200" style="enable-background:new 0 0 200 200;" xml:space="preserve">
<style type="text/css">
<![CDATA[
	.st0{fill:#6A6A6A;}
]]>
</style>
<g>
	<path class="st0" d="M168.4,135.2c8.6,8.6,8.6,18,0,28.4c-3.4,4-6.8,7-10.1,9c-3.3,2-6,3.2-8.2,3.4c-2.1,0.3-5.2,0.4-9.2,0.4
		c-11.2,0-24.5-5.7-40-17.2c-12.3-8.9-23.5-18.5-33.5-28.8c-12.9-13.5-24.2-28.8-33.9-46c-8.6-16-11.2-29.2-7.7-39.5
		c1.7-5.4,5.7-10.2,12-14.2l0.4-0.4c5.2-3.4,9.7-5.2,13.8-5.2c5.4,0,10.3,2.6,14.6,7.7l0.4,0.4c6.6,8.6,11.2,15.3,13.8,20.2
		c4.3,8.9,4.1,16.5-0.4,22.8c-3.4,4.6-5.2,7.9-5.2,9.9c0,0.9,1.9,3.4,5.6,7.7l0.4,0.4c6.9,7.7,10.6,11.9,11.2,12.5
		c0.3,0,0.6,0.1,0.9,0.4c0.3,0.3,0.6,0.6,0.9,0.9L95,109c5.7,5.7,9.9,9.7,12.5,12l0.4,0.4c2.6,2.3,4.3,3.4,5.2,3.4
		c1.4,0,5.6-2.1,12.5-6.4c2-1.4,4.4-2.1,7.3-2.1c5.2,0,11.4,2.1,18.7,6.4S164.4,131.2,168.4,135.2z M163.3,158.8
		c3.7-5.2,5.4-8.8,5.2-11c-0.3-2.1-1.9-4.7-4.7-7.5c-3.2-3.4-8-7.1-14.6-11c-6.6-3.9-12-5.8-16.3-5.8c-1.1,0-2.3,0.3-3.4,0.9
		c-8.3,5.2-13.6,7.7-15.9,7.7c-2.3,0-5.6-1.9-9.9-5.6h-0.4c-5.2-4.3-9.5-8.4-12.9-12.5l-0.9-0.9c-0.3-0.3-0.9-0.7-1.7-1.3
		c-0.9-0.9-4.7-5.2-11.6-12.9v-0.4c-4.9-5.4-7.5-9.5-7.7-12c-0.3-3.4,2-8.3,6.9-14.6c4.9-6.3,0.4-17.6-13.3-33.9l-0.4-0.4
		c-2.9-3.4-6-5.2-9.5-5.2c-2.3,0-5.6,1.3-9.9,3.9l-0.9,0.4c-4.6,2.9-7.6,6.3-9,10.3c-2.9,8.6-0.4,19.9,7.3,33.9
		c9.2,16.9,20,31.8,32.7,44.7c8.9,9.2,19.8,18.3,32.7,27.5c15.2,10.9,27.2,16.3,36.1,16.3c5.2,0,9.2-0.6,12-1.7
		C155.8,166.7,159.3,163.7,163.3,158.8z"/>
</g>
</svg>
