<?xml version="1.0" encoding="utf-8"?>
<!-- Generator: Adobe Illustrator 15.0.0, SVG Export Plug-In . SVG Version: 6.00 Build 0)  -->
<!DOCTYPE svg PUBLIC "-//W3C//DTD SVG 1.1//EN" "http://www.w3.org/Graphics/SVG/1.1/DTD/svg11.dtd">
<svg version="1.1" id="Layer_1" xmlns="http://www.w3.org/2000/svg" xmlns:xlink="http://www.w3.org/1999/xlink" x="0px" y="0px"
	 width="200px" height="200px" viewBox="0 0 200 200" style="enable-background:new 0 0 200 200;" xml:space="preserve">
<style type="text/css">
<![CDATA[
	.st0{fill:#6B6B6B;}
]]>
</style>
<g>
	<path class="st0" d="M182.2,18H196v61.9L92.8,196.7l-10.7-10.3l-9.9,10.3L3.5,128l110-123.8h68.8V18z M72.2,186.9l5.2-5.2l4.7-5.2
		L175.3,70V24.9V18v-6.9h-58.9L12.9,128L72.2,186.9z M189.1,76.9v-52h-6.9V73l-95,108.7l5.6,5.2L189.1,76.9z M150.9,55.4
		c-2.6,2.6-5.9,3.9-9.9,3.9c-4,0-7.3-1.3-9.9-3.9s-3.9-5.9-3.9-9.9c0-4,1.3-7.3,3.9-9.9s5.9-3.9,9.9-3.9c4,0,7.3,1.3,9.9,3.9
		s3.9,5.9,3.9,9.9C154.7,49.5,153.4,52.8,150.9,55.4z M147.8,45.5c0-4.6-2.3-6.9-6.9-6.9c-4.6,0-6.9,2.3-6.9,6.9
		c0,4.6,2.3,6.9,6.9,6.9C145.6,52.4,147.8,50.1,147.8,45.5z"/>
</g>
</svg>
