<?xml version="1.0" encoding="utf-8"?>
<!-- Generator: Adobe Illustrator 15.0.0, SVG Export Plug-In . SVG Version: 6.00 Build 0)  -->
<!DOCTYPE svg PUBLIC "-//W3C//DTD SVG 1.1//EN" "http://www.w3.org/Graphics/SVG/1.1/DTD/svg11.dtd">
<svg version="1.1" id="Layer_1" xmlns="http://www.w3.org/2000/svg" xmlns:xlink="http://www.w3.org/1999/xlink" x="0px" y="0px"
	 width="200px" height="200px" viewBox="0 0 200 200" style="enable-background:new 0 0 200 200;" xml:space="preserve">
<style type="text/css">
<![CDATA[
	.st0{fill:#6B6B6B;}
]]>
</style>
<g>
	<path class="st0" d="M55.9,22.3c12-12,26.6-18,43.8-18s31.8,6,43.8,18s18,26.6,18,43.8c0,14.3-5.2,32.4-15.5,54.1
		c-10.3,21.8-20.6,40-30.9,54.6l-15.5,21.9c-4.6-6.3-10.3-14.4-17.2-24.3S66.5,146,55,122.6C43.6,99.3,37.8,80.4,37.8,66.1
		C37.8,48.9,43.9,34.3,55.9,22.3z M138.8,27c-10.6-10.6-23.6-15.9-39.1-15.9S71.2,16.4,60.6,27C50,37.6,44.7,50.6,44.7,66.1
		c0,18.9,10,45.5,30.1,79.9c9.5,16.3,17.8,29.4,24.9,39.1c7.2-9.7,15.5-22.8,24.9-39.1c20-34.4,30.1-61,30.1-79.9
		C154.7,50.6,149.4,37.6,138.8,27z M80.4,46.8c5.4-5.4,11.9-8.2,19.3-8.2c7.4,0,13.9,2.7,19.3,8.2c5.4,5.4,8.2,11.9,8.2,19.3
		c0,7.5-2.7,13.9-8.2,19.3c-5.4,5.4-11.9,8.2-19.3,8.2c-7.5,0-13.9-2.7-19.3-8.2c-5.4-5.4-8.2-11.9-8.2-19.3
		C72.2,58.7,74.9,52.2,80.4,46.8z M85.3,80.5c3.9,3.9,8.7,5.8,14.4,5.8c5.7,0,10.5-1.9,14.4-5.8s5.8-8.7,5.8-14.4
		c0-5.7-1.9-10.5-5.8-14.4s-8.7-5.8-14.4-5.8c-5.7,0-10.5,1.9-14.4,5.8s-5.8,8.7-5.8,14.4C79.5,71.8,81.5,76.6,85.3,80.5z"/>
</g>
</svg>
