<?xml version="1.0" encoding="utf-8"?>
<!-- Generator: Adobe Illustrator 15.0.0, SVG Export Plug-In . SVG Version: 6.00 Build 0)  -->
<!DOCTYPE svg PUBLIC "-//W3C//DTD SVG 1.1//EN" "http://www.w3.org/Graphics/SVG/1.1/DTD/svg11.dtd">
<svg version="1.1" id="Layer_1" xmlns="http://www.w3.org/2000/svg" xmlns:xlink="http://www.w3.org/1999/xlink" x="0px" y="0px"
	 width="200px" height="200px" viewBox="0 0 200 200" style="enable-background:new 0 0 200 200;" xml:space="preserve">
<style type="text/css">
<![CDATA[
	.st0{fill:#6B6B6A;}
]]>
</style>
<g>
	<path class="st0" d="M53.2,110.6c12.3,14.3,27.9,21.5,46.8,21.5c5.4,0,10.3-0.6,14.6-1.7L100,162.2l-20.6,45.5l-20.6-34.4H17.5
		L53.2,110.6z M61.1,31.4C71.9,20.6,84.8,15.2,100,15.2c15.2,0,28.1,5.4,38.9,16.1S155,55.1,155,70.2c0,15.2-5.4,28.1-16.1,38.9
		s-23.7,16.1-38.9,16.1c-15.2,0-28.1-5.4-38.9-16.1S45,85.4,45,70.2C45,55.1,50.4,42.1,61.1,31.4z M70.8,99.5c8,8,17.8,12,29.2,12
		c11.5,0,21.2-4,29.2-12c8-8,12-17.8,12-29.2c0-11.5-4-21.2-12-29.2c-8-8-17.8-12-29.2-12c-11.5,0-21.2,4-29.2,12
		c-8,8-12,17.8-12,29.2C58.8,81.7,62.8,91.5,70.8,99.5z M73.1,43.4c7.3-7.3,16.3-11,26.9-11c10.6,0,19.6,3.7,26.9,11
		s11,16.3,11,26.9c0,10.6-3.7,19.6-11,26.9s-16.3,11-26.9,11c-10.6,0-19.6-3.7-26.9-11s-11-16.3-11-26.9
		C62.2,59.7,65.8,50.7,73.1,43.4z M146.8,110.6l35.7,62.7h-41.2l-20.6,34.4l-17.2-37.8l19.3-42.1C131.9,124.1,140,118.4,146.8,110.6
		z"/>
</g>
</svg>
