<?xml version="1.0" encoding="utf-8"?>
<!-- Generator: Adobe Illustrator 15.0.0, SVG Export Plug-In . SVG Version: 6.00 Build 0)  -->
<!DOCTYPE svg PUBLIC "-//W3C//DTD SVG 1.1//EN" "http://www.w3.org/Graphics/SVG/1.1/DTD/svg11.dtd">
<svg version="1.1" id="Layer_1" xmlns="http://www.w3.org/2000/svg" xmlns:xlink="http://www.w3.org/1999/xlink" x="0px" y="0px"
	 width="200px" height="200px" viewBox="0 0 200 200" style="enable-background:new 0 0 200 200;" xml:space="preserve">
<style type="text/css">
<![CDATA[
	.st0{fill:#EEEEEE;}
]]>
</style>
<g>
	<path class="st0" d="M36.8,37.3C54.3,19.9,75.4,11.1,100,11.1c24.6,0,45.7,8.7,63.2,26.2c17.5,17.5,26.2,38.5,26.2,63.2
		c0,24.6-8.7,45.7-26.2,63.2c-17.5,17.5-38.5,26.2-63.2,26.2c-24.6,0-45.7-8.7-63.2-26.2c-17.5-17.5-26.2-38.5-26.2-63.2
		C10.6,75.9,19.4,54.8,36.8,37.3z M86.2,132.3l57.6-58l-7.7-7.7l-53.7,54.1l-20.2-20.2l-7.7,7.7l24.1,24.1c1.1,1.1,2.4,1.7,3.9,1.7
		C83.8,134,85.1,133.4,86.2,132.3z"/>
</g>
</svg>
