<?xml version="1.0" encoding="utf-8"?>
<!-- Generator: Adobe Illustrator 15.0.0, SVG Export Plug-In . SVG Version: 6.00 Build 0)  -->
<!DOCTYPE svg PUBLIC "-//W3C//DTD SVG 1.1//EN" "http://www.w3.org/Graphics/SVG/1.1/DTD/svg11.dtd">
<svg version="1.1" id="Layer_1" xmlns="http://www.w3.org/2000/svg" xmlns:xlink="http://www.w3.org/1999/xlink" x="0px" y="0px"
	 width="350px" height="140px" viewBox="0 0 350 140" style="enable-background:new 0 0 350 140;" xml:space="preserve">
<style type="text/css">
<![CDATA[
	.st0{fill:#FFFFFF;}
]]>
</style>
<path class="st0" d="M17.1,3C9.5,3,3.3,9.2,3.3,16.8V92c0,7.6,6.2,13.8,13.8,13.8c0,0,125.4,0,128.6,0c1.9,2.3,19.6,24,19.6,24
	c2.6,3.2,6.5,5.1,10.7,5.1h129.2c7.6,0,13.8-6.2,13.8-13.8c0,0,0-10.7,0-15.3c4.4,0,13.9,0,13.9,0c7.6,0,13.8-6.2,13.8-13.8V16.8
	c0-7.6-6.2-13.8-13.8-13.8H17.1 M10.2,92V16.8c0-3.8,3.1-6.9,6.9-6.9h315.7c3.8,0,6.9,3.1,6.9,6.9V92c0,3.8-3.1,6.9-6.9,6.9h-17.3
	c-1.9,0-3.4,1.5-3.4,3.4v18.7c0,3.8-3.1,6.9-6.9,6.9H175.9c-2.1,0-4-0.9-5.3-2.5l-20.7-25.3c-0.7-0.8-1.6-1.3-2.7-1.3H17.1
	C13.3,98.9,10.2,95.8,10.2,92z"/>
<polyline class="st0" points="44.6,83.5 25.3,83.5 25.3,22.9 33.4,22.9 33.4,76.2 44.6,76.2 44.6,83.5 "/>
<path class="st0" d="M58.6,83.5c-6.5,0-9.8-3.4-9.8-10.3V33.3c0-6.9,3.2-10.4,9.7-10.4h7.8c6.5,0,9.7,3.5,9.7,10.4v39.9
	c0,6.9-3.3,10.3-9.8,10.3H58.6 M60.5,76.2h4.1c2.1,0,3.2-1.2,3.2-3.6V33.8c0-2.4-1.2-3.5-3.6-3.5h-3.8c-2.4,0-3.5,1.2-3.5,3.5v38.8
	C56.9,75,58.1,76.2,60.5,76.2z"/>
<path class="st0" d="M107.4,69.3v3.9c0,6.9-3.2,10.3-9.7,10.3h-5.2c-6.5,0-9.7-3.4-9.7-10.3v-40c0-6.9,3.2-10.3,9.7-10.3h5.2
	c6.5,0,9.7,3.4,9.7,10.3V40h-8.1v-6.2c0-2.4-1.2-3.5-3.6-3.5H94c-2.1,0-3.2,1.2-3.2,3.5v38.8c0,2.4,1.1,3.6,3.2,3.6h2
	c2.1,0,3.2-1.2,3.2-3.6v-3.3H107.4"/>
<path class="st0" d="M123.1,83.5c-6.5,0-9.8-3.4-9.8-10.3V33.3c0-6.9,3.2-10.4,9.7-10.4h7.8c6.5,0,9.7,3.5,9.7,10.4v39.9
	c0,6.9-3.3,10.3-9.8,10.3H123.1 M125,76.2h4.1c2.1,0,3.2-1.2,3.2-3.6V33.8c0-2.4-1.2-3.5-3.6-3.5h-3.8c-2.4,0-3.5,1.2-3.5,3.5v38.8
	C121.4,75,122.6,76.2,125,76.2z"/>
<polyline class="st0" points="164.4,52.2 164.4,22.9 172.5,22.9 172.5,83.5 164.4,83.5 164.4,71.4 155.7,43.8 155.7,83.5 
	147.6,83.5 147.6,22.9 155.7,22.9 164.4,52.2 "/>
<path class="st0" d="M189.5,83.5c-6.5,0-9.8-3.4-9.8-10.3V33.3c0-6.9,3.2-10.4,9.7-10.4h7.8c6.5,0,9.7,3.5,9.7,10.4v39.9
	c0,6.9-3.3,10.3-9.8,10.3H189.5 M191.4,76.2h4.1c2.1,0,3.2-1.2,3.2-3.6V33.8c0-2.4-1.2-3.5-3.6-3.5h-3.8c-2.4,0-3.5,1.2-3.5,3.5
	v38.8C187.8,75,189,76.2,191.4,76.2z"/>
<polyline class="st0" points="230.5,58.5 238,22.9 247,22.9 247,83.5 238.9,83.5 239.7,43.8 233.6,72.5 227.4,72.5 221.3,43.8 
	222.2,83.5 214.1,83.5 214.1,22.9 223,22.9 230.5,58.5 "/>
<rect x="254.6" y="22.9" class="st0" width="8.1" height="60.6"/>
<path class="st0" d="M294.5,69.3v3.9c0,6.9-3.2,10.3-9.7,10.3h-5.2c-6.5,0-9.7-3.4-9.7-10.3v-40c0-6.9,3.2-10.3,9.7-10.3h5.2
	c6.5,0,9.7,3.4,9.7,10.3V40h-8.1v-6.2c0-2.4-1.2-3.5-3.6-3.5h-1.6c-2.1,0-3.2,1.2-3.2,3.5v38.8c0,2.4,1.1,3.6,3.2,3.6h2
	c2.1,0,3.2-1.2,3.2-3.6v-3.3H294.5"/>
<path class="st0" d="M316.4,39.2v-5.3c0-2.4-1.2-3.6-3.5-3.6h-1.3c-2.3,0-3.5,1.2-3.5,3.6v10c0,1.1,0.2,1.9,0.7,2.3
	c0.5,0.4,1.2,0.9,2.2,1.5l7.7,4.1c1.7,1,2.9,1.7,3.6,2.2c0.7,0.5,1.2,1.2,1.6,1.9c0.4,0.8,0.6,2.2,0.6,4.3v12.9
	c0,6.8-3.3,10.2-9.8,10.2h-5c-6.5,0-9.7-3.7-9.7-11.1v-3h8.1v3.3c0,2.4,1.2,3.6,3.6,3.6h1.4c2.1,0,3.2-1.2,3.2-3.6V62.3
	c0-1.1-0.2-1.9-0.7-2.3c-0.4-0.4-1.2-0.9-2.2-1.5l-7.7-4.3c-1.7-0.9-2.9-1.7-3.7-2.3c-0.8-0.6-1.3-1.4-1.7-2.4
	c-0.3-1-0.5-2.3-0.5-3.8V33.3c0-6.9,3.2-10.4,9.7-10.4h5.1c6.5,0,9.7,3.5,9.7,10.4v5.9H316.4"/>
<path class="st0" d="M178.9,119h-2.5v-15.6c0-2.1,1-3.2,3-3.2h1.9c2,0,3,1.1,3,3.2V119h-2.5v-6.9h-2.9V119 M181.8,109.9v-6.3
	c0-0.7-0.4-1.1-1.1-1.1H180c-0.7,0-1.1,0.4-1.1,1.1v6.3H181.8z"/>
<polyline class="st0" points="190.5,102.5 190.5,119 188,119 188,102.5 185.6,102.5 185.6,100.2 192.9,100.2 192.9,102.5 
	190.5,102.5 "/>
<polyline class="st0" points="203.2,119 200.7,119 200.7,112.1 197.6,100.2 200.1,100.2 202,108.4 202.1,108.4 203.8,100.2 
	206.3,100.2 203.2,112.1 203.2,119 "/>
<path class="st0" d="M210.3,119c-2,0-3-1.1-3-3.2v-12.4c0-2.1,1-3.2,3-3.2h2.4c2,0,3,1.1,3,3.2v12.4c0,2.1-1,3.2-3,3.2H210.3
	 M210.9,116.7h1.3c0.7,0,1-0.4,1-1.1v-12c0-0.7-0.4-1.1-1.1-1.1h-1.2c-0.7,0-1.1,0.4-1.1,1.1v12
	C209.8,116.4,210.2,116.7,210.9,116.7z"/>
<path class="st0" d="M226.1,100.2v15.2c0,2.4-1,3.6-3,3.6H221c-2,0-3-1.2-3-3.6v-15.2h2.5v15.3c0,0.8,0.4,1.2,1.1,1.2h1
	c0.7,0,1-0.4,1-1.2v-15.3H226.1"/>
<path class="st0" d="M228.5,100.2h4.9c1.9,0,2.9,1.1,2.9,3.2v4.6c0,1.6-0.5,2.7-1.5,3.1l1.8,7.8h-2.4l-1.6-7.6H231v7.6h-2.5V100.2
	 M231,109.3h1.6c0.7,0,1.1-0.5,1.1-1.4v-4.1c0-0.9-0.4-1.4-1.1-1.4H231V109.3z"/>
<path class="st0" d="M247.4,105.3v-1.6c0-0.8-0.4-1.1-1.1-1.1h-0.4c-0.7,0-1.1,0.4-1.1,1.1v3.1c0,0.3,0.1,0.6,0.2,0.7
	c0.1,0.1,0.4,0.3,0.7,0.5l2.4,1.3c0.5,0.3,0.9,0.5,1.1,0.7c0.2,0.2,0.4,0.4,0.5,0.6c0.1,0.2,0.2,0.7,0.2,1.3v4c0,2.1-1,3.2-3,3.2
	h-1.5c-2,0-3-1.2-3-3.5v-0.9h2.5v1c0,0.7,0.4,1.1,1.1,1.1h0.4c0.7,0,1-0.4,1-1.1v-3.2c0-0.3-0.1-0.6-0.2-0.7
	c-0.1-0.1-0.4-0.3-0.7-0.5l-2.4-1.3c-0.5-0.3-0.9-0.5-1.1-0.7c-0.2-0.2-0.4-0.4-0.5-0.7c-0.1-0.3-0.2-0.7-0.2-1.2v-3.8
	c0-2.1,1-3.2,3-3.2h1.6c2,0,3,1.1,3,3.2v1.8H247.4"/>
<polyline class="st0" points="252,119 252,100.2 258.2,100.2 258.2,102.5 254.5,102.5 254.5,108.2 257.8,108.2 257.8,110.5 
	254.5,110.5 254.5,116.7 258.2,116.7 258.2,119 252,119 "/>
<path class="st0" d="M260,100.2h4.9c1.9,0,2.9,1.1,2.9,3.2v4.6c0,1.6-0.5,2.7-1.5,3.1l1.8,7.8h-2.4l-1.7-7.6h-1.5v7.6H260V100.2
	 M262.5,109.3h1.7c0.8,0,1.1-0.5,1.1-1.4v-4.1c0-0.9-0.4-1.4-1.1-1.4h-1.7V109.3z"/>
<polyline class="st0" points="278,100.2 275,119 272,119 269,100.2 271.4,100.2 273.5,114.6 275.5,100.2 278,100.2 "/>
<rect x="279.4" y="100.2" class="st0" width="2.5" height="18.8"/>
<path class="st0" d="M291.8,114.6v1.2c0,2.1-1,3.2-3,3.2h-1.6c-2,0-3-1.1-3-3.2v-12.4c0-2.1,1-3.2,3-3.2h1.6c2,0,3,1.1,3,3.2v2.1
	h-2.5v-1.9c0-0.7-0.4-1.1-1.1-1.1h-0.5c-0.7,0-1,0.4-1,1.1v12c0,0.7,0.3,1.1,1,1.1h0.6c0.7,0,1-0.4,1-1.1v-1H291.8"/>
<polyline class="st0" points="293.8,119 293.8,100.2 300,100.2 300,102.5 296.3,102.5 296.3,108.2 299.6,108.2 299.6,110.5 
	296.3,110.5 296.3,116.7 300,116.7 300,119 293.8,119 "/>
</svg>
