<?xml version="1.0" encoding="utf-8"?>
<!-- Generator: Adobe Illustrator 15.0.0, SVG Export Plug-In . SVG Version: 6.00 Build 0)  -->
<!DOCTYPE svg PUBLIC "-//W3C//DTD SVG 1.1//EN" "http://www.w3.org/Graphics/SVG/1.1/DTD/svg11.dtd">
<svg version="1.1" id="mascota_x5F_02_xA0_Image_1_"
	 xmlns="http://www.w3.org/2000/svg" xmlns:xlink="http://www.w3.org/1999/xlink" x="0px" y="0px" width="1098.2px"
	 height="1098.2px" viewBox="0 0 1098.2 1098.2" style="enable-background:new 0 0 1098.2 1098.2;" xml:space="preserve">
<style type="text/css">
<![CDATA[
	.st0{fill-rule:evenodd;clip-rule:evenodd;fill:#FFFFFF;}
	.st1{fill-rule:evenodd;clip-rule:evenodd;fill:#00989A;}
]]>
</style>
<g>
	<path class="st1" d="M167.5,0c254.4,0,508.8,0,763.2,0c49.4,3.3,84,21.8,111.6,46.8c26.4,24,48,59.8,54.2,103.9
		c3.4,23.9,1.7,51.3,1.7,77.5c0,224,0,447.5,0,672.5c0,13.2,0.4,26.1-0.7,38.6c-4.3,46.4-25.1,82-50.6,107.5
		c-25.4,25.4-61.1,46.6-107.8,50.6c-25.1,2.2-51.9,0.7-78.5,0.7c-211.6,0-421.6,0-632.9,0c-26.2,0-53.4,1.7-77.3-1.7
		c-44.4-6.2-79-27.5-103.7-54.5C21.7,1014.7,3.5,980.4,0,930.7c0-254.4,0-508.8,0-763.2c0.2-0.1,0.3-0.2,0.2-0.5
		C3.4,115.4,24,78.9,51.6,51.4C79.2,23.7,116.1,3.4,167.5,0z M436.3,371.8c-38.6,0.6-66.6,14.4-89,31c-19.5-8.3-38.9-16.8-58.6-25
		c3.8,29.9,7.9,59.5,12,89c-4.3,10.8-7.1,23.1-8.6,36.7c-16.5-4.1-33-7.7-49.7-11.8c-5.5-1.4-11.4-3.7-16.8-3.8
		c-10.1-0.2-17,9.1-14.2,18.7c3,10.2,15.2,10.8,25.9,13.4c18.4,4.5,37.5,8.8,55,13.4c0.2,3.9,1.4,8.2,1.4,11.5
		c-6.4,1.4-13.2,2.9-20.2,4.6c-11.3,2.7-25.5,3.3-27.8,14.6c-2.1,10.2,4.7,18.3,14.9,17.8c3.3-0.2,7-1.3,10.6-2.2
		c10.4-2.4,21-5,31-7.2c10.3,24.8,25.6,45,46.1,60.7c20.2,15.5,45.2,27.2,77.3,29.8c35.4,2.9,63.9-6.8,86.2-19.7
		c22.8-13.2,39.5-32.1,53-54c21,11.8,42.5,23.8,63.6,35.8c3.2,1.8,6.6,4,9.6,4.8c16.2,4.1,23.7-16.4,13-25.2c-2.4-2-6-3.5-9.1-5.3
		c-21.7-12.4-44.5-24.5-65.5-37c2.7-9,5.1-18.3,6-29c16.1-4.4,32.3-9.3,48.5-13.7c5.5-1.5,11.6-2.4,16.1-4.8
		c5.6-3.1,9.5-10.7,6.5-18.2c-2.1-5.2-7.8-9.9-15.8-8.6c-4.5,0.7-9,2.5-13.7,3.8c-13.6,3.8-28.7,8-41.3,11.3
		c-1.1-11.3-3.5-21.9-6.7-31.4c-1.1-3.3-3.1-6.9-3.4-9.6c-0.2-3,0.9-6.9,1.4-10.6c3.6-25.4,6.7-50.4,10.1-75.4
		c-19.7,8.1-39.1,16.6-58.6,25C503.1,385.4,474.3,371.2,436.3,371.8z M584.2,837.4c-5.6-24.5-15.4-45.5-27.8-63.1
		c-12.5-17.7-28.5-32.5-48-43c-20.4-11-44.2-15.5-77.3-13.9c-30.2,1.4-54.7,14.7-72.7,30c-27.4,23.3-46.6,56.6-54.2,98.4
		c-2.6,14.5-3.1,30.4-3.1,47.8c0,32.7,0,67.5,0,102c96,0,192,0,288,0c0-8.7,0-17.4,0-26.2c13-7.9,27.4-14.2,44.4-17.5
		c18.4-3.6,38.5-1.4,53.5,4.8c7.2,3,13.9,6.8,21.1,9.8c22.2,9.3,46.6,14.8,77.3,16.1c20.1,0.8,38.3-3.1,53.3-8.6
		c15.1-5.6,28.1-13.9,37-25.2c7.7-9.8,18.5-32.1,5.8-44.4c-5.6-5.4-15.2-7.5-23-3.6c-3.7,1.8-5.9,3.8-8.2,7.4
		c-2.3,3.6-2,7.4-3.8,11.8c-3.7,8.6-14.7,14-23.8,17c-10.9,3.7-22.2,5.3-35.5,5.3c-27,0-49.1-6.5-67.2-14.6c-9-4-18-9.3-28.3-12.5
		c-10.4-3.2-21.9-5.6-35.3-5.8c-27-0.4-48,6.2-67.2,14.2C589.3,892.4,589.8,861.9,584.2,837.4z"/>
	<path class="st0" d="M525.4,401.3c19.5-8.4,38.9-16.8,58.6-25c-3.4,25-6.5,49.9-10.1,75.4c-0.5,3.6-1.7,7.6-1.4,10.6
		c0.2,2.7,2.3,6.3,3.4,9.6c3.2,9.5,5.7,20.1,6.7,31.4c12.6-3.3,27.6-7.5,41.3-11.3c4.7-1.3,9.2-3.1,13.7-3.8
		c8-1.3,13.8,3.5,15.8,8.6c3,7.6-0.9,15.2-6.5,18.2c-4.5,2.4-10.6,3.3-16.1,4.8c-16.2,4.4-32.4,9.3-48.5,13.7
		c-0.9,10.8-3.3,20.1-6,29c21,12.5,43.8,24.6,65.5,37c3.2,1.8,6.7,3.3,9.1,5.3c10.7,8.8,3.2,29.3-13,25.2c-3-0.8-6.4-3-9.6-4.8
		c-21.1-12-42.6-24-63.6-35.8c-13.5,21.9-30.2,40.8-53,54c-22.3,12.9-50.8,22.5-86.2,19.7c-32.1-2.6-57.1-14.3-77.3-29.8
		c-20.5-15.8-35.7-36-46.1-60.7c-9.9,2.2-20.6,4.8-31,7.2c-3.6,0.8-7.2,2-10.6,2.2c-10.2,0.5-16.9-7.6-14.9-17.8
		c2.3-11.3,16.6-12,27.8-14.6c6.9-1.6,13.8-3.1,20.2-4.6c-0.1-3.3-1.2-7.6-1.4-11.5c-17.5-4.7-36.5-9-55-13.4
		c-10.7-2.6-22.9-3.3-25.9-13.4c-2.9-9.6,4.1-18.9,14.2-18.7c5.4,0.1,11.3,2.5,16.8,3.8c16.7,4.1,33.2,7.7,49.7,11.8
		c1.5-13.6,4.3-25.9,8.6-36.7c-4.1-29.6-8.2-59.2-12-89c19.7,8.1,39.1,16.6,58.6,25c22.4-16.6,50.4-30.3,89-31
		C474.3,371.2,503.1,385.4,525.4,401.3z"/>
	<path class="st0" d="M589,923.5c19.2-7.9,40.2-14.6,67.2-14.2c13.4,0.2,24.9,2.6,35.3,5.8c10.3,3.2,19.3,8.4,28.3,12.5
		c18.1,8.2,40.2,14.6,67.2,14.6c13.3,0,24.6-1.6,35.5-5.3c9.1-3.1,20-8.5,23.8-17c1.9-4.3,1.6-8.2,3.8-11.8c2.3-3.6,4.5-5.6,8.2-7.4
		c7.9-3.9,17.5-1.8,23,3.6c12.7,12.3,1.9,34.6-5.8,44.4c-8.9,11.3-21.8,19.6-37,25.2c-15,5.6-33.1,9.4-53.3,8.6
		c-30.7-1.2-55.1-6.7-77.3-16.1c-7.2-3-13.9-6.9-21.1-9.8c-15-6.2-35.1-8.4-53.5-4.8c-17,3.3-31.4,9.7-44.4,17.5
		c0,8.7,0,17.4,0,26.2c-96,0-192,0-288,0c0-34.5,0-69.3,0-102c0-17.3,0.5-33.3,3.1-47.8c7.6-41.8,26.8-75.1,54.2-98.4
		c18-15.3,42.5-28.6,72.7-30c33.1-1.6,56.9,2.9,77.3,13.9c19.5,10.5,35.5,25.2,48,43c12.4,17.6,22.2,38.6,27.8,63.1
		C589.8,861.9,589.3,892.4,589,923.5z"/>
</g>
</svg>
