<?xml version="1.0" encoding="utf-8"?>
<!-- Generator: Adobe Illustrator 15.0.0, SVG Export Plug-In . SVG Version: 6.00 Build 0)  -->
<!DOCTYPE svg PUBLIC "-//W3C//DTD SVG 1.1//EN" "http://www.w3.org/Graphics/SVG/1.1/DTD/svg11.dtd">
<svg version="1.1" id="abuelo_x5F_02_xA0_Image_1_" xmlns="http://www.w3.org/2000/svg" xmlns:xlink="http://www.w3.org/1999/xlink"
	 x="0px" y="0px" width="1098.2px" height="1098.2px" viewBox="0 0 1098.2 1098.2"
	 style="enable-background:new 0 0 1098.2 1098.2;" xml:space="preserve">
<style type="text/css">
<![CDATA[
	.st0{fill-rule:evenodd;clip-rule:evenodd;fill:#FFFFFF;}
	.st1{fill-rule:evenodd;clip-rule:evenodd;fill:#00989A;}
]]>
</style>
<g>
	<rect x="341.1" y="127.1" class="st0" width="424" height="882"/>
	<path class="st1" d="M167.5,0c254.4,0,508.8,0,763.2,0c49.4,3.3,84,21.8,111.6,46.8c26.4,24,48,59.8,54.2,103.9
		c3.4,23.9,1.7,51.3,1.7,77.5c0,224,0,447.5,0,672.5c0,13.2,0.4,26.1-0.7,38.6c-4.3,46.4-25.1,82-50.6,107.5
		c-25.4,25.4-61.1,46.6-107.8,50.6c-25.1,2.2-51.9,0.7-78.5,0.7c-211.6,0-421.6,0-632.9,0c-26.2,0-53.4,1.7-77.3-1.7
		c-44.4-6.2-79-27.5-103.7-54.5C21.7,1014.7,3.5,980.4,0,930.7c0-254.4,0-508.8,0-763.2c0.2-0.1,0.3-0.2,0.2-0.5
		C3.4,115.4,24,78.9,51.6,51.4C79.2,23.7,116.1,3.4,167.5,0z M541.2,146.2c-29.7,13.8-51.4,36.8-64.3,66.7
		c-6.4,14.7-11.4,34.4-10.6,55c1.3,30.7,11.3,54.5,24.7,73.2c13.6,19,31.3,34.2,54.5,43.9c15.1,6.3,34.1,11.5,55,10.6
		c40.2-1.8,68.7-17.6,91-39.8c10.7-10.7,19.4-23.9,26.2-39.4c6.6-15.2,11.4-33.7,10.6-54.5c-1.7-42-17.8-69.4-39.6-91.2
		c-10.7-10.7-23.6-19.7-39.1-26.4c-14.8-6.3-35-11.5-55-10.6C573.2,134.7,556.5,139,541.2,146.2z M732.7,589
		c0-12.8,0.2-25.1-0.2-36.7c-1.2-34.6-16-59.5-33.4-78.2c-11.9-12.8-26.6-23.1-44.2-30c-18-7.1-39.8-9.4-66.2-8.2
		c-21.9,1-40.4,8.4-54.7,16.8c-28.7,17-51.2,44.9-58.3,82.8c-3.8,20.2-2.2,43.9-2.2,68.4c0,93.2,0,189.7,0,282.2
		c86.4,0,172.8,0,259.2,0C732.7,787.4,732.7,687.5,732.7,589z M397.9,565.2c-6.3,0-13-0.6-19.2,0c-9.3,1-16.5,11-11.8,20.9
		c1.6,3.3,5.6,6.8,9.6,7.7c5.3,1.2,12.6,0.2,19.2,0.2c19.3,0,41.4,0,59,0c0-9.6,0-19.2,0-28.8C435.6,565.2,416.7,565.2,397.9,565.2z
		 M370.3,602.4c0,119.5,0,239.2,0,359c0,7.4-1.2,17.7,1,23c1.9,4.6,6.2,8.1,11.3,8.6c8.6,0.9,14.3-3.8,16.1-10.1
		c1.7-6,0.5-16,0.5-23.3c0-119.6,0-240,0-358.1c-9.5,0-19,0-28.6,0C370.3,601.7,370.3,602.1,370.3,602.4z M554.2,907
		c0,19.2,0,40.1,0,59.8c0,6.6-1,14.4,0.7,19.4c2.4,7,11.1,11.6,19.2,8.4c3.1-1.2,6.8-4.4,8.2-8.4c1.8-5.2,0.7-12.8,0.7-19.4
		c0-20.8,0-40.6,0-60.5c-9.5,0-19,0-28.6,0C554.1,906.3,554.1,906.6,554.2,907z M620.4,907c0,18.4,0,39.2,0,58.3
		c0,6.7-1.1,14.1,0.2,19.4c1.3,5.1,5.7,9.1,9.6,10.3c7.5,2.3,15.4-1.9,18-8.4c1.9-4.8,1-13.4,1-19.9c0-20.2,0-41.1,0-60.5
		c-9.5,0-19,0-28.6,0C620.4,906.3,620.4,906.6,620.4,907z"/>
	<path class="st0" d="M594.5,133.7c20-1,40.2,4.2,55,10.6c15.6,6.7,28.4,15.7,39.1,26.4c21.8,21.8,37.9,49.2,39.6,91.2
		c0.8,20.8-3.9,39.3-10.6,54.5c-6.7,15.4-15.5,28.7-26.2,39.4c-22.2,22.2-50.8,38-91,39.8c-20.8,0.9-39.9-4.2-55-10.6
		c-23.1-9.7-40.9-25-54.5-43.9c-13.4-18.7-23.4-42.5-24.7-73.2c-0.9-20.6,4.2-40.2,10.6-55c13-29.9,34.6-52.9,64.3-66.7
		C556.5,139,573.2,134.7,594.5,133.7z"/>
	<path class="st0" d="M732.7,886.1c-86.4,0-172.8,0-259.2,0c0-92.5,0-189,0-282.2c0-24.5-1.6-48.2,2.2-68.4
		c7.1-37.9,29.6-65.8,58.3-82.8c14.3-8.4,32.8-15.8,54.7-16.8c26.5-1.3,48.2,1.1,66.2,8.2c17.6,6.9,32.3,17.2,44.2,30
		c17.4,18.7,32.2,43.6,33.4,78.2c0.4,11.6,0.2,23.9,0.2,36.7C732.7,687.5,732.7,787.4,732.7,886.1z"/>
	<path class="st0" d="M454.8,565.2c0,9.6,0,19.2,0,28.8c-17.6,0-39.8,0-59,0c-6.6,0-13.9,0.9-19.2-0.2c-4-0.9-8-4.4-9.6-7.7
		c-4.8-9.9,2.4-19.9,11.8-20.9c6.2-0.6,12.9,0,19.2,0C416.7,565.2,435.6,565.2,454.8,565.2z"/>
	<path class="st0" d="M370.6,601.7c9.5,0,19,0,28.6,0c0,118,0,238.5,0,358.1c0,7.3,1.3,17.2-0.5,23.3c-1.8,6.2-7.5,11-16.1,10.1
		c-5.1-0.5-9.4-4.1-11.3-8.6c-2.2-5.4-1-15.7-1-23c0-119.9,0-239.6,0-359C370.3,602.1,370.3,601.7,370.6,601.7z"/>
	<path class="st0" d="M554.4,906.2c9.5,0,19,0,28.6,0c0,19.9,0,39.6,0,60.5c0,6.6,1,14.3-0.7,19.4c-1.4,4-5.1,7.2-8.2,8.4
		c-8.1,3.2-16.8-1.4-19.2-8.4c-1.8-5-0.7-12.9-0.7-19.4c0-19.7,0-40.6,0-59.8C554.1,906.6,554.1,906.3,554.4,906.2z"/>
	<path class="st0" d="M620.6,906.2c9.5,0,19,0,28.6,0c0,19.3,0,40.3,0,60.5c0,6.5,1,15.1-1,19.9c-2.6,6.5-10.5,10.7-18,8.4
		c-4-1.2-8.3-5.3-9.6-10.3c-1.4-5.3-0.2-12.7-0.2-19.4c0-19.1,0-39.9,0-58.3C620.4,906.6,620.4,906.3,620.6,906.2z"/>
</g>
</svg>
